<svg width="449" height="422" viewBox="0 0 449 422" fill="none" xmlns="http://www.w3.org/2000/svg">
<g filter="url(#filter0_d_353_178)">
<rect x="4" y="183" width="231" height="231" rx="115.5" fill="url(#paint0_linear_353_178)" shape-rendering="crispEdges"/>
<rect x="8" y="187" width="223" height="223" rx="111.5" stroke="white" stroke-width="8" shape-rendering="crispEdges"/>
<g filter="url(#filter1_d_353_178)">
<path d="M103.203 236.789C105.664 236.789 107.797 237.263 109.602 238.211C111.424 239.141 112.919 240.417 114.086 242.039C115.271 243.643 116.146 245.475 116.711 247.535C117.294 249.595 117.586 251.737 117.586 253.961C117.586 256.312 117.322 258.646 116.793 260.961C116.283 263.276 115.444 265.391 114.277 267.305C113.129 269.201 111.607 270.723 109.711 271.871C107.815 273.02 105.5 273.594 102.766 273.594C99.9948 273.594 97.6523 273.111 95.7383 272.145C93.8242 271.16 92.2839 269.82 91.1172 268.125C89.9505 266.43 89.1029 264.479 88.5742 262.273C88.0456 260.049 87.7812 257.707 87.7812 255.246C87.7812 252.858 88.082 250.561 88.6836 248.355C89.3034 246.15 90.2422 244.181 91.5 242.449C92.776 240.699 94.3802 239.323 96.3125 238.32C98.263 237.299 100.56 236.789 103.203 236.789ZM102.902 268.535C103.376 268.535 103.759 268.171 104.051 267.441C104.342 266.712 104.57 265.792 104.734 264.68C104.898 263.568 105.008 262.419 105.062 261.234C105.135 260.049 105.172 258.983 105.172 258.035C105.19 257.087 105.199 256.44 105.199 256.094C105.199 255.62 105.199 254.836 105.199 253.742C105.199 252.63 105.163 251.409 105.09 250.078C105.035 248.729 104.917 247.435 104.734 246.195C104.57 244.938 104.324 243.908 103.996 243.105C103.668 242.285 103.23 241.875 102.684 241.875C102.118 241.875 101.681 242.194 101.371 242.832C101.061 243.47 100.833 244.245 100.688 245.156C100.542 246.049 100.441 246.915 100.387 247.754C100.35 248.574 100.332 249.176 100.332 249.559C100.314 250.525 100.296 251.5 100.277 252.484C100.259 253.451 100.25 254.417 100.25 255.383C100.25 256.003 100.259 256.896 100.277 258.062C100.296 259.229 100.341 260.46 100.414 261.754C100.505 263.03 100.633 264.206 100.797 265.281C100.979 266.357 101.225 267.132 101.535 267.605C101.717 267.861 101.9 268.079 102.082 268.262C102.283 268.444 102.556 268.535 102.902 268.535ZM121.414 267.195C121.414 265.792 121.715 264.625 122.316 263.695C122.918 262.747 123.702 262.009 124.668 261.48L124.613 261.426L124.887 261.344C125.944 260.815 127.174 260.496 128.578 260.387L128.633 260.359C129.016 260.268 129.417 260.104 129.836 259.867C130.255 259.612 130.629 259.375 130.957 259.156C132.634 258.062 133.883 256.941 134.703 255.793C135.542 254.626 136.098 253.323 136.371 251.883C136.645 250.443 136.781 248.775 136.781 246.879C136.781 246.569 136.772 246.104 136.754 245.484C136.736 244.846 136.672 244.19 136.562 243.516C136.453 242.823 136.271 242.24 136.016 241.766C135.76 241.273 135.405 241.027 134.949 241.027C134.366 241.027 133.947 241.219 133.691 241.602C133.454 241.984 133.309 242.44 133.254 242.969C133.217 243.479 133.199 243.944 133.199 244.363V247.262C133.199 248.975 132.707 250.379 131.723 251.473C130.757 252.548 129.389 253.086 127.621 253.086C125.725 253.086 124.34 252.439 123.465 251.145C122.59 249.832 122.152 248.319 122.152 246.605C122.152 244.764 122.572 243.215 123.41 241.957C124.249 240.699 125.352 239.697 126.719 238.949C128.086 238.184 129.572 237.637 131.176 237.309C132.798 236.962 134.375 236.789 135.906 236.789C137.62 236.789 139.288 236.962 140.91 237.309C142.533 237.655 143.991 238.229 145.285 239.031C146.598 239.815 147.637 240.882 148.402 242.23C149.186 243.561 149.578 245.229 149.578 247.234C149.578 249.24 149.122 250.999 148.211 252.512C147.299 254.025 146.105 255.337 144.629 256.449C143.171 257.561 141.621 258.536 139.98 259.375C139.47 259.63 138.96 259.876 138.449 260.113C137.957 260.35 137.447 260.569 136.918 260.77C137.975 260.861 139.033 260.943 140.09 261.016C141.165 261.089 142.241 261.125 143.316 261.125C144.447 261.125 145.331 260.952 145.969 260.605C146.625 260.241 147.154 259.831 147.555 259.375C147.974 258.919 148.366 258.518 148.73 258.172C149.095 257.807 149.551 257.625 150.098 257.625C150.918 257.625 151.428 258.008 151.629 258.773C151.829 259.521 151.93 260.204 151.93 260.824C151.93 260.988 151.921 261.161 151.902 261.344C151.902 261.508 151.893 261.672 151.875 261.836C151.766 263.258 151.547 264.671 151.219 266.074C150.909 267.46 150.417 268.727 149.742 269.875C149.068 271.005 148.165 271.908 147.035 272.582C145.905 273.275 144.483 273.621 142.77 273.621C141.092 273.621 139.579 273.211 138.23 272.391C136.9 271.57 135.979 270.322 135.469 268.645C135.359 268.298 135.268 267.952 135.195 267.605C135.122 267.259 134.84 267.086 134.348 267.086C133.892 267.086 133.582 267.277 133.418 267.66C133.272 268.025 133.154 268.38 133.062 268.727C132.552 270.604 131.868 271.88 131.012 272.555C130.155 273.247 128.742 273.594 126.773 273.594C124.951 273.594 123.602 272.938 122.727 271.625C121.852 270.312 121.414 268.836 121.414 267.195Z" fill="white" fill-opacity="0.8"/>
<path d="M142.5 287.5C143.052 287.5 143.5 287.052 143.5 286.5C143.5 285.948 143.052 285.5 142.5 285.5V286.5V287.5ZM96.5 286.5V287.5H142.5V286.5V285.5H96.5V286.5Z" fill="white"/>
<path d="M92.82 301.431V313.379C92.82 317.816 92.211 320.426 90.5 323.036C90.123 323.616 88.528 326.052 86.904 326.052C85.715 326.052 85.222 325.066 85.222 324.399C85.222 323.848 85.715 323.326 86.759 322.166C89.166 319.498 89.311 317.41 89.485 315.293C88.441 316.018 86.411 317.439 85.599 317.439C84.7 317.439 83.946 316.54 83.946 315.554C83.946 315.293 83.975 315.177 84.004 315.09C83.772 315.148 83.685 315.177 83.279 315.264V322.688C83.279 325.675 80.93 325.704 80.118 325.704C79.48 325.704 77.102 325.588 77.102 323.819C77.102 322.862 77.624 321.963 78.61 321.963C78.755 321.963 79.451 322.05 79.625 322.05C79.857 322.05 79.857 321.963 79.857 321.586V315.902C79.248 315.989 78.842 316.047 78.436 316.047C76.841 316.047 76.841 314.423 76.841 314.278C76.841 313.611 77.16 313.031 77.885 312.828C78.001 312.799 79.712 312.596 79.857 312.567V307.579H79.335C77.972 307.579 77.015 307.579 77.015 305.897C77.015 304.36 78.117 304.36 79.335 304.36H79.857V301.286C79.857 299.807 79.857 298.966 81.684 298.966C83.279 298.966 83.279 300.039 83.279 301.286V304.36H83.685C84.062 304.36 84.236 304.389 84.41 304.418C84.439 303.432 85.251 302.678 86.208 302.678C86.759 302.678 87.049 302.91 87.397 303.229C87.542 303.345 88.296 304.07 89.514 305.346V301.431C89.514 300.01 89.514 299.111 91.254 299.111C92.82 299.111 92.82 300.213 92.82 301.431ZM89.514 310.856V310.421C88.905 309.696 85.947 306.622 85.367 305.984C85.338 307.521 84.265 307.579 83.685 307.579H83.279V312.045C83.569 311.958 83.946 311.871 84.207 311.871C84.236 311.871 85.628 311.871 85.541 313.727C86.643 312.973 88.064 311.958 89.514 310.856ZM98.156 309.232V310.798C98.591 311.088 99.925 311.958 102.825 313.466C103.289 313.698 104.014 314.075 104.014 315.032C104.014 315.583 103.608 316.772 102.361 316.772C101.288 316.772 99.49 315.554 98.156 314.597V320.832C98.156 321.209 98.156 321.76 98.794 321.76H99.78C100.389 321.76 100.476 321.064 100.592 320.339C100.708 319.643 100.882 318.512 102.071 318.512C102.709 318.512 103.782 318.744 103.782 320.165C103.782 320.977 103.463 322.659 102.825 323.79C101.984 325.211 100.911 325.211 99.925 325.211H97.286C95.807 325.211 94.792 324.225 94.792 322.601V301.286C94.792 300.184 94.792 299.082 96.358 299.082C98.156 299.082 98.156 299.981 98.156 301.286V305.114C99.055 304.389 99.432 304.012 100.534 302.968C100.766 302.736 101.143 302.417 101.723 302.417C102.622 302.417 103.521 303.287 103.521 304.099C103.521 304.911 102.303 306.709 98.156 309.232ZM120.979 305.288L124.372 305.23C124.256 299.894 124.227 299.082 125.996 299.082C127.823 299.082 127.881 299.923 127.794 305.143L130.201 305.085C131.477 305.056 132.579 305.027 132.579 306.651C132.579 308.536 131.535 308.565 130.288 308.594L127.823 308.652C127.881 309.783 127.881 310.16 128.113 313.437C128.374 313.06 129.273 311.436 129.563 310.914C129.766 310.537 130.172 310.131 130.81 310.131C131.303 310.131 132.521 310.653 132.521 311.668C132.521 312.19 131.622 314.742 128.693 318.222C128.751 318.57 129.244 320.629 129.476 320.629C129.708 320.629 130.056 319.237 130.114 319.034C130.201 318.744 130.578 318.164 131.419 318.164C132.173 318.164 132.84 318.57 132.84 319.643C132.84 321.615 131.738 325.704 129.418 325.704C127.939 325.704 126.75 323.326 125.967 321.122C124.372 322.688 122.197 324.602 120.863 324.602C119.79 324.602 119.239 323.558 119.239 322.949C119.239 322.079 119.848 321.644 120.428 321.238H115.614V323.181C115.614 324.399 115.614 325.501 114.077 325.501C112.366 325.501 112.366 324.573 112.366 323.181V321.238H108.364C107.146 321.238 106.044 321.238 106.044 319.701C106.044 317.961 106.972 317.961 108.364 317.961H112.366V316.482H109.031C107.639 316.482 106.914 315.612 106.914 314.365V306.419C106.914 305.317 107.523 304.331 109.031 304.331H115.788C117.18 302.214 117.586 301.402 118.108 300.184C118.224 299.894 118.514 299.111 119.442 299.111C119.848 299.111 121.24 299.517 121.24 300.59C121.24 301.663 119.732 304.157 119.616 304.331C120.486 304.505 120.805 304.998 120.979 305.288ZM115.614 307.463V309H118.05V308.101C118.05 307.869 118.05 307.463 117.296 307.463H115.614ZM124.43 308.71L121.24 308.797V314.365C121.24 315.612 120.544 316.482 119.152 316.482H115.614V317.961H119.5C120.863 317.961 121.82 317.961 121.82 319.643C121.82 319.817 121.791 320.078 121.762 320.223C122.719 319.44 123.763 318.512 125.01 317.149C124.575 314.336 124.546 313.118 124.43 308.71ZM115.614 311.755V313.321H117.296C118.05 313.321 118.05 312.886 118.05 312.683V311.755H115.614ZM112.366 313.321V311.755H110.017V312.683C110.017 312.886 110.017 313.321 110.771 313.321H112.366ZM112.366 309V307.463H110.771C110.017 307.463 110.017 307.869 110.017 308.101V309H112.366ZM108.045 299.111C109.495 299.111 110.655 301.924 110.655 302.417C110.655 303.606 109.205 304.012 108.77 304.012C108.161 304.012 108.132 303.867 107.436 302.707C106.537 301.199 106.421 301.025 106.421 300.648C106.421 299.807 107.262 299.111 108.045 299.111ZM113.439 303.983C112.598 303.983 112.366 303.403 111.873 302.098C111.786 301.895 111.351 300.967 111.293 300.793C111.206 300.59 111.177 300.387 111.177 300.213C111.177 299.256 112.076 298.879 112.656 298.879C113.468 298.85 113.816 299.314 114.454 300.59C114.686 301.025 115.15 301.953 115.15 302.504C115.15 303.49 114.28 303.983 113.439 303.983ZM132.724 302.794C132.724 303.896 131.767 304.418 131.071 304.418C130.375 304.418 130.172 304.099 129.389 302.852C129.244 302.649 128.548 301.692 128.432 301.489C128.258 301.228 128.171 300.909 128.171 300.59C128.171 299.807 128.896 299.111 129.679 299.111C131.013 299.111 132.724 302.214 132.724 302.794ZM146.847 306.593C146.702 306.941 146.122 308.043 145.397 309.116C146.064 308.826 146.963 308.42 148.5 308.42C151.487 308.42 152.386 310.218 152.734 310.914C153.923 310.479 158.592 308.826 159.317 308.826C160.042 308.826 161.028 309.348 161.028 310.74C161.028 311.9 160.39 312.248 159.23 312.567C156.707 313.234 155.112 313.756 153.459 314.336C153.517 315.119 153.575 315.989 153.575 316.685C153.575 317.439 153.575 319.208 151.661 319.208C151.052 319.208 149.776 318.86 149.776 317.149C149.776 316.946 149.805 316.076 149.805 315.902C148.268 316.656 145.774 317.903 145.774 319.295C145.774 320.484 147.021 321.122 150.878 321.122C153.111 321.122 155.46 320.745 155.75 320.716C155.953 320.687 156.533 320.513 156.997 320.513C158.041 320.513 158.882 321.354 158.882 322.514C158.882 322.92 158.708 323.79 157.722 324.196C156.243 324.834 151.516 324.834 150.327 324.834C149.283 324.834 145.368 324.834 143.541 323.326C142.642 322.601 141.772 321.383 141.772 319.759C141.772 317.874 142.555 315.583 149.196 312.306C148.848 311.871 148.21 311.639 147.659 311.639C144.73 311.639 141.25 314.365 140.061 315.525C139.075 316.453 138.756 316.743 138.002 316.743C136.784 316.743 136.03 315.641 136.03 314.771C136.03 314.162 136.32 313.756 136.784 313.35C140.496 310.015 141.685 308.942 142.874 306.738C142.439 306.738 139.974 306.796 139.858 306.796C139.104 306.796 137.335 306.796 137.335 304.998C137.335 303.229 138.93 303.229 139.568 303.229C141.221 303.229 142.903 303.2 144.556 303.142C144.73 302.707 145.368 300.648 145.571 300.271C146.006 299.546 146.731 299.343 147.166 299.343C148.326 299.343 149.196 300.3 149.196 301.141C149.196 301.692 148.79 302.562 148.645 302.939C149.834 302.881 151.951 302.736 153.024 302.62C153.691 302.562 153.807 302.562 153.923 302.562C155.025 302.562 155.75 303.113 155.75 304.331C155.75 305.781 154.793 306.013 154.474 306.1C153.43 306.361 148.442 306.564 146.847 306.593Z" fill="white"/>
<path d="M92.269 354.44V358.355C92.269 359.602 92.24 360.675 90.674 360.675C88.847 360.675 88.847 359.834 88.847 358.355V354.643C84.526 359.109 79.857 360.617 78.987 360.617C78.059 360.617 77.189 360.182 77.189 358.79C77.189 357.978 77.653 357.775 78.03 357.63C80.872 356.528 83.134 355.426 85.164 353.686H79.828C78.668 353.686 77.508 353.686 77.508 352.207C77.508 350.612 78.552 350.612 79.828 350.612H88.847V348.727H87.107C85.57 348.727 84.961 347.538 84.961 346.552V339.07C84.961 338.055 85.599 336.895 87.107 336.895H88.296C88.499 336.547 89.253 334.865 89.456 334.546C89.775 334.111 90.268 333.966 90.558 333.966C90.848 333.966 92.501 334.169 92.501 335.474C92.501 335.822 92.443 335.909 92.008 336.895H93.922C95.459 336.895 96.068 338.084 96.068 339.07V346.552C96.068 347.567 95.43 348.727 93.922 348.727H92.269V350.612H101.636C102.796 350.612 103.956 350.612 103.956 352.12C103.956 353.686 102.912 353.686 101.636 353.686H96.387C99.403 355.948 99.925 356.151 103.173 357.398C103.956 357.688 104.072 358.471 104.072 358.674C104.072 359.138 103.753 360.443 102.448 360.443C99.229 360.443 93.168 355.89 92.269 354.44ZM88.354 341.274H92.733V340.201C92.733 340.056 92.733 339.795 92.269 339.795H88.818C88.354 339.795 88.354 340.056 88.354 340.201V341.274ZM92.733 344.145H88.354V345.363C88.354 345.537 88.354 345.769 88.818 345.769H92.269C92.733 345.769 92.733 345.537 92.733 345.363V344.145ZM83.772 339.534C83.772 340.723 82.786 341.332 82.003 341.332C81.568 341.332 81.394 341.187 79.799 339.969C79.538 339.766 78.175 338.838 77.943 338.606C77.682 338.316 77.392 337.939 77.392 337.446C77.392 337.156 77.74 335.735 79.045 335.735C79.567 335.735 79.77 335.88 81.626 337.156C83.221 338.287 83.772 338.838 83.772 339.534ZM82.844 342.26C83.598 342.26 84.41 343.217 84.41 344.029C84.41 344.522 84.352 344.899 83.018 345.972C82.148 346.639 79.538 348.495 78.755 348.495C77.856 348.495 77.102 347.625 77.102 346.668C77.102 345.914 77.276 345.798 78.813 344.841C79.915 344.145 80.814 343.449 81.655 342.753C82.003 342.463 82.264 342.26 82.844 342.26ZM98.649 341.39C97.663 341.39 97.112 340.433 97.112 339.679C97.112 338.954 97.228 338.838 98.388 337.736C98.765 337.359 100.534 335.503 100.766 335.329C101.027 335.126 101.346 335.068 101.636 335.068C102.477 335.068 103.347 335.822 103.347 336.692C103.347 337.562 103.028 338.084 101.549 339.505C99.867 341.158 99.374 341.39 98.649 341.39ZM102.187 348.524C100.998 348.524 99.171 347.016 98.098 345.943C96.735 344.58 96.706 344.203 96.706 343.681C96.706 343.101 97.402 341.97 98.359 341.97C99.026 341.97 99.258 342.173 101.259 344C101.636 344.319 103.434 345.566 103.666 345.943C103.782 346.146 103.898 346.436 103.898 346.784C103.898 347.625 103.115 348.524 102.187 348.524ZM114.686 338.461L114.396 350.496C114.338 352.439 114.425 355.658 118.659 355.658C119.181 355.658 124.198 355.658 127.127 349.684C127.968 347.944 128.258 347.393 129.36 347.393C130.114 347.393 131.448 347.915 131.448 349.278C131.448 351.308 128.751 354.411 128.461 354.759C125.938 357.63 122.632 359.544 118.224 359.544C110.22 359.544 110.365 352.497 110.423 350.148L110.655 338.374C110.684 336.808 110.713 335.329 112.656 335.329C114.744 335.329 114.715 336.924 114.686 338.461ZM147.021 338.055L149.921 337.997C151.255 337.968 151.748 337.968 152.154 338.258C152.792 338.664 153.053 339.244 153.053 339.824C153.053 341.68 151.458 341.709 149.979 341.709L147.021 341.738V353.889C147.021 354.817 147.021 356.354 150.965 356.354C155.373 356.354 155.605 354.614 155.779 352.932C155.837 352.468 155.953 351.279 157.519 351.279C159.52 351.279 159.52 352.961 159.52 353.425C159.52 354.643 158.998 357.543 157.113 358.674C154.851 360.008 152.473 360.037 150.936 360.037C143.28 360.037 143.338 356.702 143.396 354.962C143.077 355.716 142.642 356.818 140.496 356.818C137.132 356.818 135.769 353.251 135.769 350.583C135.769 346.813 138.089 344 141.018 344C142.381 344 142.845 344.638 143.28 345.189V341.796L140.09 341.825C138.582 341.825 136.958 341.883 136.958 339.998C136.958 338.2 138.553 338.171 140.032 338.142L143.28 338.084C143.28 336.083 143.28 335.851 143.541 335.445C143.918 334.865 144.498 334.575 145.165 334.575C145.774 334.575 146.441 334.865 146.789 335.416C147.021 335.822 147.021 336.054 147.021 338.055ZM143.222 350.235C143.222 349.597 143.222 347.364 141.424 347.364C140.409 347.364 139.249 348.234 139.249 350.38C139.249 352.178 140.09 353.222 141.134 353.222C142.584 353.222 143.222 351.279 143.222 350.235ZM161.347 345.508C161.579 346.61 160.709 347.712 159.52 347.712C158.505 347.712 158.07 347.045 157.635 346.378C156.765 345.044 155.721 343.826 154.677 342.666C154.155 342.086 154.097 341.68 154.097 341.332C154.097 340.317 154.822 339.505 155.895 339.505C156.91 339.505 157.925 340.723 159.027 342.057C159.781 342.956 161.173 344.725 161.347 345.508Z" fill="white"/>
</g>
</g>
<g filter="url(#filter2_d_353_178)">
<rect x="119.5" width="231" height="231" rx="115.5" fill="url(#paint1_linear_353_178)" shape-rendering="crispEdges"/>
<rect x="123.5" y="4" width="223" height="223" rx="111.5" stroke="white" stroke-width="8" shape-rendering="crispEdges"/>
<g filter="url(#filter3_d_353_178)">
<path d="M219.578 53.7891C222.039 53.7891 224.172 54.263 225.977 55.2109C227.799 56.1406 229.294 57.4167 230.461 59.0391C231.646 60.6432 232.521 62.4753 233.086 64.5352C233.669 66.5951 233.961 68.737 233.961 70.9609C233.961 73.3125 233.697 75.6458 233.168 77.9609C232.658 80.276 231.819 82.3906 230.652 84.3047C229.504 86.2005 227.982 87.7227 226.086 88.8711C224.19 90.0195 221.875 90.5938 219.141 90.5938C216.37 90.5938 214.027 90.1107 212.113 89.1445C210.199 88.1602 208.659 86.8203 207.492 85.125C206.326 83.4297 205.478 81.4792 204.949 79.2734C204.421 77.0495 204.156 74.707 204.156 72.2461C204.156 69.8581 204.457 67.5612 205.059 65.3555C205.678 63.1497 206.617 61.181 207.875 59.4492C209.151 57.6992 210.755 56.3229 212.688 55.3203C214.638 54.2995 216.935 53.7891 219.578 53.7891ZM219.277 85.5352C219.751 85.5352 220.134 85.1706 220.426 84.4414C220.717 83.7122 220.945 82.7917 221.109 81.6797C221.273 80.5677 221.383 79.4193 221.438 78.2344C221.51 77.0495 221.547 75.9831 221.547 75.0352C221.565 74.0872 221.574 73.4401 221.574 73.0938C221.574 72.6198 221.574 71.8359 221.574 70.7422C221.574 69.6302 221.538 68.4089 221.465 67.0781C221.41 65.7292 221.292 64.4349 221.109 63.1953C220.945 61.9375 220.699 60.9076 220.371 60.1055C220.043 59.2852 219.605 58.875 219.059 58.875C218.493 58.875 218.056 59.194 217.746 59.832C217.436 60.4701 217.208 61.2448 217.062 62.1562C216.917 63.0495 216.816 63.9154 216.762 64.7539C216.725 65.5742 216.707 66.1758 216.707 66.5586C216.689 67.5247 216.671 68.5 216.652 69.4844C216.634 70.4505 216.625 71.4167 216.625 72.3828C216.625 73.0026 216.634 73.8958 216.652 75.0625C216.671 76.2292 216.716 77.4596 216.789 78.7539C216.88 80.0299 217.008 81.2057 217.172 82.2812C217.354 83.3568 217.6 84.1315 217.91 84.6055C218.092 84.8607 218.275 85.0794 218.457 85.2617C218.658 85.444 218.931 85.5352 219.277 85.5352ZM236.066 60.8438C236.066 59.8047 236.395 58.9753 237.051 58.3555C237.725 57.7174 238.573 57.3984 239.594 57.3984C240.122 57.3984 240.651 57.4076 241.18 57.4258C241.727 57.4258 242.264 57.4258 242.793 57.4258C244.397 57.4258 245.728 57.3073 246.785 57.0703C247.842 56.8333 249.1 56.4049 250.559 55.7852C251.215 55.4935 251.88 55.2383 252.555 55.0195C253.247 54.8008 253.958 54.6914 254.688 54.6914C255.708 54.6914 256.483 54.974 257.012 55.5391C257.54 56.1042 257.805 56.8971 257.805 57.918V80.5039C257.805 81.306 258.105 81.8711 258.707 82.1992C259.309 82.5091 260.047 82.7188 260.922 82.8281C261.797 82.9375 262.672 83.0742 263.547 83.2383C264.44 83.4023 265.188 83.7214 265.789 84.1953C266.391 84.651 266.691 85.4076 266.691 86.4648C266.691 87.4857 266.409 88.2513 265.844 88.7617C265.279 89.2539 264.495 89.5 263.492 89.5H239.047C238.062 89.5 237.27 89.2539 236.668 88.7617C236.085 88.2513 235.793 87.4857 235.793 86.4648C235.793 85.3346 236.121 84.5417 236.777 84.0859C237.434 83.612 238.236 83.3021 239.184 83.1562C240.15 83.0104 241.107 82.901 242.055 82.8281C243.021 82.737 243.832 82.5365 244.488 82.2266C245.145 81.9167 245.473 81.3424 245.473 80.5039V67.1055C245.473 66.1029 245.281 65.3737 244.898 64.918C244.516 64.444 243.805 64.207 242.766 64.207C242.383 64.207 242 64.2253 241.617 64.2617C241.234 64.2799 240.852 64.2891 240.469 64.2891C239.229 64.2891 238.181 64.0794 237.324 63.6602C236.486 63.2227 236.066 62.2839 236.066 60.8438Z" fill="white" fill-opacity="0.8"/>
<path d="M258 104.5C258.552 104.5 259 104.052 259 103.5C259 102.948 258.552 102.5 258 102.5V103.5V104.5ZM212 103.5V104.5H258V103.5V102.5H212V103.5Z" fill="white"/>
<path d="M195.27 123.97H201.099C204.202 123.97 204.202 126.058 204.202 126.203C204.202 127.218 203.361 128.146 201.534 129.509C201.911 129.625 203.622 130.002 203.941 130.147C204.521 130.408 204.782 130.959 204.782 131.597C204.782 132.438 204.231 133.192 203.187 133.192C202.259 133.192 200.084 132.641 198.112 131.626C197.561 131.887 196.981 132.09 196.488 132.293C197.01 132.641 197.532 133.018 197.532 133.743C197.532 134.526 196.256 135.57 195.27 136.295C196.633 136.266 197.619 136.208 198.373 136.179C198.228 136.005 197.996 135.773 197.996 135.28C197.996 134.12 199.272 133.627 199.823 133.627C200.664 133.627 201.766 134.729 203.796 136.73C204.173 137.107 204.753 137.687 204.753 138.47C204.753 139.543 203.738 140.123 202.984 140.123C202.404 140.123 202.259 139.978 200.838 138.586C200.403 138.615 198.402 138.76 197.996 138.76C200.229 139.746 201.969 140.065 202.027 140.065C202.578 140.181 203.303 140.268 203.303 141.515C203.303 143.168 201.911 143.168 201.418 143.168C201.128 143.168 198.692 143.081 196.111 141.457C194.951 140.703 194.806 140.239 194.806 139.601C194.806 139.224 194.893 139.05 194.98 138.876C194.4 138.905 193.675 138.934 193.124 138.934V140.529C193.124 141.776 193.095 142.907 191.471 142.907C189.557 142.907 189.557 142.008 189.557 140.529V138.963C188.571 138.992 187.295 138.963 186.57 138.963C186.802 139.398 186.86 139.688 186.86 139.833C186.86 141.428 181.669 143.139 180.451 143.139C179.494 143.139 178.827 142.327 178.827 141.486C178.827 140.964 178.972 140.616 179.755 140.297C180.277 140.065 182.684 139.108 183.148 138.876C182.394 138.847 179.552 138.76 179.146 138.528C178.798 138.354 178.45 137.832 178.45 137.252C178.45 136.933 178.566 135.918 179.9 135.918C180.625 135.918 184.627 136.208 185.526 136.237C185.004 135.976 182.713 134.874 182.249 134.642C181.814 134.41 181.582 134.207 181.582 133.743C181.582 132.728 182.539 132.177 183.177 132.177C183.612 132.177 184.018 132.351 184.163 132.409C184.598 132.583 186.338 133.366 186.686 133.54C186.918 133.337 187.933 132.351 188.136 132.148C188.948 131.423 189.296 131.22 189.934 131.22C190.456 131.22 191.471 131.597 191.471 132.67C191.471 133.54 191.094 133.859 189.731 134.932C190.514 135.309 190.949 135.512 191.326 135.715C191.79 135.28 193.762 133.221 194.168 132.815C192.66 132.786 192.254 131.684 192.254 131.104C192.254 130.959 192.283 130.843 192.312 130.698C191.906 130.901 191.413 130.901 190.63 130.901H187.121C187.121 131.626 187.063 132.67 185.7 132.67C184.221 132.67 184.192 131.684 184.163 130.901H180.393C179.349 130.901 178.16 130.901 178.16 129.596C178.16 128.262 179.32 128.262 180.393 128.262H184.163V127.653H180.886C179.871 127.653 179.204 127.102 179.204 125.855V121.94C179.204 120.49 180.19 120.171 180.828 120.171H184.163V119.591H180.596C179.349 119.591 178.392 119.591 178.392 118.402C178.392 117.155 179.378 117.155 180.596 117.155H184.192C184.337 115.937 185.439 115.879 185.642 115.879C185.787 115.879 186.947 115.879 187.092 117.155H190.253C191.819 117.155 192.66 117.155 192.66 118.373C192.66 119.591 191.761 119.591 190.253 119.591H187.121V120.171H190.137C191.239 120.171 191.848 120.838 191.848 121.94V125.855C191.848 127.247 190.949 127.653 190.195 127.653H187.121V128.262H190.63C191.761 128.262 192.834 128.262 192.834 129.567C192.834 129.654 192.834 129.741 192.747 130.031C193.124 129.915 194.748 129.48 195.067 129.393C193.849 128.03 193.704 127.16 193.646 126.783C192.225 126.725 192.138 125.652 192.138 125.536C192.138 124.985 192.428 124.26 193.066 124.057C192.805 123.825 192.341 123.448 192.341 122.781C192.341 122.404 192.457 122.288 192.95 121.592C193.588 120.722 193.617 120.461 193.965 118.112C194.197 116.691 195.328 116.691 195.908 116.691H199.156C200.229 116.691 201.679 117.097 201.679 118.866V120.49C201.679 120.693 201.679 120.896 201.94 120.896C202.056 120.896 202.201 120.606 202.288 120.432C202.549 119.968 203.013 119.881 203.303 119.881C204.115 119.881 204.927 120.49 204.927 121.36C204.927 121.911 204.637 122.52 204.347 122.955C204.144 123.245 203.796 123.593 202.694 123.593H200.084C198.576 123.593 198.576 122.491 198.576 122.027V120.026C198.576 119.823 198.576 119.591 198.228 119.591H197.358C197.184 119.591 197.039 119.62 196.952 120.026C196.604 121.592 196.227 122.868 195.27 123.97ZM187.121 122.81H188.948V122.288C188.948 122.027 188.861 121.998 188.629 121.998H187.121V122.81ZM188.948 124.811H187.121V125.652H188.6C188.89 125.652 188.948 125.652 188.948 125.333V124.811ZM184.163 124.811H182.307V125.362C182.307 125.652 182.394 125.652 182.626 125.652H184.163V124.811ZM182.307 122.81H184.163V121.998H182.684C182.452 121.998 182.307 121.998 182.307 122.346V122.81ZM199.359 126.812H197.184C197.474 127.479 198.054 127.885 198.286 128.059C199.127 127.624 199.736 127.16 199.736 126.957C199.736 126.812 199.591 126.812 199.359 126.812ZM218.064 125.884C216.237 134.787 213.337 139.021 213.047 139.456C212.351 140.442 211.916 140.964 210.959 140.964C210.089 140.964 208.842 140.297 208.842 139.021C208.842 138.499 208.842 138.441 210.234 136.15C211.655 133.83 212.902 131.394 213.946 126.261C213.395 126.29 211.017 126.609 210.524 126.609C209.335 126.609 208.668 125.942 208.668 124.753C208.668 122.984 209.712 122.723 214.613 122.346C214.7 121.621 214.758 118.373 214.99 117.764C215.135 117.416 215.57 116.633 216.846 116.633C218.847 116.633 218.847 118.315 218.847 119.272C218.847 120.026 218.818 120.171 218.644 122.114C222.965 121.94 227.402 122.259 227.402 129.48C227.402 131.075 227.141 134.7 226.329 137.223C225.807 138.818 224.647 141.747 221.109 141.747C219.601 141.747 217.658 141.283 216.962 140.819C216.411 140.442 216.208 139.775 216.208 139.253C216.208 138.064 217.02 137.281 218.006 137.281C218.325 137.281 218.557 137.339 218.818 137.426C219.688 137.687 220.065 137.803 220.587 137.803C222.269 137.803 222.646 136.411 223.052 134.729C223.516 132.67 223.632 130.814 223.632 129.654C223.632 127.131 223.139 125.826 219.601 125.826C218.876 125.826 218.412 125.855 218.064 125.884ZM234.71 118.054C234.768 118.228 234.797 118.431 234.797 118.663C234.797 119.359 234.246 119.852 233.608 119.852C232.941 119.852 232.622 119.272 232.39 118.808C232.245 118.547 231.433 116.981 231.433 116.285C231.433 115.734 231.81 115.212 232.506 115.212C233.782 115.212 234.594 117.619 234.71 118.054ZM230.418 120.722C231.317 122.114 234.652 127.856 234.652 128.929C234.652 129.799 233.84 130.756 232.738 130.756C231.607 130.756 231.375 130.263 230.476 128.378C229.896 127.218 228.939 125.275 227.547 123.158C226.619 121.766 226.503 121.621 226.503 121.157C226.503 120.055 227.373 119.214 228.475 119.243C228.185 118.663 227.75 117.735 227.75 117.184C227.75 116.72 227.953 115.995 228.794 115.995C230.563 115.995 231.288 119.243 231.288 119.591C231.288 119.765 231.288 120.548 230.418 120.722ZM247.238 127.566C248.253 127.972 248.456 128.726 248.456 129.306C248.456 130.669 246.049 133.569 243.526 133.569C239.814 133.569 239.698 128.117 239.698 125.826C239.698 123.941 239.901 119.678 240.278 118.692C240.481 118.112 241.09 117.532 241.989 117.532C243.613 117.532 244.28 118.46 244.28 119.446C244.28 119.881 243.903 121.795 243.845 122.201C243.7 123.506 243.613 124.898 243.613 125.797C243.613 126.551 243.642 129.132 244.454 129.132C244.773 129.132 244.889 128.987 245.556 128.146C245.73 127.914 246.107 127.45 246.629 127.45C246.745 127.45 246.977 127.45 247.238 127.566ZM259.273 124.927C259.273 130.669 259.128 134.816 255.329 138.325C252.603 140.848 247.934 141.66 247.325 141.66C245.759 141.66 245.382 140.326 245.382 139.572C245.382 138.644 245.817 137.89 246.948 137.658C249.471 137.107 252.342 136.498 254.082 133.656C254.923 132.264 255.329 130.988 255.329 126.435C255.329 125.768 255.271 122.723 255.097 121.36C255.039 121.012 254.865 119.62 254.865 119.359C254.865 118.257 255.735 117.445 257.04 117.445C257.852 117.445 258.403 117.996 258.606 118.373C259.07 119.243 259.273 123.738 259.273 124.927ZM276.847 123.593C276.702 123.941 276.122 125.043 275.397 126.116C276.064 125.826 276.963 125.42 278.5 125.42C281.487 125.42 282.386 127.218 282.734 127.914C283.923 127.479 288.592 125.826 289.317 125.826C290.042 125.826 291.028 126.348 291.028 127.74C291.028 128.9 290.39 129.248 289.23 129.567C286.707 130.234 285.112 130.756 283.459 131.336C283.517 132.119 283.575 132.989 283.575 133.685C283.575 134.439 283.575 136.208 281.661 136.208C281.052 136.208 279.776 135.86 279.776 134.149C279.776 133.946 279.805 133.076 279.805 132.902C278.268 133.656 275.774 134.903 275.774 136.295C275.774 137.484 277.021 138.122 280.878 138.122C283.111 138.122 285.46 137.745 285.75 137.716C285.953 137.687 286.533 137.513 286.997 137.513C288.041 137.513 288.882 138.354 288.882 139.514C288.882 139.92 288.708 140.79 287.722 141.196C286.243 141.834 281.516 141.834 280.327 141.834C279.283 141.834 275.368 141.834 273.541 140.326C272.642 139.601 271.772 138.383 271.772 136.759C271.772 134.874 272.555 132.583 279.196 129.306C278.848 128.871 278.21 128.639 277.659 128.639C274.73 128.639 271.25 131.365 270.061 132.525C269.075 133.453 268.756 133.743 268.002 133.743C266.784 133.743 266.03 132.641 266.03 131.771C266.03 131.162 266.32 130.756 266.784 130.35C270.496 127.015 271.685 125.942 272.874 123.738C272.439 123.738 269.974 123.796 269.858 123.796C269.104 123.796 267.335 123.796 267.335 121.998C267.335 120.229 268.93 120.229 269.568 120.229C271.221 120.229 272.903 120.2 274.556 120.142C274.73 119.707 275.368 117.648 275.571 117.271C276.006 116.546 276.731 116.343 277.166 116.343C278.326 116.343 279.196 117.3 279.196 118.141C279.196 118.692 278.79 119.562 278.645 119.939C279.834 119.881 281.951 119.736 283.024 119.62C283.691 119.562 283.807 119.562 283.923 119.562C285.025 119.562 285.75 120.113 285.75 121.331C285.75 122.781 284.793 123.013 284.474 123.1C283.43 123.361 278.442 123.564 276.847 123.593Z" fill="white"/>
<path d="M227.344 173.76V172.948H213.888V175.848C213.888 176.892 213.888 178.052 211.858 178.052C210.147 178.052 210.147 176.95 210.147 175.848V165.089C210.147 163.233 211.51 162.45 212.873 162.45H228.127C229.316 162.45 231.027 163.233 231.027 165.234V174.659C231.027 177.82 228.388 177.82 226.619 177.82C224.067 177.82 222.588 177.443 222.095 177.24C221.544 176.979 221.37 176.312 221.37 175.877C221.37 175.065 221.95 174.369 222.791 174.369C222.994 174.369 225.952 174.717 226.155 174.717C227.228 174.717 227.344 174.166 227.344 173.76ZM213.888 165.727V166.452H227.344V165.756C227.344 165.553 227.286 165.321 226.88 165.321H214.352C214.207 165.321 213.888 165.321 213.888 165.727ZM227.344 170.164V169.033H213.888V170.164H227.344ZM209.509 153.344H218.586C218.586 152.416 218.586 150.792 220.442 150.792C222.269 150.792 222.269 152.416 222.269 153.344H231.346C232.477 153.344 233.666 153.344 233.666 154.852C233.666 156.331 232.477 156.331 231.346 156.331H228.185C229.548 157.288 230.853 158.187 232.419 159.608C232.796 159.956 232.999 160.391 232.999 160.884C232.999 161.841 231.926 162.653 231.259 162.653C230.563 162.653 229.664 161.87 228.562 160.884C223.313 161.319 218.47 161.725 211.597 161.725C208.726 161.725 207.769 161.725 207.769 160.101C207.769 159.231 208.407 158.854 208.929 158.767C209.248 158.709 210.843 158.68 211.829 158.68C212.293 158.158 212.815 157.549 213.772 156.331H209.509C208.378 156.331 207.189 156.331 207.189 154.852C207.189 153.344 208.378 153.344 209.509 153.344ZM224.415 156.331H217.977C216.759 157.897 216.614 158.071 216.179 158.622C219.311 158.506 222.24 158.39 225.227 158.1C224.995 157.868 224.328 157.259 224.328 156.621C224.328 156.505 224.386 156.389 224.415 156.331ZM248.021 155.055L250.921 154.997C252.255 154.968 252.748 154.968 253.154 155.258C253.792 155.664 254.053 156.244 254.053 156.824C254.053 158.68 252.458 158.709 250.979 158.709L248.021 158.738V170.889C248.021 171.817 248.021 173.354 251.965 173.354C256.373 173.354 256.605 171.614 256.779 169.932C256.837 169.468 256.953 168.279 258.519 168.279C260.52 168.279 260.52 169.961 260.52 170.425C260.52 171.643 259.998 174.543 258.113 175.674C255.851 177.008 253.473 177.037 251.936 177.037C244.28 177.037 244.338 173.702 244.396 171.962C244.077 172.716 243.642 173.818 241.496 173.818C238.132 173.818 236.769 170.251 236.769 167.583C236.769 163.813 239.089 161 242.018 161C243.381 161 243.845 161.638 244.28 162.189V158.796L241.09 158.825C239.582 158.825 237.958 158.883 237.958 156.998C237.958 155.2 239.553 155.171 241.032 155.142L244.28 155.084C244.28 153.083 244.28 152.851 244.541 152.445C244.918 151.865 245.498 151.575 246.165 151.575C246.774 151.575 247.441 151.865 247.789 152.416C248.021 152.822 248.021 153.054 248.021 155.055ZM244.222 167.235C244.222 166.597 244.222 164.364 242.424 164.364C241.409 164.364 240.249 165.234 240.249 167.38C240.249 169.178 241.09 170.222 242.134 170.222C243.584 170.222 244.222 168.279 244.222 167.235ZM262.347 162.508C262.579 163.61 261.709 164.712 260.52 164.712C259.505 164.712 259.07 164.045 258.635 163.378C257.765 162.044 256.721 160.826 255.677 159.666C255.155 159.086 255.097 158.68 255.097 158.332C255.097 157.317 255.822 156.505 256.895 156.505C257.91 156.505 258.925 157.723 260.027 159.057C260.781 159.956 262.173 161.725 262.347 162.508Z" fill="white"/>
</g>
</g>
<g filter="url(#filter4_d_353_178)">
<rect x="214" y="183" width="231" height="231" rx="115.5" fill="url(#paint2_linear_353_178)" shape-rendering="crispEdges"/>
<rect x="218" y="187" width="223" height="223" rx="111.5" stroke="white" stroke-width="8" shape-rendering="crispEdges"/>
<g filter="url(#filter5_d_353_178)">
<path d="M313.203 236.789C315.664 236.789 317.797 237.263 319.602 238.211C321.424 239.141 322.919 240.417 324.086 242.039C325.271 243.643 326.146 245.475 326.711 247.535C327.294 249.595 327.586 251.737 327.586 253.961C327.586 256.312 327.322 258.646 326.793 260.961C326.283 263.276 325.444 265.391 324.277 267.305C323.129 269.201 321.607 270.723 319.711 271.871C317.815 273.02 315.5 273.594 312.766 273.594C309.995 273.594 307.652 273.111 305.738 272.145C303.824 271.16 302.284 269.82 301.117 268.125C299.951 266.43 299.103 264.479 298.574 262.273C298.046 260.049 297.781 257.707 297.781 255.246C297.781 252.858 298.082 250.561 298.684 248.355C299.303 246.15 300.242 244.181 301.5 242.449C302.776 240.699 304.38 239.323 306.312 238.32C308.263 237.299 310.56 236.789 313.203 236.789ZM312.902 268.535C313.376 268.535 313.759 268.171 314.051 267.441C314.342 266.712 314.57 265.792 314.734 264.68C314.898 263.568 315.008 262.419 315.062 261.234C315.135 260.049 315.172 258.983 315.172 258.035C315.19 257.087 315.199 256.44 315.199 256.094C315.199 255.62 315.199 254.836 315.199 253.742C315.199 252.63 315.163 251.409 315.09 250.078C315.035 248.729 314.917 247.435 314.734 246.195C314.57 244.938 314.324 243.908 313.996 243.105C313.668 242.285 313.23 241.875 312.684 241.875C312.118 241.875 311.681 242.194 311.371 242.832C311.061 243.47 310.833 244.245 310.688 245.156C310.542 246.049 310.441 246.915 310.387 247.754C310.35 248.574 310.332 249.176 310.332 249.559C310.314 250.525 310.296 251.5 310.277 252.484C310.259 253.451 310.25 254.417 310.25 255.383C310.25 256.003 310.259 256.896 310.277 258.062C310.296 259.229 310.341 260.46 310.414 261.754C310.505 263.03 310.633 264.206 310.797 265.281C310.979 266.357 311.225 267.132 311.535 267.605C311.717 267.861 311.9 268.079 312.082 268.262C312.283 268.444 312.556 268.535 312.902 268.535ZM361.492 262.082C361.492 264.233 361.027 266.047 360.098 267.523C359.186 269 357.974 270.185 356.461 271.078C354.948 271.953 353.271 272.591 351.43 272.992C349.607 273.393 347.784 273.594 345.961 273.594C344.63 273.594 343.163 273.484 341.559 273.266C339.954 273.065 338.423 272.682 336.965 272.117C335.507 271.534 334.303 270.704 333.355 269.629C332.426 268.535 331.961 267.122 331.961 265.391C331.961 263.714 332.49 262.255 333.547 261.016C334.622 259.776 336.035 259.156 337.785 259.156C339.499 259.156 340.811 259.648 341.723 260.633C342.652 261.617 343.117 262.948 343.117 264.625V267.223C343.117 268.007 343.464 268.562 344.156 268.891C344.867 269.219 345.542 269.383 346.18 269.383C347.201 269.383 347.975 269.1 348.504 268.535C349.051 267.952 349.424 267.241 349.625 266.402C349.826 265.564 349.926 264.734 349.926 263.914C349.926 262.346 349.698 261.207 349.242 260.496C348.805 259.767 348.23 259.302 347.52 259.102C346.809 258.901 346.052 258.81 345.25 258.828C344.448 258.846 343.691 258.828 342.98 258.773C342.27 258.719 341.686 258.482 341.23 258.062C340.793 257.643 340.574 256.878 340.574 255.766C340.574 255.073 340.729 254.398 341.039 253.742C341.349 253.068 341.777 252.521 342.324 252.102L347.711 248.027H342.133C341.203 248.027 340.556 248.164 340.191 248.438C339.845 248.693 339.49 249.24 339.125 250.078C338.779 250.917 338.432 251.691 338.086 252.402C337.758 253.095 337.029 253.441 335.898 253.441C335.023 253.441 334.34 253.177 333.848 252.648C333.355 252.12 333.109 251.427 333.109 250.57L333.902 241.355C333.993 240.225 334.413 239.368 335.16 238.785C335.908 238.202 336.828 237.91 337.922 237.91H358.594C359.615 237.91 360.417 238.238 361 238.895C361.583 239.533 361.875 240.353 361.875 241.355C361.875 242.194 361.611 242.941 361.082 243.598C360.572 244.236 360.043 244.828 359.496 245.375C359.387 245.484 359.277 245.594 359.168 245.703C359.077 245.812 358.967 245.913 358.84 246.004L349.652 252.676C349.871 252.658 350.108 252.648 350.363 252.648C352.259 252.648 354.055 253.004 355.75 253.715C357.445 254.426 358.822 255.483 359.879 256.887C360.954 258.272 361.492 260.004 361.492 262.082Z" fill="white" fill-opacity="0.8"/>
<path d="M352.5 287.5C353.052 287.5 353.5 287.052 353.5 286.5C353.5 285.948 353.052 285.5 352.5 285.5V286.5V287.5ZM306.5 286.5V287.5H352.5V286.5V285.5H306.5V286.5Z" fill="white"/>
<path d="M274.661 305.752V301.431C274.661 300.213 274.661 299.111 276.256 299.111C277.909 299.111 277.938 300.126 277.938 301.431V305.085L280.345 304.563C280.49 304.534 280.809 304.476 281.128 304.476C282.172 304.476 283.013 305.085 283.506 305.752C283.97 306.361 283.97 307.173 283.97 308.101V312.625C283.97 315.351 283.854 316.975 280.954 316.975C278.344 316.975 278.054 316.279 277.938 315.96V316.627C277.938 317.874 277.909 318.947 276.343 318.947C274.661 318.947 274.661 317.932 274.661 316.627V309.348L272.109 309.928V319.556C272.109 320.977 272.109 321.702 273.878 321.702H278.692C280.809 321.702 280.838 321.528 281.215 319.556C281.302 319.063 281.476 318.164 282.81 318.164C284.202 318.164 284.666 319.208 284.666 319.991C284.666 320.658 284.376 322.862 283.274 324.08C282.433 324.979 280.78 325.124 279.823 325.124H273.327C271.761 325.124 268.658 325.124 268.658 321.76V310.711C267.759 310.914 267.585 311.001 267.121 311.001C266.048 311.001 265.845 309.957 265.729 309.348C265.468 309.377 265.352 309.377 265.12 309.377H264.627V318.512C265.381 318.309 265.7 318.222 266.164 318.222C267.121 318.222 267.73 319.034 267.73 319.904C267.73 321.238 267.005 321.528 265.758 321.934C264.163 322.456 260.712 323.355 259.726 323.355C258.073 323.355 258.015 321.789 258.015 321.412C258.015 320.571 258.305 320.02 259.001 319.817C259.349 319.73 260.915 319.411 261.234 319.353V309.377H260.538C259.726 309.377 258.276 309.377 258.276 307.608C258.276 305.868 259.726 305.868 260.538 305.868H261.234V302.069C261.234 300.88 261.234 299.749 262.974 299.749C264.627 299.749 264.627 300.764 264.627 302.069V305.868H265.12C265.99 305.868 267.121 305.868 267.382 307.26L268.658 306.97V303.026C268.658 302.011 268.658 300.677 270.398 300.677C272.109 300.677 272.109 302.04 272.109 303.026V306.274L274.661 305.752ZM277.938 308.594V313.93C278.257 313.031 278.895 313.031 279.939 313.031C280.229 313.031 280.519 313.002 280.519 312.48V308.536C280.519 308.304 280.519 308.072 280.258 308.072C280.171 308.072 280.084 308.101 279.997 308.13L277.938 308.594ZM293.743 303.78V309.058C295.251 309.058 295.425 309.058 295.86 309.493C295.947 308.594 296.875 307.898 297.629 307.898C298.354 307.898 299.485 308.971 300.384 309.812C301.631 310.943 301.631 311.349 301.631 311.639C301.631 312.915 300.587 313.35 299.92 313.35C299.253 313.35 298.789 313.002 298.122 312.364C297.484 311.784 296.295 310.653 296.208 310.595C296.208 312.19 295.251 312.19 293.743 312.19V317.903C294.7 317.613 294.816 317.584 295.106 317.584C295.686 317.584 295.947 317.874 296.092 318.048C298.499 316.366 298.76 316.163 300.152 314.974C300.558 314.655 300.964 314.307 301.602 314.307C301.979 314.307 302.53 314.452 302.965 315.003V306.419H298.296C297.049 306.419 295.976 306.419 295.976 304.795C295.976 303.113 296.933 303.113 298.296 303.113H302.965V301.576C302.965 300.387 302.965 299.227 304.734 299.227C306.387 299.227 306.387 300.445 306.387 301.576V303.113H308.997C307.373 301.431 307.112 301.17 307.112 300.648C307.112 299.865 307.837 299.082 308.678 299.082C309.113 299.082 309.432 299.198 310.65 300.416C311.897 301.692 311.984 301.982 311.984 302.388C311.984 302.736 311.868 302.939 311.781 303.113C312.593 303.113 313.695 303.113 313.695 304.708C313.695 306.419 312.738 306.419 311.375 306.419H306.387V309.812C306.909 310.827 306.967 310.943 307.141 311.291C307.634 310.885 310.012 309.319 310.476 308.971C310.882 308.681 311.288 308.391 311.839 308.391C312.854 308.391 313.579 309.551 313.579 310.421C313.579 311.668 309.519 313.901 308.881 314.191C310.331 316.308 312.071 317.845 312.912 318.599C313.695 319.266 314.043 319.614 314.043 320.281C314.043 321.325 313.144 322.166 312.274 322.166C311.868 322.166 311.491 322.05 310.563 321.209C309.954 320.658 307.808 318.28 306.387 316.221V322.63C306.387 325.617 303.603 325.617 302.849 325.617C299.891 325.617 299.079 324.863 299.079 323.732C299.079 322.775 299.862 322.05 300.703 322.05C300.993 322.05 302.24 322.282 302.501 322.282C302.965 322.282 302.965 321.905 302.965 321.441V317.004C301.718 318.686 297.455 321.615 296.324 321.615C295.889 321.615 295.686 321.412 295.396 321.064C294.091 321.586 289.625 322.804 288.523 322.804C286.957 322.804 286.87 321.267 286.87 320.861C286.87 319.991 287.276 319.527 287.682 319.382C287.972 319.295 289.857 318.889 290.582 318.744V312.19H289.712C288.523 312.19 287.363 312.19 287.363 310.682C287.363 309.058 288.378 309.058 289.712 309.058H290.582V303.78H289.538C288.378 303.78 287.218 303.78 287.218 302.272C287.218 300.648 288.233 300.648 289.538 300.648H294.149C295.309 300.648 296.469 300.648 296.469 302.156C296.469 303.78 295.57 303.78 293.743 303.78ZM325.672 309.812C324.135 305.955 323.787 305.23 322.54 302.446C322.337 302.011 322.192 301.605 322.192 301.17C322.192 300.097 323.12 299.256 324.338 299.256C325.585 299.256 325.875 299.894 326.6 301.373C327.644 303.577 328.456 305.868 329.297 308.159C329.935 307.869 334.836 305.897 337.098 305.897C338.461 305.897 339.012 306.999 339.012 307.811C339.012 308.014 339.012 309.087 337.91 309.638C337.504 309.841 334.372 310.537 333.705 310.74C327.963 312.364 323.294 314.684 323.294 317.7C323.294 320.745 328.891 320.745 330.341 320.745C331.008 320.745 334.343 320.745 336.431 320.339C336.808 320.281 338.229 319.991 338.432 319.991C339.476 319.991 340.259 320.919 340.259 322.166C340.259 323.239 339.882 323.645 339.157 323.935C338.374 324.225 335.764 324.602 331.443 324.602C328.166 324.602 319.06 324.602 319.06 317.7C319.06 313.263 323.294 311.059 325.672 309.812ZM347.741 313.524H351.627V307.695H348.379C347.277 307.695 346.059 307.695 346.059 306.042C346.059 304.36 347.277 304.36 348.379 304.36H351.627V301.663C351.627 300.648 351.627 299.343 353.28 299.343C354.962 299.343 354.962 300.648 354.962 301.663V304.36H361.864V301.663C361.864 300.155 361.864 299.343 363.691 299.343C365.286 299.343 365.286 300.387 365.286 301.663V304.36H368.476C369.897 304.36 370.796 304.36 370.796 306.129C370.796 307.695 369.694 307.695 368.476 307.695H365.286V313.524H369.143C370.593 313.524 371.463 313.524 371.463 315.293C371.463 316.83 370.39 316.83 369.143 316.83H347.741C346.291 316.83 345.421 316.83 345.421 315.09C345.421 313.524 346.494 313.524 347.741 313.524ZM361.864 307.695H354.962V313.524H361.864V307.695ZM346.407 324.312C346.233 323.181 347.132 322.572 347.712 322.166C349.887 320.716 350.438 320.165 352.207 318.135C352.439 317.874 352.816 317.671 353.28 317.671C354.527 317.671 355.31 318.773 355.31 319.498C355.31 320.716 352.004 323.703 351.163 324.37C350.38 325.037 349.017 325.994 348.089 325.994C347.48 325.994 346.581 325.472 346.407 324.312ZM361.922 318.918C362.212 317.468 363.749 317.468 363.836 317.468C364.474 317.468 364.793 317.758 365.576 318.628C367.113 320.252 367.751 320.745 370.042 322.282C370.419 322.543 370.912 322.862 370.912 323.674C370.912 324.457 370.245 325.704 369.114 325.704C367.925 325.704 365.837 324.109 364.967 323.239C361.661 320.049 361.777 319.614 361.922 318.918ZM380.047 318.019C380.569 315.293 380.83 314.423 382.019 314.423C382.483 314.423 383.266 314.655 383.266 315.612C383.266 316.25 382.541 318.918 382.454 319.498C382.338 320.078 381.99 322.775 381.758 323.297C381.642 323.558 381.178 324.37 379.902 324.37C378.307 324.37 377.756 323.21 377.611 322.92C377.321 322.34 376.132 319.063 376.132 313.437C376.132 308.681 376.828 302.881 377.814 301.402C377.959 301.17 378.481 300.677 379.235 300.677C380.192 300.677 381.265 301.286 381.265 302.359C381.265 302.707 380.482 306.854 380.366 307.695C379.931 310.508 379.902 313.988 379.902 315.612C379.902 316.946 379.931 317.294 380.047 318.019ZM385.383 304.128C385.383 303.751 385.76 302.359 387.152 302.359C387.326 302.359 390.69 302.504 391.299 302.504C392.488 302.504 394.547 302.301 396.113 302.011C397.244 301.779 397.36 301.779 397.563 301.779C398.404 301.779 399.361 302.533 399.361 303.751C399.361 304.36 399.042 305.346 397.853 305.636C396.142 306.071 390.922 306.245 389.53 306.245C386.949 306.245 385.383 306.245 385.383 304.128ZM387.007 315.38C388.631 315.38 388.689 316.482 388.747 317.961C388.805 319.759 392.024 319.817 392.749 319.817C394.141 319.817 396.171 319.643 396.925 319.556C397.94 319.411 397.998 319.411 398.172 319.411C399.042 319.411 399.999 319.991 399.999 321.354C399.999 322.63 399.477 323.703 394.924 323.703C391.009 323.703 388.602 323.703 386.804 322.253C386.543 322.05 385.035 320.803 385.035 318.367C385.035 317.178 385.035 315.38 387.007 315.38Z" fill="white"/>
<path d="M294.294 339.592H298.615V336.489C298.615 335.3 298.615 334.169 300.384 334.169C302.153 334.169 302.153 335.329 302.153 336.489V339.592H310.07C311.114 339.592 312.39 339.592 312.39 341.245C312.39 342.927 311.114 342.927 310.07 342.927H302.153V347.915H308.997C309.896 347.915 311.288 347.915 311.288 349.568C311.288 351.192 309.896 351.192 308.997 351.192H302.153V356.702H311.578C312.564 356.702 313.898 356.702 313.898 358.413C313.898 360.095 312.564 360.095 311.578 360.095H289.48C288.349 360.095 287.189 360.095 287.189 358.384C287.189 356.702 288.349 356.702 289.48 356.702H298.615V351.192H292.177C291.307 351.192 289.915 351.192 289.915 349.568C289.915 347.915 291.307 347.915 292.177 347.915H298.615V342.927H292.67C291.655 344.667 290.292 346.871 288.813 346.871C287.711 346.871 287.131 345.943 287.131 345.218C287.131 344.696 287.247 344.522 287.943 343.565C290.118 340.665 290.901 338.403 291.626 336.315C291.8 335.822 292.119 334.952 293.308 334.952C294.323 334.952 295.135 335.677 295.135 336.576C295.135 337.33 294.613 338.751 294.294 339.592ZM326.774 338.229C326.078 336.808 326.02 336.431 326.02 336.054C326.02 334.836 327.035 334.256 327.876 334.256C328.398 334.256 329.065 334.517 329.471 335.097C329.761 335.503 330.515 337.533 330.718 337.91C332.545 337.707 333.473 337.562 335.097 337.301C335.503 337.243 337.011 336.982 337.243 336.982C338.142 336.982 338.867 337.765 338.867 338.838C338.867 340.433 337.91 340.868 332.516 341.419C332.719 341.767 333.183 342.579 333.589 343.217C334.517 343.072 338.925 342.144 339.447 342.144C340.23 342.144 341.071 342.898 341.071 344C341.071 345.566 340.201 345.972 335.677 346.523C335.88 346.813 336.953 348.437 337.475 348.988C338.374 349.916 338.925 350.467 338.925 351.569C338.925 353.396 337.069 353.686 336.547 353.686C335.938 353.686 334.865 353.338 334.575 353.251C330.863 352.004 328.224 352.004 327.325 352.004C326.223 352.004 323.352 352.004 323.352 353.918C323.352 356.325 329.152 356.325 330.921 356.325C331.588 356.325 333.067 356.325 334.546 356.151C334.778 356.122 335.184 356.093 335.416 356.093C336.518 356.093 337.156 357.021 337.156 357.862C337.156 358.181 337.156 359.225 335.996 359.66C335.416 359.892 333.241 360.153 330.863 360.153C327.528 360.153 323.584 359.776 321.322 358.065C319.582 356.76 319.118 354.962 319.118 353.918C319.118 351.801 320.742 350.496 321.38 350.061C322.192 349.51 323.613 348.611 327.876 348.611C330.979 348.611 332.748 349.162 333.502 349.394C332.893 348.814 332.545 348.466 331.559 346.987C328.514 347.306 325.063 347.48 321.989 347.48C319.669 347.48 317.755 347.48 317.755 345.421C317.755 344.232 318.683 343.594 319.64 343.594C320.249 343.594 322.221 343.739 322.424 343.739C322.946 343.768 323.584 343.826 325.005 343.826C326.484 343.826 328.108 343.797 329.558 343.681C329.123 342.869 328.891 342.463 328.514 341.738C324.599 341.883 324.164 341.912 322.772 341.912C321.612 341.912 319.872 341.912 319.35 341.651C318.886 341.448 318.306 340.897 318.306 340.027C318.306 339.389 318.567 338.229 320.336 338.229C320.974 338.229 323.787 338.287 324.338 338.287C325.614 338.287 326.223 338.258 326.774 338.229ZM358.5 344.957C359.312 344.667 360.066 344.406 361.661 344.406C368.447 344.406 370.187 348.988 370.187 351.627C370.187 357.166 364.735 359.747 359.196 359.747C358.094 359.747 351.598 359.747 351.598 354.962C351.598 352.671 353.483 350.67 356.934 350.67C362.183 350.67 362.734 354.585 362.908 355.832C365.692 354.73 366.446 353.164 366.446 351.859C366.446 347.741 361.632 347.741 360.675 347.741C355.832 347.741 353.599 349.365 351.714 350.699C349.597 352.207 349.365 352.352 348.553 352.352C347.509 352.352 346.61 351.54 346.61 350.322C346.61 349.191 347.393 348.582 348.06 348.118C353.28 344.493 354.121 343.971 361.69 339.041C358.036 339.534 351.888 339.737 351.656 339.737C350.554 339.737 349.742 338.954 349.742 337.823C349.742 335.88 351.424 335.88 352.265 335.88C352.7 335.88 354.701 335.938 355.107 335.938C357.369 335.938 360.994 335.764 362.067 335.706C362.357 335.706 364.416 335.59 364.503 335.59C366.04 335.59 367.229 336.257 367.229 337.881C367.229 339.273 366.243 340.027 365.373 340.665C364.329 341.419 361.342 343.42 358.5 344.957ZM358.964 356.296C358.906 355.6 358.79 353.831 356.76 353.831C355.832 353.831 355.281 354.266 355.281 354.759C355.281 355.571 356.586 356.354 358.21 356.354C358.471 356.354 358.645 356.325 358.964 356.296Z" fill="white"/>
</g>
</g>
<defs>
<filter id="filter0_d_353_178" x="0" y="183" width="239" height="239" filterUnits="userSpaceOnUse" color-interpolation-filters="sRGB">
<feFlood flood-opacity="0" result="BackgroundImageFix"/>
<feColorMatrix in="SourceAlpha" type="matrix" values="0 0 0 0 0 0 0 0 0 0 0 0 0 0 0 0 0 0 127 0" result="hardAlpha"/>
<feOffset dy="4"/>
<feGaussianBlur stdDeviation="2"/>
<feComposite in2="hardAlpha" operator="out"/>
<feColorMatrix type="matrix" values="0 0 0 0 0 0 0 0 0 0 0 0 0 0 0 0 0 0 0.25 0"/>
<feBlend mode="normal" in2="BackgroundImageFix" result="effect1_dropShadow_353_178"/>
<feBlend mode="normal" in="SourceGraphic" in2="effect1_dropShadow_353_178" result="shape"/>
</filter>
<filter id="filter1_d_353_178" x="33.5" y="233.5" width="172" height="159" filterUnits="userSpaceOnUse" color-interpolation-filters="sRGB">
<feFlood flood-opacity="0" result="BackgroundImageFix"/>
<feColorMatrix in="SourceAlpha" type="matrix" values="0 0 0 0 0 0 0 0 0 0 0 0 0 0 0 0 0 0 127 0" result="hardAlpha"/>
<feOffset dy="4"/>
<feGaussianBlur stdDeviation="2"/>
<feComposite in2="hardAlpha" operator="out"/>
<feColorMatrix type="matrix" values="0 0 0 0 0 0 0 0 0 0 0 0 0 0 0 0 0 0 0.15 0"/>
<feBlend mode="normal" in2="BackgroundImageFix" result="effect1_dropShadow_353_178"/>
<feBlend mode="normal" in="SourceGraphic" in2="effect1_dropShadow_353_178" result="shape"/>
</filter>
<filter id="filter2_d_353_178" x="115.5" y="0" width="239" height="239" filterUnits="userSpaceOnUse" color-interpolation-filters="sRGB">
<feFlood flood-opacity="0" result="BackgroundImageFix"/>
<feColorMatrix in="SourceAlpha" type="matrix" values="0 0 0 0 0 0 0 0 0 0 0 0 0 0 0 0 0 0 127 0" result="hardAlpha"/>
<feOffset dy="4"/>
<feGaussianBlur stdDeviation="2"/>
<feComposite in2="hardAlpha" operator="out"/>
<feColorMatrix type="matrix" values="0 0 0 0 0 0 0 0 0 0 0 0 0 0 0 0 0 0 0.25 0"/>
<feBlend mode="normal" in2="BackgroundImageFix" result="effect1_dropShadow_353_178"/>
<feBlend mode="normal" in="SourceGraphic" in2="effect1_dropShadow_353_178" result="shape"/>
</filter>
<filter id="filter3_d_353_178" x="149" y="50.5" width="172" height="159" filterUnits="userSpaceOnUse" color-interpolation-filters="sRGB">
<feFlood flood-opacity="0" result="BackgroundImageFix"/>
<feColorMatrix in="SourceAlpha" type="matrix" values="0 0 0 0 0 0 0 0 0 0 0 0 0 0 0 0 0 0 127 0" result="hardAlpha"/>
<feOffset dy="4"/>
<feGaussianBlur stdDeviation="2"/>
<feComposite in2="hardAlpha" operator="out"/>
<feColorMatrix type="matrix" values="0 0 0 0 0 0 0 0 0 0 0 0 0 0 0 0 0 0 0.15 0"/>
<feBlend mode="normal" in2="BackgroundImageFix" result="effect1_dropShadow_353_178"/>
<feBlend mode="normal" in="SourceGraphic" in2="effect1_dropShadow_353_178" result="shape"/>
</filter>
<filter id="filter4_d_353_178" x="210" y="183" width="239" height="239" filterUnits="userSpaceOnUse" color-interpolation-filters="sRGB">
<feFlood flood-opacity="0" result="BackgroundImageFix"/>
<feColorMatrix in="SourceAlpha" type="matrix" values="0 0 0 0 0 0 0 0 0 0 0 0 0 0 0 0 0 0 127 0" result="hardAlpha"/>
<feOffset dy="4"/>
<feGaussianBlur stdDeviation="2"/>
<feComposite in2="hardAlpha" operator="out"/>
<feColorMatrix type="matrix" values="0 0 0 0 0 0 0 0 0 0 0 0 0 0 0 0 0 0 0.25 0"/>
<feBlend mode="normal" in2="BackgroundImageFix" result="effect1_dropShadow_353_178"/>
<feBlend mode="normal" in="SourceGraphic" in2="effect1_dropShadow_353_178" result="shape"/>
</filter>
<filter id="filter5_d_353_178" x="243.5" y="233.5" width="172" height="159" filterUnits="userSpaceOnUse" color-interpolation-filters="sRGB">
<feFlood flood-opacity="0" result="BackgroundImageFix"/>
<feColorMatrix in="SourceAlpha" type="matrix" values="0 0 0 0 0 0 0 0 0 0 0 0 0 0 0 0 0 0 127 0" result="hardAlpha"/>
<feOffset dy="4"/>
<feGaussianBlur stdDeviation="2"/>
<feComposite in2="hardAlpha" operator="out"/>
<feColorMatrix type="matrix" values="0 0 0 0 0 0 0 0 0 0 0 0 0 0 0 0 0 0 0.15 0"/>
<feBlend mode="normal" in2="BackgroundImageFix" result="effect1_dropShadow_353_178"/>
<feBlend mode="normal" in="SourceGraphic" in2="effect1_dropShadow_353_178" result="shape"/>
</filter>
<linearGradient id="paint0_linear_353_178" x1="119.5" y1="183" x2="119.5" y2="414" gradientUnits="userSpaceOnUse">
<stop stop-color="#3498E9"/>
<stop offset="0.961538" stop-color="#13E1E8"/>
</linearGradient>
<linearGradient id="paint1_linear_353_178" x1="235" y1="0" x2="235" y2="231" gradientUnits="userSpaceOnUse">
<stop stop-color="#3498E9"/>
<stop offset="0.961538" stop-color="#13E1E8"/>
</linearGradient>
<linearGradient id="paint2_linear_353_178" x1="329.5" y1="183" x2="329.5" y2="414" gradientUnits="userSpaceOnUse">
<stop stop-color="#3498E9"/>
<stop offset="0.961538" stop-color="#13E1E8"/>
</linearGradient>
</defs>
</svg>
