<?xml version="1.0" encoding="UTF-8"?>
<svg id="_レイヤー_2" data-name="レイヤー 2" xmlns="http://www.w3.org/2000/svg" viewBox="0 0 239.26 238.7">
  <defs>
    <style>
      .cls-1 {
        stroke: #c4e7fa;
        stroke-width: 28px;
      }

      .cls-1, .cls-2 {
        fill: none;
      }

      .cls-2 {
        stroke: #aaddf7;
        stroke-width: 14px;
      }

      .cls-3 {
        fill: #57b65d;
      }

      .cls-4 {
        fill: #76cae6;
      }
    </style>
  </defs>
  <g id="_レイヤー_1-2" data-name="レイヤー 1">
    <ellipse class="cls-1" cx="119.63" cy="119.35" rx="105.63" ry="105.35"/>
    <ellipse class="cls-2" cx="119.63" cy="119.35" rx="105.63" ry="105.35"/>
    <path class="cls-4" d="M225.26,119.35c0,58.18-47.29,105.35-105.63,105.35S14,177.53,14,119.35c0-5.72.46-11.33,1.34-16.79,4.74-29.54,21.79-54.98,45.75-70.91,16.75-11.15,36.89-17.65,58.54-17.65,9.71,0,19.12,1.31,28.05,3.77h.02c6.91,1.88,13.54,4.46,19.8,7.65,34.28,17.41,57.76,52.93,57.76,93.93Z"/>
    <path class="cls-3" d="M141.37,25.64c-1.87-1.32-6.6-.41-8.86-.53-6.35-.31-12.44-.08-18.64,1.07-6.7,1.25-14.43,5.18-20.78,1.33-3.22-1.95-4.47-2.94-8.52-2.36-3.8.55-7.6,1.86-11.21,3.1-3,1.03-6.15,2.13-9.23,2.76-.33.07-.66.15-.99.23-.68.16-1.36.29-2.05.41-23.96,15.93-41.01,41.37-45.75,70.91,1.12-.07,2.25.41,3.37,1.8,3.38,4.19,2.34,11.76,2.33,16.71,0,1.75.07,18.01,4.29,13.96.91-.88.44-5.21.67-6.46.41-2.28,1.08-4.7,2.1-6.82,1.17-2.44,6.38-9.97,9.63-8,2.39,1.45,2.61,8.65,3.87,11.25,1.25,2.55,1.12,2.29,3.59,2.88,1.99.48,2.11-.93,2.86,1.78.84,3.02-.02,6.53.61,9.64.54,2.64,7.04,18.29,10.21,16.54.41-4.44-2.15-10-4.52-13.69-1.38-2.14-2.88-3.32-2.88-6.12,0-2.19.7-4.59,3.19-3.19,3.73,2.09,2.64,10.07,9.24,5.11,4.77-3.59,2.63-8.39.06-12.55-4.17-6.74,4.3-9.65,9.22-11.65,5.88-2.4,10.74-3.91,13.99-9.89,1.85-3.38,1.62-6.29,1.26-9.9-.26-2.63.99-7.22.31-9.47-.91-3.03-6.99-1.05-4.59-5.91.46-.93,2.14-2.63,3.18-2.76,2.84-.38,1.31,1.26,2,2.13,1.37,1.71.53,1.03,3.12,1.57,1.39.28,2.27.21,3.35,1.31,1.71,1.74,1.2,5.86,3.63,6.77,4.18,1.57,2.78-3.86,2.12-5.67-.97-2.64-2.55-4.94-.88-7.69,2.2-3.61,8.01-3.54,10.66-7.04,1.27-1.67,3.2-3.05,3.87-5.06.39-1.19-.28-3.37.54-4.37,1.43-1.72,1.41.08,2.79-.06,1.81-.19,2.31.84,2.42-1.72.04-.89-1.01-2.6-1.64-3.33-2.23-2.57-5.23-.78-7.46-2.47-2.88-2.19.71-5.15,2.69-6.54,4.56-3.2,12.57-7.68,16.35-1.39,1.27,2.11,1.64,6.58,4.02,7.85,3.2,1.7,3.49-2.35,3.5-4.75.01-2.62-1.91-5.07-1.84-7.32.1-3.2,3.15-3.29,4.95-5.56,1.45-1.83,2.09-5.26-.15-6.84Z"/>
    <path class="cls-3" d="M103.89,89.2c2.66-1.71,3.64,4.49,1.76,3.92-.77-.23-.72-1.31-1.2-1.74-1.46,1.16-1.69-1.46-.57-2.18Z"/>
    <path class="cls-3" d="M120.94,72c.68.48.13,2.89.09,3.81-.07,1.64.98,4.81.16,6.32-.52.96-2.72,1.65-3.63,2.29-1.28.89-2.41,1.78-3.9,2.36-2.06.8-4.27.59-6.37,1.3-.96.32-1.68-.21-.86-1.2.91-1.09,2.41-1.17,3.6-1.79,1.27-.66,2.49-1.62,3.67-2.45.33-.23.94-.71,1.18-.97.73-.8.54-.71,1.03-1.64,1.11-2.12,1.72-6.01,3.64-7.54.71-.57,1.15-.66,1.4-.48Z"/>
    <path class="cls-3" d="M121.4,66.18c.39-.54.89-.92,1.98-.84.28,2.28,4.14,1.64,1.71,3.86-.39.35-1.11,1.15-1.59,1.33-.97.37-.61.13-1.52-.28-.68-.31-.84-.86-1.71-.78-.65.07-1.75,1.86-2.06.35-.22-1.1,1.43-1.51,2.02-2.06.55-.51.82-1.11,1.17-1.59Z"/>
    <path class="cls-3" d="M111.09,88.46c.97.39.76,1.25-.05,1.75-.71.44-3.84.5-3.34-.91.34-.96,2.65-1.14,3.4-.84Z"/>
    <path class="cls-3" d="M138.25,161.95c2.26,1.11,12.55,4.9,12.22,7.25-2.25.37-3.46-1.98-5.46-1.13-1.62.69-1.91,3.68-4.1,4.3-2.06.58-9.61-.96-10.91-2.5,4.74-2.61-2.95-3.85-4.83-4.27-1.28-.29-14.58-3.48-11.67-6.67,1.8-1.98,6.35,1.6,8.38,1.88.65.09,1.33.22,1.78-.43.53-.77-.16-.89-.18-1.69,1.53-.72,3.36-.09,4.93-.02,1.64.07,3.56-.04,5.08.67,1.6.75,3.13,1.82,4.76,2.62Z"/>
    <path class="cls-3" d="M138.68,211.74c-4.08.47-7.51-2.88-11.4-3.88-6.61-1.7-10.35.66-16.78,1.51-3.39.45-7.86,2.52-11.09.66-2.71-1.56-6.3-6.47-7.83-9.17-2.94-5.19-.57-6.06,4.1-7.36,3.63-1.01,4.46-3.84,6.88-6.69,2.76-3.26,5.95-5.71,9.76-7.54,3.13-1.5,7.99-2.62,11.49-1.95,4.05.78,6.05,5.92,10.25,5.91,4.08-.02,6.33-6.23,10.88-4.36,2.03.84,2.12,2.91,3.01,4.44,1.02,1.75,2.36,2.88,3.8,4.27,3.27,3.16,6.63,6.28,5.9,11.18-1.4,9.4-11.13,12.09-18.97,13Z"/>
    <path class="cls-3" d="M81.73,177.25c-1.04.28-3.05-.55-3.72-.82-1.07-.41-5.44-2.09-6.1-2.98-2.54-3.5,7.05.17,8.06.57.89.35,3.19,1.6,2.24,2.92-.11.16-.28.25-.49.31Z"/>
    <path class="cls-3" d="M45.16,147.85c3.28,5.74,7.36,11.11,11.99,15.83,2.5,2.54,5.22,5.07,8.25,6.97.81.51,5.4,3.87,4.99,1.22-.22-1.42-2.19-2.86-2.96-4.07-.4-.64-1.37-4.06-1.77-4.3-2.78-1.67-8.66-3.18-11.81-6.69-3.76-4.2-4.83-10.24-8.7-8.96"/>
    <path class="cls-3" d="M72.26,157.07c-5.13-2.86-3.12,3.43.28,5.34,1.55.87,10.26,7.12,11.53,4.19,2.27-5.23,5.57-8.72,1.5-13.02-2.13-2.26-.04-2.52,1.27-3.99,0,0-4.24-3.48-4.8-3.97-2,3.54-6.61,8.94-9.78,11.46"/>
    <path class="cls-3" d="M93.22,169.65c-.83-1.1-3.74-8.41-1.68-9.78,2.18-1.45,6.25,6.28,6.43,7.55-.45-.65-2.36-2.7-3.05-3.08-.67-.37-1.69,4.45-1.7,5.32"/>
    <path class="cls-3" d="M93.5,142.82c2.26-1.16,5.87-6.71,7.54-1.68.92,2.75-.28.93-.28,3.63,0,4.69-5.78-1.45-7.27-1.96"/>
    <path class="cls-3" d="M88.47,121.86c-.72,3.98-2.84,9.67,1.54,12.3-4.05-2.43,6.25-10.81-1.54-12.3"/>
    <path class="cls-3" d="M160.19,25.85c-.13,2.51,3.49,4.51-.43,4.69-2.02.09-4.95-1.85-6.76-2.8-2.23-1.16-4.36-2.45-6.59-3.41-1.57-.68-5.04-1.43-4.9-3.62.13-2.27,4.26-2.94,6.17-2.94h.02c6.91,1.88,13.54,4.46,19.8,7.65-1.44,1.11-5.66.35-7.31.43Z"/>
  </g>
</svg>