<svg width="165" height="136" viewBox="0 0 165 136" fill="none" xmlns="http://www.w3.org/2000/svg">
<path d="M152.482 61.7154C133.497 56.4141 108.927 54.2558 94.2925 61.9016C84.9265 67.3259 77.5836 76.1184 73.2603 85.9196C71.6376 89.5939 70.9452 87.9068 70.0781 85.2021C63.9214 66.2182 52.7399 52.4727 39.0446 37.3672C35.2001 33.2216 37.6176 34.6685 40.6403 36.5627C50.208 42.5515 56.7561 46.1147 62.949 55.4625C64.5687 57.9211 66.2125 60.6528 67.2933 63.3184C68.4704 66.0321 68.7956 69.2051 69.2291 72.165C70.1022 77.022 72.7485 64.6753 72.8358 63.8708C75.0486 51.401 72.6883 37.9286 65.7157 27.2179C56.2503 14.0757 33.6616 5.15709 14.484 1.41075C11.7413 0.978476 1.09578 -1.0628 0.162488 0.714311C-0.135563 1.1736 -8.49962e-05 1.88504 0.373232 2.7766C7.90279 16.9154 6.84004 38.1447 14.4629 54.3458C16.8082 59.2869 20.0326 63.8468 23.8109 67.7912C32.7133 77.1001 44.9605 82.9627 57.8279 84.1334C59.6222 84.3076 61.4346 84.2745 62.69 84.7759C64.7644 85.4573 65.1678 87.9338 65.3544 90.0652C65.6013 92.3856 65.8602 94.7481 66.0288 97.0085C66.2456 102.127 68.0339 100.56 71.0174 97.9181C87.7926 83.2509 108.873 75.9383 122.481 74.0652C102.135 80.4141 81.3047 92.4276 65.8602 109.607C59.9233 115.791 55.0009 121.699 50.8794 129.294C50.0906 130.861 48.4649 133.217 50.0214 134.655C51.3731 135.802 53.9111 136.252 55.7746 135.853C57.8309 135.393 58.5324 133.196 59.2369 131.422C61.6303 125.463 64.099 120.444 67.5311 115.77C69.4459 113.555 71.8122 114.699 74.3261 115.761C85.9712 120.546 99.0704 121.096 111.059 117.379C117.577 115.356 123.788 112.105 129.041 107.731C142.52 96.4291 151.121 77.9826 163.934 68.959C165.093 67.9623 165.43 67.1218 164.316 66.2513C163.681 65.774 162.859 65.3807 162.086 65.0565C159.189 63.8348 155.836 62.685 152.539 61.7304L152.479 61.7124L152.482 61.7154Z" fill="#68D56E"/>
</svg>
