<?xml version="1.0" encoding="UTF-8"?>
<svg id="_レイヤー_2" data-name="レイヤー 2" xmlns="http://www.w3.org/2000/svg" viewBox="0 0 556.99 137.01">
  <defs>
    <style>
      .cls-1 {
        fill: #231815;
      }

      .cls-2 {
        fill: #0e4d96;
      }

      .cls-3 {
        fill: #e71f1a;
      }

      .cls-4 {
        fill: #6bbeeb;
      }
    </style>
  </defs>
  <g id="_レイヤー_1-2" data-name="レイヤー 1">
    <g>
      <path class="cls-3" d="M66.5,0C20.59-.44-12.12,48.41,4.3,91.59c2.11,5.75,4.96,11.14,8.44,16.02,1.61,2.32,4.07,4.47,6.52,3.23,2.7-1.3,5.75-5.03,5.5-8.42-.1-1.72-.95-3.46-2.03-5.24-4.45-6.98-7.37-15.08-8.24-23.45-3.71-31.14,21.38-59.79,52.12-59.38,30.73-.4,55.85,28.24,52.13,59.38-.87,8.42-3.82,16.59-8.34,23.6-1.09,1.77-1.97,3.47-2.09,5.16-.29,3.43,2.85,7.13,5.57,8.46,2.44,1.23,4.95-.9,6.54-3.24,3.46-4.83,6.3-10.18,8.41-15.86C145.45,48.62,112.73-.45,66.71,0h-.2Z"/>
      <g>
        <path class="cls-4" d="M112.61,116.53c-14.52-11.06-21.15-30.77-21.87-48.9-.44-12.94-2-14.39-15.97-14.02-5.61,0-11.49,0-17.08,0-6.48.24-10.55-.68-15.12,1.08-5.72,3.16-4.27,12.23,2.81,13.4,6.57,1.16,15.28.06,21.59.86,4.29.36,8.05,2.26,9.19,6.8,1.3,4.55,1.93,9.97,3.32,14.67,4.36,16.54,14.08,31.53,28.46,40.88,4.15,2.55,9.17,6.11,14.13,5.24,5.75-1.07,6.07-6.92,2.76-10.79-2.63-3.51-8.06-5.83-12.07-9.1l-.16-.12ZM46.08,82.1c-5.02,3.68-6.1,10.68-9.32,16.27-3.66,6.86-8.71,12.87-14.91,17.61-5.8,4.85-17.18,7.88-15.39,16.66,3.5,8.61,14.25,2.46,19.7-1,10.74-6.66,19.37-16.21,25.05-27.34,2.67-5.7,5.88-12.07,6.1-18.4-.31-5.83-6.48-7.47-11.08-3.89l-.14.1Z"/>
        <path class="cls-2" d="M57.3,85.89c-.22,6.33-3.43,12.7-6.1,18.4-.56,1.09-1.14,2.16-1.76,3.22-4.8-2.25-9.07-5.42-12.6-9.28,3.17-5.57,4.26-12.48,9.24-16.13l.14-.11c4.6-3.57,10.77-1.93,11.08,3.9Z"/>
        <path class="cls-2" d="M97.44,96.88c-3.26,3.89-7.24,7.15-11.74,9.59-2.66-5.06-4.74-10.46-6.21-16.04-1.39-4.71-2.02-10.12-3.32-14.68-1.14-4.53-4.91-6.44-9.2-6.79-6.31-.8-15.02.3-21.59-.86-7.08-1.17-8.53-10.25-2.81-13.4,4.57-1.76,8.64-.84,15.12-1.08h17.08c13.97-.37,15.53,1.08,15.97,14.02.39,9.83,2.52,20.12,6.7,29.24Z"/>
      </g>
    </g>
    <g>
      <g>
        <path class="cls-1" d="M179.86,52.08c-.59-1.45-1.61-3.6-3.07-6.43l-.83-1.65v29.31h-5.37v-26.01c-.94,2.95-1.99,5.7-3.13,8.26s-2.3,4.7-3.48,6.43c-.28-.75-.68-1.65-1.21-2.71-.53-1.06-1.03-1.97-1.5-2.71,1.81-2.24,3.52-5.34,5.13-9.29,1.61-3.95,2.87-7.91,3.77-11.88h-7.61v-5.07h8.02v-11.09h5.37v11.09h7.14v5.07h-7.14v1.83c.71.98,1.86,2.7,3.45,5.16,1.59,2.46,2.82,4.42,3.69,5.87l-3.24,3.83ZM205.28,49.13c1.42,3.3,3.17,6.45,5.28,9.44,2.1,2.99,4.28,5.39,6.52,7.2-.67.51-1.39,1.18-2.15,2.01-.77.83-1.39,1.59-1.86,2.3-1.93-1.85-3.82-4.26-5.69-7.23-1.87-2.97-3.53-6.14-4.98-9.53v20h-5.37v-19.58c-1.77,3.54-3.81,6.77-6.13,9.7-2.32,2.93-4.74,5.3-7.25,7.11-.39-.67-.95-1.42-1.68-2.24-.73-.83-1.39-1.49-1.98-2,2.79-1.77,5.45-4.19,7.96-7.25,2.52-3.07,4.6-6.37,6.25-9.91h-10.68v-5.01h13.51v-9.32h-6.55c-1.02,3.11-2.24,5.76-3.66,7.96-.47-.39-1.17-.88-2.09-1.45-.92-.57-1.68-1.01-2.27-1.33,1.42-2.08,2.61-4.69,3.57-7.82s1.7-6.52,2.21-10.17l5.07.83c-.32,2.16-.77,4.48-1.36,6.96h5.07v-10.56h5.37v10.56h11.27v5.01h-11.27v9.32h13.04v5.01h-10.15Z"/>
        <path class="cls-1" d="M266.14,35.03c.43,6.21,1.16,11.79,2.18,16.72,1.02,4.94,2.25,8.82,3.69,11.65,1.43,2.83,3,4.25,4.69,4.25.71,0,1.25-.85,1.62-2.54.37-1.69.66-4.46.86-8.32.59.63,1.35,1.24,2.27,1.83.92.59,1.78,1.02,2.57,1.3-.32,3.58-.77,6.33-1.36,8.26-.59,1.93-1.39,3.28-2.39,4.07-1,.78-2.35,1.18-4.04,1.18-4.6,0-8.2-3.51-10.79-10.53-2.6-7.02-4.29-16.31-5.07-27.87h-29.91v-5.37h29.55c-.16-4.48-.23-7.88-.23-10.2h5.9v2.77c0,1.73.04,4.21.12,7.43h16.93v5.37h-16.57ZM247.86,62.87c2.91-.51,6.86-1.3,11.86-2.36l.41,4.95c-7.12,1.61-15.83,3.54-26.13,5.78-.39.12-.98.26-1.77.41l-1.59-5.54c1.57-.24,4.64-.79,9.2-1.65l2.54-.47v-15.81h-9.79v-5.31h25.6v5.31h-10.32v14.69ZM272.45,19.46c1.49.98,3.03,2.12,4.6,3.39,1.57,1.28,2.77,2.41,3.6,3.39l-3.83,3.42c-.83-1.02-2-2.21-3.51-3.57-1.51-1.36-3-2.56-4.45-3.63l3.6-3.01Z"/>
        <path class="cls-1" d="M311.29,37.87c-3.46,2.48-6.88,4.52-10.26,6.13-.32-.63-.79-1.39-1.42-2.27-.63-.89-1.24-1.62-1.83-2.21,4.91-2.24,9.59-5.26,14.04-9.05,4.44-3.79,7.81-7.54,10.09-11.24h5.66c3.07,4.25,6.86,8.09,11.38,11.53,4.52,3.44,9.14,6.09,13.86,7.93-1.06,1.14-2.22,2.79-3.48,4.96-3.7-1.77-7.18-3.81-10.44-6.13v4.6h-27.6v-4.25ZM301.14,48.25h48.43v5.13h-27.01c-2.75,5.55-4.84,9.59-6.25,12.15l21.06-.83c-2.48-2.79-4.76-5.13-6.84-7.02l4.72-2.54c2.67,2.24,5.28,4.78,7.82,7.61s4.49,5.35,5.87,7.55l-5.01,3.13c-.63-1.1-1.49-2.38-2.59-3.83-7.08.35-13.96.68-20.64.97-6.69.3-12.82.56-18.4.8l-.71-5.37,8.73-.3c2.16-4.09,3.99-8.2,5.49-12.33h-14.63v-5.13ZM338.24,37.04c-2.71-1.93-5.22-3.97-7.52-6.13-2.3-2.16-4.22-4.29-5.75-6.37-1.42,2.04-3.21,4.14-5.37,6.28-2.16,2.14-4.56,4.22-7.2,6.22h25.84Z"/>
        <path class="cls-1" d="M388.31,56.8c-1.34-1.69-3.48-4.01-6.43-6.96v23.48h-5.43v-21.76c-2.64,2.56-5.39,4.76-8.26,6.61-.28-.75-.7-1.65-1.27-2.71-.57-1.06-1.05-1.85-1.45-2.36,3.38-1.93,6.66-4.5,9.82-7.73s5.73-6.67,7.7-10.32h-15.45v-5.01h8.91v-10.85h5.43v10.85h4.07l.94-.18,3.07,2.07c-1.65,4.21-4.09,8.43-7.31,12.68,1.61,1.3,3.25,2.68,4.92,4.13,1.67,1.45,3.04,2.65,4.1,3.6l-3.36,4.48ZM408.07,66.24h13.15v5.43h-33.03v-5.43h14.27v-23.12h-11.91v-5.31h11.91v-18.17h5.6v18.17h11.91v5.31h-11.91v23.12Z"/>
        <path class="cls-1" d="M454.81,36.1c-1.38,8.02-3.29,15.26-5.75,21.71-2.46,6.45-5.85,11.66-10.18,15.63-1.93-1.93-3.46-3.26-4.6-4.01,4.09-3.62,7.25-8.46,9.5-14.54,2.24-6.08,3.79-12.63,4.66-19.67l6.37.88ZM472.33,23.53c.94,10.97,2.62,20.27,5.04,27.9,2.42,7.63,6.14,13.41,11.18,17.34-.79.43-1.7,1.09-2.74,1.98-1.04.88-1.92,1.7-2.63,2.45-4.84-4.25-8.47-10.06-10.91-17.43-2.44-7.37-4.17-16.19-5.19-26.45h-20.11v-5.78h25.36Z"/>
        <path class="cls-1" d="M535.46,51.26c2.56,3.26,5.76,6.25,9.61,8.97,3.85,2.71,7.83,4.78,11.91,6.19-.59.55-1.27,1.3-2.03,2.24-.77.94-1.39,1.83-1.86,2.65-3.89-1.69-7.66-3.96-11.3-6.81-3.64-2.85-6.81-6.01-9.53-9.47v18.34h-5.6v-18.23c-2.67,3.42-5.84,6.55-9.5,9.38-3.66,2.83-7.45,5.09-11.38,6.78-.43-.75-1.02-1.58-1.77-2.51-.75-.92-1.44-1.66-2.06-2.21,4.13-1.49,8.13-3.61,12-6.34,3.87-2.73,7.07-5.73,9.58-8.99h-18.34v-4.96h21.47v-8.02h5.6v8.02h22v4.96h-18.82ZM510.33,43.35h-5.37v-12.15h8.67c-.51-1.26-1.28-2.71-2.3-4.36-1.02-1.65-2.1-3.15-3.24-4.48l4.78-2.18c1.3,1.49,2.52,3.08,3.66,4.75,1.14,1.67,1.95,3.14,2.42,4.39l-3.89,1.89h24.71l-.94-.35c1.22-1.57,2.5-3.41,3.83-5.52,1.34-2.1,2.42-4,3.24-5.69l6.02,1.89c-2.64,3.85-5.05,7.08-7.25,9.67h9.73v12.15h-5.49v-7.08h-38.58v7.08ZM527.73,30.85c-.28-1.3-.82-2.89-1.62-4.78-.81-1.89-1.66-3.64-2.57-5.25l4.84-1.53c1.02,1.57,1.96,3.26,2.8,5.07s1.43,3.38,1.74,4.72l-5.19,1.77Z"/>
      </g>
      <g>
        <path class="cls-1" d="M167.83,102.06l-6.64-11.56h3.53l4.65,8.13,4.67-8.13h3.53l-6.67,11.56v8.79h-3.07v-8.79Z"/>
        <path class="cls-1" d="M197.68,98.01h2.98v12.84h-2.98v-1.34c-1.22,1.14-2.54,1.71-3.94,1.71-1.78,0-3.24-.64-4.4-1.92-1.15-1.31-1.73-2.94-1.73-4.9s.58-3.53,1.73-4.81,2.59-1.93,4.32-1.93c1.49,0,2.83.62,4.02,1.85v-1.49ZM190.64,104.4c0,1.23.33,2.23.99,3.01.68.78,1.53,1.17,2.56,1.17,1.1,0,1.99-.38,2.66-1.13.68-.78,1.01-1.78,1.01-2.98s-.34-2.2-1.01-2.98c-.68-.77-1.56-1.15-2.64-1.15-1.02,0-1.87.39-2.56,1.16-.68.78-1.01,1.75-1.01,2.9Z"/>
        <path class="cls-1" d="M220.73,100.2l-2.45,1.3c-.39-.79-.87-1.19-1.44-1.19-.27,0-.51.09-.7.27-.19.18-.29.41-.29.69,0,.49.57.98,1.71,1.46,1.57.68,2.63,1.3,3.18,1.87.54.57.82,1.34.82,2.31,0,1.24-.46,2.28-1.37,3.11-.89.79-1.96,1.19-3.22,1.19-2.15,0-3.68-1.05-4.57-3.15l2.53-1.17c.35.62.62,1.01.8,1.17.36.33.79.5,1.29.5,1,0,1.5-.46,1.5-1.37,0-.53-.39-1.02-1.16-1.48-.3-.15-.6-.29-.9-.43-.3-.14-.6-.29-.91-.43-.86-.42-1.47-.84-1.82-1.27-.45-.54-.67-1.23-.67-2.07,0-1.12.38-2.04,1.15-2.77.78-.73,1.73-1.09,2.85-1.09,1.64,0,2.87.85,3.67,2.54Z"/>
        <path class="cls-1" d="M242.55,98.01h2.98v12.84h-2.98v-1.34c-1.22,1.14-2.54,1.71-3.94,1.71-1.78,0-3.24-.64-4.4-1.92-1.15-1.31-1.73-2.94-1.73-4.9s.58-3.53,1.73-4.81,2.59-1.93,4.32-1.93c1.49,0,2.83.62,4.02,1.85v-1.49ZM235.51,104.4c0,1.23.33,2.23.99,3.01.68.78,1.53,1.17,2.56,1.17,1.1,0,1.99-.38,2.66-1.13.68-.78,1.01-1.78,1.01-2.98s-.34-2.2-1.01-2.98c-.68-.77-1.56-1.15-2.64-1.15-1.02,0-1.87.39-2.56,1.16-.68.78-1.01,1.75-1.01,2.9Z"/>
        <path class="cls-1" d="M261.1,88.59v13.58l4.18-4.15h3.98l-5.58,5.39,5.99,7.45h-3.85l-4.25-5.42-.47.47v4.94h-2.97v-22.27h2.97Z"/>
        <path class="cls-1" d="M289.91,98.01h2.98v12.84h-2.98v-1.34c-1.22,1.14-2.54,1.71-3.94,1.71-1.78,0-3.24-.64-4.4-1.92-1.15-1.31-1.73-2.94-1.73-4.9s.58-3.53,1.73-4.81,2.59-1.93,4.32-1.93c1.49,0,2.83.62,4.02,1.85v-1.49ZM282.87,104.4c0,1.23.33,2.23.99,3.01.68.78,1.53,1.17,2.56,1.17,1.1,0,1.99-.38,2.66-1.13.68-.78,1.01-1.78,1.01-2.98s-.34-2.2-1.01-2.98c-.68-.77-1.56-1.15-2.64-1.15-1.02,0-1.87.39-2.56,1.16-.68.78-1.01,1.75-1.01,2.9Z"/>
        <path class="cls-1" d="M338.3,91.59v3.64c-1.78-1.48-3.61-2.23-5.51-2.23-2.09,0-3.85.75-5.29,2.25-1.44,1.49-2.16,3.32-2.16,5.48s.72,3.94,2.16,5.4c1.44,1.47,3.21,2.2,5.3,2.2,1.08,0,2-.18,2.75-.53.42-.18.86-.41,1.31-.71.45-.3.93-.66,1.43-1.08v3.7c-1.76.99-3.6,1.49-5.54,1.49-2.91,0-5.39-1.02-7.45-3.04-2.05-2.05-3.07-4.52-3.07-7.41,0-2.59.86-4.9,2.57-6.93,2.11-2.49,4.84-3.73,8.19-3.73,1.83,0,3.59.5,5.3,1.49Z"/>
        <path class="cls-1" d="M349.87,104.34c0-1.85.66-3.43,1.99-4.73,1.33-1.3,2.94-1.95,4.85-1.95s3.54.66,4.88,1.96c1.32,1.31,1.98,2.92,1.98,4.83s-.66,3.54-1.99,4.84c-1.34,1.29-2.98,1.94-4.92,1.94s-3.54-.66-4.84-1.98c-1.3-1.3-1.95-2.94-1.95-4.9ZM352.9,104.4c0,1.28.34,2.3,1.03,3.05.7.76,1.63,1.13,2.78,1.13s2.09-.37,2.78-1.12,1.04-1.74,1.04-2.99-.35-2.25-1.04-2.99c-.7-.76-1.63-1.13-2.78-1.13s-2.05.38-2.75,1.13-1.05,1.73-1.05,2.93Z"/>
        <path class="cls-1" d="M375.57,98.01h2.97v1.15c.54-.57,1.03-.96,1.45-1.17.43-.22.94-.33,1.53-.33.78,0,1.6.26,2.45.77l-1.36,2.71c-.56-.4-1.11-.61-1.65-.61-1.62,0-2.43,1.22-2.43,3.66v6.66h-2.97v-12.84Z"/>
        <path class="cls-1" d="M397.49,117.84h-2.97v-19.83h2.97v1.4c1.17-1.17,2.5-1.75,3.98-1.75,1.77,0,3.22.65,4.36,1.95,1.16,1.29,1.74,2.92,1.74,4.89s-.58,3.53-1.73,4.81c-1.14,1.28-2.58,1.91-4.32,1.91-1.5,0-2.85-.6-4.04-1.81v8.42ZM404.55,104.51c0-1.23-.33-2.23-1-3.01-.68-.78-1.53-1.17-2.56-1.17-1.09,0-1.97.38-2.65,1.13s-1.01,1.75-1.01,2.98.34,2.2,1.01,2.98c.67.76,1.55,1.15,2.64,1.15,1.03,0,1.88-.39,2.54-1.16.69-.77,1.03-1.74,1.03-2.9Z"/>
        <path class="cls-1" d="M418.98,104.34c0-1.85.66-3.43,1.99-4.73,1.33-1.3,2.94-1.95,4.85-1.95s3.54.66,4.88,1.96c1.32,1.31,1.98,2.92,1.98,4.83s-.66,3.54-1.99,4.84c-1.34,1.29-2.98,1.94-4.92,1.94s-3.54-.66-4.84-1.98c-1.3-1.3-1.95-2.94-1.95-4.9ZM422.01,104.4c0,1.28.34,2.3,1.03,3.05.7.76,1.63,1.13,2.78,1.13s2.09-.37,2.78-1.12,1.04-1.74,1.04-2.99-.35-2.25-1.04-2.99c-.7-.76-1.63-1.13-2.78-1.13s-2.05.38-2.75,1.13-1.05,1.73-1.05,2.93Z"/>
        <path class="cls-1" d="M444.67,98.01h2.97v1.15c.54-.57,1.03-.96,1.45-1.17.43-.22.94-.33,1.53-.33.78,0,1.6.26,2.45.77l-1.36,2.71c-.56-.4-1.11-.61-1.65-.61-1.62,0-2.43,1.22-2.43,3.66v6.66h-2.97v-12.84Z"/>
        <path class="cls-1" d="M473.1,98.01h2.98v12.84h-2.98v-1.34c-1.22,1.14-2.54,1.71-3.94,1.71-1.78,0-3.24-.64-4.4-1.92-1.15-1.31-1.73-2.94-1.73-4.9s.58-3.53,1.73-4.81,2.59-1.93,4.32-1.93c1.49,0,2.83.62,4.02,1.85v-1.49ZM466.06,104.4c0,1.23.33,2.23.99,3.01.68.78,1.53,1.17,2.56,1.17,1.1,0,1.99-.38,2.66-1.13.68-.78,1.01-1.78,1.01-2.98s-.34-2.2-1.01-2.98c-.68-.77-1.56-1.15-2.64-1.15-1.02,0-1.87.39-2.56,1.16-.68.78-1.01,1.75-1.01,2.9Z"/>
        <path class="cls-1" d="M491.75,100.78v10.07h-2.97v-10.07h-1.27v-2.77h1.27v-4.71h2.97v4.71h2.31v2.77h-2.31Z"/>
        <path class="cls-1" d="M504.49,92.68c0-.52.19-.97.57-1.35.38-.38.83-.57,1.36-.57s.99.19,1.37.57c.38.37.57.82.57,1.36s-.19.99-.57,1.37c-.37.38-.82.57-1.36.57s-.99-.19-1.37-.57-.57-.84-.57-1.38ZM507.9,98.01v12.84h-2.97v-12.84h2.97Z"/>
        <path class="cls-1" d="M519.91,104.34c0-1.85.66-3.43,1.99-4.73,1.33-1.3,2.94-1.95,4.85-1.95s3.54.66,4.88,1.96c1.32,1.31,1.98,2.92,1.98,4.83s-.66,3.54-1.99,4.84c-1.34,1.29-2.98,1.94-4.92,1.94s-3.54-.66-4.84-1.98c-1.3-1.3-1.95-2.94-1.95-4.9ZM522.95,104.4c0,1.28.34,2.3,1.03,3.05.7.76,1.63,1.13,2.78,1.13s2.09-.37,2.78-1.12,1.04-1.74,1.04-2.99-.35-2.25-1.04-2.99c-.7-.76-1.63-1.13-2.78-1.13s-2.05.38-2.75,1.13-1.05,1.73-1.05,2.93Z"/>
        <path class="cls-1" d="M545.61,98.01h2.98v1.19c1.04-1.03,2.21-1.54,3.51-1.54,1.49,0,2.66.47,3.49,1.41.72.8,1.08,2.11,1.08,3.92v7.87h-2.98v-7.17c0-1.27-.18-2.14-.53-2.62-.34-.49-.97-.74-1.87-.74-.99,0-1.68.33-2.1.97-.4.64-.61,1.76-.61,3.36v6.2h-2.98v-12.84Z"/>
      </g>
    </g>
  </g>
</svg>