<svg width="98" height="97" viewBox="0 0 98 97" fill="none" xmlns="http://www.w3.org/2000/svg">
<path d="M62.004 92.0186C53.4693 95.3226 43.0827 96.3799 33.1251 92.5957C23.9409 89.1069 16.9214 83.558 12.548 76.2666C8.31049 69.2016 6.64864 60.6536 7.74133 51.0693L7.85656 50.1387C8.16057 47.8354 8.92702 46.0649 9.62219 44.7949C9.72549 44.6062 9.82944 44.4284 9.92785 44.2617C8.88857 43.6231 7.74182 42.9442 6.65051 42.2979C5.81882 41.8053 5.01985 41.3297 4.35754 40.917C3.73071 40.5264 3.1097 40.1218 2.7091 39.7832C2.22267 39.3721 1.96125 38.7536 2.005 38.1182C2.0488 37.4828 2.39264 36.906 2.93078 36.5654C3.7458 36.0497 4.7812 35.6554 5.83605 35.3213C6.91615 34.9792 8.16616 34.6552 9.47863 34.3262C12.1429 33.6583 15.1435 32.9473 18.1095 31.9316C18.2065 31.8984 18.3064 31.8725 18.4073 31.8545C20.7617 31.4351 22.7863 30.9612 24.3224 30.585C25.0727 30.4012 25.7564 30.229 26.2579 30.1094C26.6816 30.0083 27.2449 29.8747 27.6564 29.8574C28.7175 29.813 29.6282 30.606 29.7306 31.6631C30.1568 36.0629 31.0801 40.0982 32.0226 43.9385C32.9524 47.7275 33.9316 51.4324 34.3624 54.9385C34.4553 55.695 34.1097 56.4382 33.4718 56.8555C32.8339 57.2727 32.0144 57.2915 31.3585 56.9033L31.3575 56.9023L31.3556 56.9014C31.3537 56.9003 31.3506 56.8988 31.3468 56.8965C31.3387 56.8917 31.3259 56.8836 31.3097 56.874C31.2773 56.8549 31.2288 56.8269 31.1661 56.79C31.0401 56.7159 30.8558 56.6073 30.6232 56.4717C30.1577 56.2002 29.4998 55.82 28.7345 55.3838C27.7322 54.8125 26.5521 54.1521 25.379 53.5176C25.3049 54.0949 25.2458 54.8689 25.2306 55.8897C25.1894 58.6639 26.4725 62.1288 28.9357 65.376C31.3776 68.5952 34.8479 71.4188 38.8947 72.9834L38.8947 72.9844C47.9091 76.4635 57.1514 74.8025 61.3761 69.5186C61.9111 68.8494 62.8127 68.5954 63.6183 68.8867L79.2999 74.5576C79.8401 74.753 80.2711 75.1716 80.4816 75.7061C80.6918 76.2404 80.6624 76.8395 80.4005 77.3506C77.4467 83.1142 70.4758 88.7388 62.004 92.0186Z" fill="#56B879" stroke="white" stroke-width="4" stroke-linecap="round" stroke-linejoin="round"/>
<path d="M36.0077 5.54309C44.5377 2.30097 54.9151 1.26438 64.8641 4.97668C74.0425 8.39996 81.0655 13.8472 85.4442 21.0148C89.8252 28.1863 91.4567 36.9137 90.1434 46.7091V46.7101C89.8379 48.9826 89.0679 50.7285 88.3709 51.9786C88.2778 52.1456 88.184 52.3036 88.0946 52.4532C89.1243 53.0738 90.2573 53.7314 91.3358 54.3585C92.1676 54.8422 92.9664 55.3098 93.6288 55.715C94.2554 56.0983 94.8763 56.4956 95.2772 56.8282C95.772 57.2389 96.0389 57.8625 95.995 58.504C95.951 59.1454 95.6015 59.7262 95.0555 60.0656C94.2417 60.5712 93.2081 60.9585 92.1541 61.2863C91.0749 61.6219 89.8251 61.9388 88.5125 62.2618C85.8487 62.9175 82.8471 63.6167 79.8797 64.6144C79.7841 64.6465 79.6861 64.6712 79.5868 64.6886C77.2312 65.1005 75.2052 65.5662 73.6688 65.9357C72.9182 66.1162 72.2356 66.286 71.7342 66.4034C71.3091 66.503 70.7489 66.6328 70.3416 66.6495C69.2826 66.6929 68.3736 65.9025 68.2694 64.8478C67.8437 60.5332 66.9217 56.575 65.9793 52.8048C65.0501 49.0871 64.07 45.4447 63.6385 41.9972C63.5441 41.2428 63.8852 40.4996 64.5194 40.0802C65.1535 39.6609 65.9706 39.6376 66.6278 40.0197H66.6288C66.6292 40.0199 66.6298 40.0211 66.6307 40.0216C66.6326 40.0227 66.6356 40.0242 66.6395 40.0265C66.6475 40.0312 66.6595 40.0386 66.6756 40.048C66.708 40.0668 66.7571 40.0946 66.8202 40.131C66.9462 40.2038 67.1306 40.3104 67.3631 40.4435C67.8286 40.71 68.4865 41.0835 69.2518 41.5118C70.2588 42.0754 71.4454 42.727 72.6239 43.3527C72.6962 42.7918 72.7543 42.0413 72.7694 41.0529C72.8102 38.3509 71.5361 34.9619 69.075 31.7765C66.6366 28.6204 63.1672 25.8465 59.1161 24.3087V24.3077C50.0891 20.8874 40.8352 22.5253 36.6131 27.7101C36.0791 28.3659 35.1895 28.6142 34.3924 28.3312L18.7108 22.7638C18.1651 22.57 17.7301 22.1485 17.5184 21.6095C17.3068 21.0706 17.3385 20.4665 17.6063 19.9532C20.5663 14.2825 27.5425 8.76061 36.0077 5.54309Z" fill="#56B879" stroke="white" stroke-width="4" stroke-linecap="round" stroke-linejoin="round"/>
</svg>
