<?xml version="1.0" encoding="UTF-8"?>
<svg id="_レイヤー_2" data-name="レイヤー 2" xmlns="http://www.w3.org/2000/svg" viewBox="0 0 57.6 91.69">
  <defs>
    <style>
      .cls-1 {
        fill: #55445b;
      }

      .cls-2 {
        fill: #ecae53;
      }

      .cls-3 {
        fill: #56445b;
      }

      .cls-4 {
        fill: #8993c3;
      }

      .cls-5 {
        fill: #dd9b3e;
      }

      .cls-6 {
        fill: #a9a9a8;
      }

      .cls-7 {
        fill: #231815;
      }

      .cls-8 {
        fill: #d3b4a1;
      }

      .cls-9 {
        fill: #898989;
      }

      .cls-10 {
        fill: #595757;
      }

      .cls-11 {
        fill: #50a87f;
      }

      .cls-12 {
        fill: #4b86c2;
      }

      .cls-13 {
        fill: #efb354;
      }

      .cls-14 {
        fill: #686969;
      }

      .cls-15 {
        fill: #e27c93;
      }

      .cls-16 {
        fill: #99754c;
      }

      .cls-17 {
        fill: #4c86c3;
      }
    </style>
  </defs>
  <g id="_レイヤー_1-2" data-name="レイヤー 1">
    <g>
      <path class="cls-11" d="M36.31,70.86c-.55-.27-1.09-.58-1.75-.49-.49.07-.76-.33-1.11-.54-.54-.39-1.18-.35-1.8-.44-1.16-.17-1.98-1.27-1.47-2.17.45-.8.33-1.59.43-2.4.61-.76.41-1.72.63-2.58.5-1.95.74-3.97,1.27-5.91.56-2.06.94-4.1.4-6.21.04-1.59-.34-3.16-.19-4.75.03-.28-.03-.57.03-.83.44-1.88.4-3.82.59-5.72.01-.12.08-.26.04-.35-.56-1.03.05-1.82.53-2.64.26-.06.49.04.66.2,1.07.99,2.5.93,3.71.86,1.67-.09,3.37-.27,5.03-.58,1.31,1.04,1.65,1.07,2.83.38.45-.26.79-.66,1.23-.93.29.23.41.55.48.91.26,1.44.62,2.86,1.18,4.23-.03,1.42.03,2.85.28,4.24.23,1.33.22,2.81,1.63,3.62-.05.65.02,1.27.3,1.86.47,1.02.26,2.15.54,3.21.53,1.97.91,3.97,1.48,5.94.35,1.2.75,2.46.65,3.83-.06.86.16,1.77-.03,2.68-.1.48-.31.83-.71,1.03-1.61.84-3.18,1.75-4.9,2.37-1.14-.1-2.28.04-3.42-.24-.5-.13-1.11-.15-1.6.23-.96.02-1.94-.13-2.86.26-1.03.15-2.06.34-3.09.42-.44.03-.7.22-.95.52Z"/>
      <path class="cls-14" d="M2.72,76.29c.07-1.3.53-2.38,1.77-2.95.29-.13.46-.34.54-.58.7-2.25,1.81-4.3,3.08-6.25.67-1.03,1.28-2.1,1.97-3.11.55-.8.64-1.61.49-2.49-.49-2.8-1.06-5.59-1.31-8.43-.06-.72-.28-1.4-.54-2.06,1.13-.4,2.27-.8,3.4-1.21.82,0,1.63.09,2.47-.12,2.36-.57,4.57-1.58,6.88-2.28,1.09.53.97,1.5.9,2.45-.46.41-.79.99-1.44,1.18-.05-.39.26-.74.16-1.12-1.01-.7-2.01-.49-2.42.5-.26.64.08,1.13.41,1.62-.1.12-.21.24-.31.36-1,1.16-.5,2.81.92,3.31.78.28,1.38-.15,2.02-.33.6.94,1.07,2.89.89,3.79-.23,1.16-.47,2.33-.74,3.48-.4,1.7,0,2.8,1.41,3.8.04.53.07,1.05.11,1.58-.02.83-.09,1.66.14,2.5.12.45.13.97.04,1.43-.33,1.67-.57,3.38-1.06,4.99-.37,1.24-.37,2.3,0,3.46.25.76.21,1.49-.47,2.06-1.14-.04-2.16.44-3.17.85-1.1.45-2.12.45-3.14-.16-.43-1.18-.08-2.33.37-3.36.51-1.19.86-2.24.58-3.62-.28-1.4.03-2.9.31-4.34.22-1.12.13-2.29.37-3.42.08-.36.03-.78-.14-1.17-.24-.54-.44-1.08-.18-1.72.14-.35-.08-.75-.38-1.04-.1-1.02-.25-2.04-.3-3.06-.06-1.19-.14-2.31-.88-3.37-.64-.93-1.13-1.99-1.31-3.16-.07-.44-.26-.9-.8-1.25-.35,1.21.05,2.16.62,3.07.7,1.13,1.32,2.27,1.24,3.67-.02.39.06.8.18,1.17.44,1.33.39,2.72.49,4.09.05.87-.28,1.54-.85,2.24-.91,1.13-1.57,2.45-2.39,3.66-.7,1.03-1.32,2.12-2.22,3-.5.48-.79.99-.42,1.69.64,1.19.47,2.19-.66,3.02-.38.28-.68.67-1.14.84-.47.06-.96.11-1.38-.14-1.48-.88-3.16-1.51-4.13-3.09Z"/>
      <path class="cls-6" d="M21.46,46.82c-2.31.7-4.52,1.71-6.88,2.28-.84.2-1.64.11-2.47.12.6-.73,1.01-1.54.92-2.5-.17-1.83,1.3-3.15,1.48-4.87.02-.15.28-.26.41-.41.91-1.1,1.95-2.1,2.66-3.36.47-.82.27-1.42-.55-1.69-.5-.17-.8.11-1.01.43-.63.95-1.58,1.65-2.1,2.7-.19.37-.47.74-.96.86-.37-.39-.7-.79-.87-1.28-.8-2.25-1.28-4.55-1.5-6.94-.14-1.57-.18-3.15-.58-4.71-.27-1.05-.8-1.58-1.72-1.91-.57-.2-1.14-.33-1.75-.3.82-1.62.81-3.44,1.2-5.16.44-1.95,1.01-3.82,2.33-5.36.44-.51.73-1.12,1.25-1.58.69-.61,1.31-1.21,2.28-1.42.61-.14,1.28-.45,1.61-1.11.49.37.99.7,1.65.52.25.4.51.8.75,1.2.54.9,1.27,1.39,2.36,1.14,1.75,1.07,2.47,2.84,3.09,4.65.15.45.28.89.54,1.3.28.43.47.93.45,1.46-.04,1.1.13,2.2.16,3.29.04,1.58-.57,3.01-.47,4.7.64.55,1.24,1.33,1.05,2.45-.03.16,0,.34-.06.47-.49.98-.84,1.99-.8,3.12.02.61-.35,1.13-.62,1.65-.86-.45-1.77-.37-2.65-.1-.6.18-1.15.5-1.44,1.16-.16.37-.25.7.07.97.57.48.79,1.05.71,1.78-.04.37.14.72.36.99.66.82,1.09,1.71,1.17,2.78.01.19.12.46.35.59.05.74.12,1.48-.42,2.11ZM9.25,25.55c.53.35.85.09,1.19-.24.46-.44.72-1.07,1.15-1.46,1.41-1.26,2.59-2.74,3.96-4.05,1.56-1.48,3.22-2.12,5.26-1.67.79.18,1.19-.13,1.44-.68.27-.6-.12-1.05-.64-1.36-1.24-.72-2.48-1.05-3.79-.11-.28.2-.65.36-.99.39-1.36.14-2.25,1.04-3.2,1.87-.54.47-.7,1.15-1.14,1.66-.78.9-1.59,1.78-2.28,2.74-.61.85-1.28,1.74-.96,2.9ZM18.49,34.19c.3-.76.37-.81.04-1.25-.56-.75-.46-1.39-.07-2.19.42-.86.65-1.79-.33-2.58-.46-.37-.6-.98-.57-1.63.06-1.39-.05-2.79.25-4.16.05-.24.09-.53-.35-.88-.31,2.16-.73,4.14-.84,6.16-.02.45.25.75.57.99.63.48.78,1.14.58,1.82-.29.98-.29,1.96-.36,2.91.37.28.68.52,1.07.82Z"/>
      <path class="cls-8" d="M47.35,35.76c-.44.27-.77.66-1.23.93-1.18.69-1.52.67-2.83-.38-1.66.32-3.36.49-5.03.58-1.21.07-2.64.13-3.71-.86-.17-.16-.4-.26-.66-.2-.72-.04-1.38.38-2.11.25-.31-.06-.64-.02-.86-.32-.46-.65-1.07-1.24-1.34-1.96-.36-.95-.68-1.92-.73-2.98-.1-1.87.15-3.7.25-5.55.07-1.43-.23-2.83-.42-4.24-.04-.28-.12-.59-.03-.83.56-1.55,1.03-3.17,2.35-4.31.01.64,0,1.27.03,1.9.05,1.33.77,2.3,1.84,2.4,1.43.14,2.79-.56,2.97-1.89.08-.55.28-1.09.66-1.5,1.28-1.4,2.56-2.79,4.58-3.11.52.29,1,.27,1.44-.17.73.79,1.75,1.18,2.6,1.83,1.61,1.22,2.3,2.62,2.14,4.67-.21,2.5-.08,5.01.53,7.48.12.47.22.84.76.92-.22.28-.46.55-.67.84-.92,1.3-.71,2.19.7,3-.41.62-.28,1.26-.06,1.9-.33.58-.98.93-1.16,1.62Z"/>
      <path class="cls-16" d="M6.54,25.22c.61-.03,1.18.1,1.75.3.91.33,1.44.85,1.72,1.91.41,1.56.44,3.15.58,4.71.22,2.39.7,4.69,1.5,6.94.17.49.5.89.87,1.28.5-.12.78-.49.96-.86.52-1.05,1.47-1.74,2.1-2.7.21-.32.51-.59,1.01-.43.82.27,1.02.87.55,1.69-.72,1.26-1.76,2.25-2.66,3.36-.12.15-.39.26-.41.41-.19,1.72-1.66,3.04-1.48,4.87.09.97-.32,1.78-.92,2.5-1.13.4-2.27.8-3.4,1.21-.12,0-.25-.03-.36.02-1.91.84-3.7.37-5.47-.47-.59-.28-1.11-.58-1.44-1.17-.89-1.56-1.52-3.08-1.23-5.03.23-1.53.16-3.19.01-4.78-.04-.46.01-.88.1-1.27.34-1.55-.21-3.22.66-4.72.18-.3.24-.83.17-1.15-.3-1.21.4-1.99,1.07-2.76,1.03-1.19,2.03-2.42,3.21-3.48.33-.29.7-.35,1.1-.38ZM8.17,46.13c.92-.71,1.11-1.69.49-2.56-.25-.36-.5-.71-.66-1.13-.75-1.93-.94-3.9-.54-5.94.11-.56.13-1.16-.03-1.76-.55.24-.39.69-.42,1.06-.03.4.05.81-.03,1.19-.48,2.17-.94,4.31.19,6.44.23.44.24,1,.32,1.5.08.49.27.9.67,1.19Z"/>
      <path class="cls-12" d="M20.92,50.45c.65-.19.97-.77,1.44-1.18.72-.23,1.35-.56,1.48-1.41.19.14.4.26.58.41,1.05.83,2.72.97,3.78.23.88-.6,1.71-1.28,2.56-1.93.93,1.05,1.36,2.41,2.14,3.55.54,2.11.17,4.15-.4,6.21-.53,1.94-.77,3.96-1.27,5.91-.22.86-.02,1.82-.63,2.58-.52.19-1,.52-1.58.5-1.94-.08-3.82.54-5.76.54-1.42-1-1.82-2.09-1.41-3.8.27-1.15.51-2.32.74-3.48.18-.9-.29-2.85-.89-3.79-.65.18-1.24.61-2.02.33-1.43-.5-1.93-2.16-.92-3.31.1-.12.21-.24.31-.36,1.01.4,1.37-.41,1.85-1Z"/>
      <path class="cls-7" d="M41.08,13.68c-2.01.32-3.3,1.72-4.58,3.11-.38.42-.58.96-.66,1.5-.18,1.33-1.54,2.03-2.97,1.89-1.07-.1-1.79-1.07-1.84-2.4-.02-.63-.02-1.27-.03-1.9.06-.35.15-.67.38-.98.54-.74.95-1.53.87-2.52-.06-.68.43-1.24.67-1.85.65-1.71.69-3.55.92-5.34.24-1.84.95-2.68,2.8-3.08.44-.09.9-.14,1.26-.58.47-.59,1.16-.66,1.92-.57,2.24.26,3.6,1.85,3.43,4.11-.73.34-1.36.87-1.09,1.71.33,1.05,0,1.82-.62,2.59-.2.25-.39.51-.19.92.57,1.17.54,2.32-.27,3.4Z"/>
      <path class="cls-13" d="M43.22,69.66c.49-.38,1.1-.36,1.6-.23,1.14.29,2.28.14,3.42.24.44,2-.57,3.7-1.1,5.51-.32,1.09-.59,2.21-.73,3.35-.19,1.19-.95,2.16-1.23,3.31-1.07,1-1.32,2.37-1.69,3.69-.14.07-.28.15-.42.22-1.51.74-3.87-.33-3.63-2.2.07-.57-.26-1.1-.19-1.71.04-.34-.14-.99-.81-.48-.23-.17-.13-.35,0-.5.32-.4.13-.77.04-1.21-.53-2.59-1.62-5.02-2.12-7.61-.07-.39-.05-.79-.07-1.19.25-.3.51-.49.95-.52,1.04-.08,2.06-.27,3.09-.42.35.85.49,1.73.53,2.65.04.94.14,1.88.53,2.98.2-.42.31-.59.37-.77.6-1.67.94-3.42,1.44-5.12Z"/>
      <path class="cls-15" d="M23.27,65.86c1.94,0,3.81-.62,5.76-.54.58.02,1.06-.31,1.58-.5-.09.8.02,1.6-.43,2.4-.51.9.31,2,1.47,2.17.62.09,1.26.04,1.8.44,0,1.94,0,3.89-.01,5.83-.29,1.43-1.22,2-2.62,1.95q-.81-.7-1-1.97c-.45.63-.91,1.24-1.22,1.98-.35.84-.4,1.79-.97,2.54-.94.34-1.87.5-2.82.03-.47-.58-1.04-1.15-.9-1.98.13-.77.28-1.55.6-2.28.52-1.19,1.01-2.41.72-3.75-.2-.93-.47-1.83-.68-2.76-.18-.8-.52-1.48-1.18-1.99-.04-.53-.07-1.05-.11-1.58Z"/>
      <path class="cls-4" d="M48.51,34.14c-.22-.64-.36-1.28.06-1.9.22-.07.52-.26.64-.18.66.43,1.05-.12,1.52-.36.57-.04.86.3,1.06.78.47,1.14,1.23,2.1,1.91,3.13,1.95,2.96,3.25,6.22,3.88,9.72.17.93-.81,2.66-1.67,3.09-1.3.64-2.65.81-4.05.43-.32-.09-.63-.06-.95-.08-1.41-.82-1.39-2.3-1.63-3.62-.25-1.4-.31-2.82-.28-4.24,0-.59.05-1.19.02-1.78-.03-.55.2-1.16-.14-1.62-.34-.47-.33-.95-.33-1.46,0-.63-.02-1.26-.04-1.9ZM52.32,37.53c-.14-.77-1.82-3.97-2.38-4.47.29,1.66.22,3.3.87,4.84.58.12,1.1.12,1.51-.37Z"/>
      <path class="cls-7" d="M30.76,46.58c-.85.65-1.68,1.33-2.56,1.93-1.07.73-2.74.59-3.78-.23-.19-.15-.39-.27-.58-.41-.36-.5-.84-.96-.85-1.63-.01-.63-.21-1.21-.36-1.81.01-.59.37-1.14.24-1.73-.26-1.22.33-2.18.87-3.17.62-.5,1.32-.64,2.12-.53,1,.14,2.01.14,3,.41.78.21,1.41.57,1.76,1.27.36.73.64,1.51.87,2.29.4,1.32.29,2.57-.73,3.62Z"/>
      <path class="cls-7" d="M16.85,11.11c-.66.17-1.16-.15-1.65-.52-.45-.84-.9-1.67-1.68-2.29-.38-.31-.59-.76-.52-1.28.18-1.25.36-2.5,1.38-3.42.83-.74,1.65-1.5,2.21-2.46.58-.99,1.6-.96,2.5-1.07.93-.11,1.92-.18,2.8.33.3.17.63.07.94.1,1.74.2,2.26,1.3,1.31,2.78-1.19.63-2.55,1.05-3,2.56-1.13-.85-1.35-.91-2-.56-1.08.58-1.18,1.57-.14,2.64.57.59.63,1.14.29,1.8-.34.65-.74,1.28-1.63,1.08-.38-.09-.61.04-.82.31Z"/>
      <path class="cls-13" d="M16.85,11.11c.21-.27.44-.4.82-.31.89.2,1.29-.42,1.63-1.08.34-.66.28-1.21-.29-1.8-1.04-1.06-.93-2.06.14-2.64.64-.35.87-.29,2,.56.45-1.51,1.81-1.93,3-2.56.17.38.52.59.79.87.85.89,1.31,1.88.86,3.13-.18.5-.14,1.03,0,1.53.32,1.13-.17,1.92-1,2.57-.79.62-1.65.69-2.56.24-.17-.08-.34-.16-.56-.26-.42.84-.93,1.58-1.73,2.08-1.09.24-1.83-.24-2.36-1.14-.24-.41-.5-.8-.75-1.2Z"/>
      <path class="cls-5" d="M2.72,76.29c.97,1.58,2.65,2.21,4.13,3.09.42.25.91.19,1.38.14.38,1.27,1.03,2.38,1.88,3.4.32.39.53.88.75,1.35.59,1.23,0,2.09-1.37,1.9-.89-.12-1.75-.32-2.57-.84-1.24-.79-2.44-1.57-3.52-2.6-.63-.6-1.56-.89-2.35-1.34-1.19-.67-1.37-1.29-.54-2.37.71-.93,1.55-1.76,2.21-2.73Z"/>
      <path class="cls-1" d="M38.45,81.37c.66-.52.85.14.81.48-.07.61.27,1.14.19,1.71-.24,1.87,2.12,2.94,3.63,2.2.14-.07.28-.15.42-.22.59.71,1.41,1.12,2.18,1.57.77.46,1.36,1.09,1.92,1.76.25.3.43.64.49,1.06.18,1.24-.28,1.87-1.52,1.75-1.17-.11-2.28-.54-3.36-1.05-1.54-.73-2.85-1.94-4.67-2.13-.62-.06-1.29-.39-1.73-.96-.86-1.12-.91-1.92.05-2.97.86-.93,1.26-2.04,1.6-3.2Z"/>
      <path class="cls-5" d="M15.73,82.58c1.02.6,2.04.6,3.14.16,1.01-.41,2.03-.89,3.17-.85.69.01,1.38.02,1.59.89,0,.13-.01.26-.02.39-.17,1.65-1.35,2.32-2.67,2.97-1.43.7-2.87,1.14-4.47,1.05-1.29-.07-1.82-.73-1.68-2.04.1-.95.65-1.7.94-2.56Z"/>
      <path class="cls-13" d="M50.73,31.69c-.47.25-.85.79-1.52.36-.12-.08-.42.11-.64.18-1.41-.81-1.62-1.7-.7-3,.21-.29.45-.56.67-.84.46-.26.79-.6.98-1.13.38-1.05,1.17-1.57,2.29-1.52,1.08.05,1.85.66,2.37,1.55.37.63.08,1.44-.61,2.13-.87.86-1.77,1.68-2.85,2.27Z"/>
      <path class="cls-13" d="M41.08,13.68c.8-1.08.83-2.23.27-3.4-.2-.41-.01-.67.19-.92.62-.77.95-1.54.62-2.59-.26-.84.36-1.37,1.09-1.71.62-.35.98-.1,1.35.45,1.47,2.17,1.36,4.87-.18,6.83-.56.72-1.06,1.12-1.91,1.16-.43.44-.92.46-1.44.17Z"/>
      <path class="cls-13" d="M23.74,39.52c-.54.99-1.13,1.95-.87,3.17.13.59-.23,1.14-.24,1.73-.22.18-.46.28-.74.29-.23-.13-.34-.4-.35-.59-.08-1.06-.51-1.96-1.17-2.78-.22-.27-.4-.62-.36-.99.08-.73-.14-1.31-.71-1.78-.32-.27-.23-.6-.07-.97.28-.66.84-.97,1.44-1.16.87-.26,1.78-.35,2.65.1,0,1.01.21,2,.43,2.98Z"/>
      <path class="cls-17" d="M26.65,84.49c.27-.06.53-.16.8-.19.43-.05.75.12.99.51.24.41.21.78-.07,1.1-.54.63-.99,1.34-1.77,1.75-.6.31-1.12.76-1.69,1.12-.75.46-1.81.41-2.35-.09-.51-.48-.56-1.17-.12-2.1.27-.58.63-1.1,1.1-1.53,1.1,1.03,2.21.82,3.11-.58Z"/>
      <path class="cls-13" d="M30.82,77.61c1.4.05,2.33-.52,2.62-1.95.6.8.4,1.8.69,2.68.08.26.17.52.3.75-.04,1.29-.31,2.5-.95,3.66-.36.65-.72.97-1.45.8-.29-.41-.57-.76-.37-1.39.13-.42-.07-1.01-.27-1.46-.46-1-.48-2.05-.55-3.1Z"/>
      <path class="cls-13" d="M26.65,84.49c-.9,1.4-2.01,1.6-3.11.58-.07-.64.66-1.25.08-1.91,0-.13.01-.26.02-.39.29.03.43-.13.44-.4.02-.8.44-1.47.74-2.17.95.46,1.88.31,2.82-.03.13,1.02-.27,1.93-.59,2.85-.17.48-.38.95-.4,1.47Z"/>
      <path class="cls-17" d="M32.02,83.55c.73.17,1.09-.15,1.45-.8.64-1.16.92-2.37.95-3.66,1.35-.14,1.48-.04,1.76,1.25.35,1.65-.71,3.88-2.13,4.5-1.22.53-2,.03-2.03-1.29Z"/>
      <path class="cls-3" d="M45.19,81.84c.28-1.15,1.04-2.12,1.23-3.31.84.13,1.73-.28,2.52.35.37.3.84.51.79,1.08-.05.58-.48.88-.97,1.08-1.14.47-2.35.65-3.56.8Z"/>
      <path class="cls-10" d="M15.91,65.07c-.1-1.37-.05-2.75-.49-4.09-.12-.37-.2-.78-.18-1.17.09-1.4-.53-2.54-1.24-3.67-.57-.91-.96-1.86-.62-3.07.54.35.73.81.8,1.25.18,1.17.67,2.24,1.31,3.16.73,1.07.82,2.18.88,3.37.05,1.02.2,2.04.3,3.06-.21.41-.25.93-.76,1.15Z"/>
      <path class="cls-2" d="M20.92,50.45c-.48.59-.84,1.4-1.85,1-.33-.49-.68-.98-.41-1.62.41-.98,1.4-1.2,2.42-.5.1.38-.21.73-.16,1.12Z"/>
      <path class="cls-16" d="M9.25,25.55c-.32-1.15.35-2.05.96-2.9.69-.97,1.5-1.85,2.28-2.74.44-.51.61-1.19,1.14-1.66.95-.83,1.84-1.73,3.2-1.87.34-.03.71-.19.99-.39,1.3-.94,2.55-.6,3.79.11.52.3.91.76.64,1.36-.25.54-.65.85-1.44.68-2.03-.45-3.7.19-5.26,1.67-1.37,1.3-2.55,2.78-3.96,4.05-.43.38-.69,1.02-1.15,1.46-.34.32-.66.59-1.19.24Z"/>
      <path class="cls-9" d="M18.49,34.19c-.39-.3-.7-.54-1.07-.82.07-.95.07-1.94.36-2.91.2-.67.04-1.34-.58-1.82-.32-.24-.6-.54-.57-.99.11-2.02.52-4,.84-6.16.44.35.4.64.35.88-.3,1.38-.19,2.77-.25,4.16-.03.65.11,1.26.57,1.63.98.79.75,1.73.33,2.58-.39.8-.5,1.44.07,2.19.33.44.27.49-.04,1.25Z"/>
      <path class="cls-16" d="M8.17,46.13c-.4-.3-.59-.7-.67-1.19-.08-.51-.09-1.07-.32-1.5-1.13-2.13-.67-4.28-.19-6.44.08-.38,0-.8.03-1.19.03-.37-.13-.82.42-1.06.17.6.14,1.2.03,1.76-.4,2.04-.21,4.01.54,5.94.16.42.4.77.66,1.13.62.88.42,1.86-.49,2.56Z"/>
    </g>
    <path class="cls-11" d="M36.31,70.86c-.55-.27-1.09-.58-1.75-.49-.49.07-.76-.33-1.11-.54-.54-.39-1.18-.35-1.8-.44-1.16-.17-1.98-1.27-1.47-2.17.45-.8.33-1.59.43-2.4.61-.76.41-1.72.63-2.58.5-1.95.74-3.97,1.27-5.91.56-2.06.94-4.1.4-6.21.04-1.59-.34-3.16-.19-4.75.03-.28-.03-.57.03-.83.44-1.88.4-3.82.59-5.72.01-.12.08-.26.04-.35-.56-1.03.05-1.82.53-2.64.26-.06.49.04.66.2,1.07.99,2.5.93,3.71.86,1.67-.09,3.37-.27,5.03-.58,1.31,1.04,1.65,1.07,2.83.38.45-.26.79-.66,1.23-.93.29.23.41.55.48.91.26,1.44.62,2.86,1.18,4.23-.03,1.42.03,2.85.28,4.24.23,1.33.22,2.81,1.63,3.62-.05.65.02,1.27.3,1.86.47,1.02.26,2.15.54,3.21.53,1.97.91,3.97,1.48,5.94.35,1.2.75,2.46.65,3.83-.06.86.16,1.77-.03,2.68-.1.48-.31.83-.71,1.03-1.61.84-3.18,1.75-4.9,2.37-1.14-.1-2.28.04-3.42-.24-.5-.13-1.11-.15-1.6.23-.96.02-1.94-.13-2.86.26-1.03.15-2.06.34-3.09.42-.44.03-.7.22-.95.52Z"/>
    <path class="cls-14" d="M2.72,76.29c.07-1.3.53-2.38,1.77-2.95.29-.13.46-.34.54-.58.7-2.25,1.81-4.3,3.08-6.25.67-1.03,1.28-2.1,1.97-3.11.55-.8.64-1.61.49-2.49-.49-2.8-1.06-5.59-1.31-8.43-.06-.72-.28-1.4-.54-2.06,1.13-.4,2.27-.8,3.4-1.21.82,0,1.63.09,2.47-.12,2.36-.57,4.57-1.58,6.88-2.28,1.09.53.97,1.5.9,2.45-.46.41-.79.99-1.44,1.18-.05-.39.26-.74.16-1.12-1.01-.7-2.01-.49-2.42.5-.26.64.08,1.13.41,1.62-.1.12-.21.24-.31.36-1,1.16-.5,2.81.92,3.31.78.28,1.38-.15,2.02-.33.6.94,1.07,2.89.89,3.79-.23,1.16-.47,2.33-.74,3.48-.4,1.7,0,2.8,1.41,3.8.04.53.07,1.05.11,1.58-.02.83-.09,1.66.14,2.5.12.45.13.97.04,1.43-.33,1.67-.57,3.38-1.06,4.99-.37,1.24-.37,2.3,0,3.46.25.76.21,1.49-.47,2.06-1.14-.04-2.16.44-3.17.85-1.1.45-2.12.45-3.14-.16-.43-1.18-.08-2.33.37-3.36.51-1.19.86-2.24.58-3.62-.28-1.4.03-2.9.31-4.34.22-1.12.13-2.29.37-3.42.08-.36.03-.78-.14-1.17-.24-.54-.44-1.08-.18-1.72.14-.35-.08-.75-.38-1.04-.1-1.02-.25-2.04-.3-3.06-.06-1.19-.14-2.31-.88-3.37-.64-.93-1.13-1.99-1.31-3.16-.07-.44-.26-.9-.8-1.25-.35,1.21.05,2.16.62,3.07.7,1.13,1.32,2.27,1.24,3.67-.02.39.06.8.18,1.17.44,1.33.39,2.72.49,4.09.05.87-.28,1.54-.85,2.24-.91,1.13-1.57,2.45-2.39,3.66-.7,1.03-1.32,2.12-2.22,3-.5.48-.79.99-.42,1.69.64,1.19.47,2.19-.66,3.02-.38.28-.68.67-1.14.84-.47.06-.96.11-1.38-.14-1.48-.88-3.16-1.51-4.13-3.09Z"/>
    <path class="cls-6" d="M21.46,46.82c-2.31.7-4.52,1.71-6.88,2.28-.84.2-1.64.11-2.47.12.6-.73,1.01-1.54.92-2.5-.17-1.83,1.3-3.15,1.48-4.87.02-.15.28-.26.41-.41.91-1.1,1.95-2.1,2.66-3.36.47-.82.27-1.42-.55-1.69-.5-.17-.8.11-1.01.43-.63.95-1.58,1.65-2.1,2.7-.19.37-.47.74-.96.86-.37-.39-.7-.79-.87-1.28-.8-2.25-1.28-4.55-1.5-6.94-.14-1.57-.18-3.15-.58-4.71-.27-1.05-.8-1.58-1.72-1.91-.57-.2-1.14-.33-1.75-.3.82-1.62.81-3.44,1.2-5.16.44-1.95,1.01-3.82,2.33-5.36.44-.51.73-1.12,1.25-1.58.69-.61,1.31-1.21,2.28-1.42.61-.14,1.28-.45,1.61-1.11.49.37.99.7,1.65.52.25.4.51.8.75,1.2.54.9,1.27,1.39,2.36,1.14,1.75,1.07,2.47,2.84,3.09,4.65.15.45.28.89.54,1.3.28.43.47.93.45,1.46-.04,1.1.13,2.2.16,3.29.04,1.58-.57,3.01-.47,4.7.64.55,1.24,1.33,1.05,2.45-.03.16,0,.34-.06.47-.49.98-.84,1.99-.8,3.12.02.61-.35,1.13-.62,1.65-.86-.45-1.77-.37-2.65-.1-.6.18-1.15.5-1.44,1.16-.16.37-.25.7.07.97.57.48.79,1.05.71,1.78-.04.37.14.72.36.99.66.82,1.09,1.71,1.17,2.78.01.19.12.46.35.59.05.74.12,1.48-.42,2.11ZM9.25,25.55c.53.35.85.09,1.19-.24.46-.44.72-1.07,1.15-1.46,1.41-1.26,2.59-2.74,3.96-4.05,1.56-1.48,3.22-2.12,5.26-1.67.79.18,1.19-.13,1.44-.68.27-.6-.12-1.05-.64-1.36-1.24-.72-2.48-1.05-3.79-.11-.28.2-.65.36-.99.39-1.36.14-2.25,1.04-3.2,1.87-.54.47-.7,1.15-1.14,1.66-.78.9-1.59,1.78-2.28,2.74-.61.85-1.28,1.74-.96,2.9ZM18.49,34.19c.3-.76.37-.81.04-1.25-.56-.75-.46-1.39-.07-2.19.42-.86.65-1.79-.33-2.58-.46-.37-.6-.98-.57-1.63.06-1.39-.05-2.79.25-4.16.05-.24.09-.53-.35-.88-.31,2.16-.73,4.14-.84,6.16-.02.45.25.75.57.99.63.48.78,1.14.58,1.82-.29.98-.29,1.96-.36,2.91.37.28.68.52,1.07.82Z"/>
    <path class="cls-8" d="M47.35,35.76c-.44.27-.77.66-1.23.93-1.18.69-1.52.67-2.83-.38-1.66.32-3.36.49-5.03.58-1.21.07-2.64.13-3.71-.86-.17-.16-.4-.26-.66-.2-.72-.04-1.38.38-2.11.25-.31-.06-.64-.02-.86-.32-.46-.65-1.07-1.24-1.34-1.96-.36-.95-.68-1.92-.73-2.98-.1-1.87.15-3.7.25-5.55.07-1.43-.23-2.83-.42-4.24-.04-.28-.12-.59-.03-.83.56-1.55,1.03-3.17,2.35-4.31.01.64,0,1.27.03,1.9.05,1.33.77,2.3,1.84,2.4,1.43.14,2.79-.56,2.97-1.89.08-.55.28-1.09.66-1.5,1.28-1.4,2.56-2.79,4.58-3.11.52.29,1,.27,1.44-.17.73.79,1.75,1.18,2.6,1.83,1.61,1.22,2.3,2.62,2.14,4.67-.21,2.5-.08,5.01.53,7.48.12.47.22.84.76.92-.22.28-.46.55-.67.84-.92,1.3-.71,2.19.7,3-.41.62-.28,1.26-.06,1.9-.33.58-.98.93-1.16,1.62Z"/>
    <path class="cls-16" d="M6.54,25.22c.61-.03,1.18.1,1.75.3.91.33,1.44.85,1.72,1.91.41,1.56.44,3.15.58,4.71.22,2.39.7,4.69,1.5,6.94.17.49.5.89.87,1.28.5-.12.78-.49.96-.86.52-1.05,1.47-1.74,2.1-2.7.21-.32.51-.59,1.01-.43.82.27,1.02.87.55,1.69-.72,1.26-1.76,2.25-2.66,3.36-.12.15-.39.26-.41.41-.19,1.72-1.66,3.04-1.48,4.87.09.97-.32,1.78-.92,2.5-1.13.4-2.27.8-3.4,1.21-.12,0-.25-.03-.36.02-1.91.84-3.7.37-5.47-.47-.59-.28-1.11-.58-1.44-1.17-.89-1.56-1.52-3.08-1.23-5.03.23-1.53.16-3.19.01-4.78-.04-.46.01-.88.1-1.27.34-1.55-.21-3.22.66-4.72.18-.3.24-.83.17-1.15-.3-1.21.4-1.99,1.07-2.76,1.03-1.19,2.03-2.42,3.21-3.48.33-.29.7-.35,1.1-.38ZM8.17,46.13c.92-.71,1.11-1.69.49-2.56-.25-.36-.5-.71-.66-1.13-.75-1.93-.94-3.9-.54-5.94.11-.56.13-1.16-.03-1.76-.55.24-.39.69-.42,1.06-.03.4.05.81-.03,1.19-.48,2.17-.94,4.31.19,6.44.23.44.24,1,.32,1.5.08.49.27.9.67,1.19Z"/>
    <path class="cls-12" d="M20.92,50.45c.65-.19.97-.77,1.44-1.18.72-.23,1.35-.56,1.48-1.41.19.14.4.26.58.41,1.05.83,2.72.97,3.78.23.88-.6,1.71-1.28,2.56-1.93.93,1.05,1.36,2.41,2.14,3.55.54,2.11.17,4.15-.4,6.21-.53,1.94-.77,3.96-1.27,5.91-.22.86-.02,1.82-.63,2.58-.52.19-1,.52-1.58.5-1.94-.08-3.82.54-5.76.54-1.42-1-1.82-2.09-1.41-3.8.27-1.15.51-2.32.74-3.48.18-.9-.29-2.85-.89-3.79-.65.18-1.24.61-2.02.33-1.43-.5-1.93-2.16-.92-3.31.1-.12.21-.24.31-.36,1.01.4,1.37-.41,1.85-1Z"/>
    <path class="cls-7" d="M41.08,13.68c-2.01.32-3.3,1.72-4.58,3.11-.38.42-.58.96-.66,1.5-.18,1.33-1.54,2.03-2.97,1.89-1.07-.1-1.79-1.07-1.84-2.4-.02-.63-.02-1.27-.03-1.9.06-.35.15-.67.38-.98.54-.74.95-1.53.87-2.52-.06-.68.43-1.24.67-1.85.65-1.71.69-3.55.92-5.34.24-1.84.95-2.68,2.8-3.08.44-.09.9-.14,1.26-.58.47-.59,1.16-.66,1.92-.57,2.24.26,3.6,1.85,3.43,4.11-.73.34-1.36.87-1.09,1.71.33,1.05,0,1.82-.62,2.59-.2.25-.39.51-.19.92.57,1.17.54,2.32-.27,3.4Z"/>
    <path class="cls-13" d="M43.22,69.66c.49-.38,1.1-.36,1.6-.23,1.14.29,2.28.14,3.42.24.44,2-.57,3.7-1.1,5.51-.32,1.09-.59,2.21-.73,3.35-.19,1.19-.95,2.16-1.23,3.31-1.07,1-1.32,2.37-1.69,3.69-.14.07-.28.15-.42.22-1.51.74-3.87-.33-3.63-2.2.07-.57-.26-1.1-.19-1.71.04-.34-.14-.99-.81-.48-.23-.17-.13-.35,0-.5.32-.4.13-.77.04-1.21-.53-2.59-1.62-5.02-2.12-7.61-.07-.39-.05-.79-.07-1.19.25-.3.51-.49.95-.52,1.04-.08,2.06-.27,3.09-.42.35.85.49,1.73.53,2.65.04.94.14,1.88.53,2.98.2-.42.31-.59.37-.77.6-1.67.94-3.42,1.44-5.12Z"/>
    <path class="cls-15" d="M23.27,65.86c1.94,0,3.81-.62,5.76-.54.58.02,1.06-.31,1.58-.5-.09.8.02,1.6-.43,2.4-.51.9.31,2,1.47,2.17.62.09,1.26.04,1.8.44,0,1.94,0,3.89-.01,5.83-.29,1.43-1.22,2-2.62,1.95q-.81-.7-1-1.97c-.45.63-.91,1.24-1.22,1.98-.35.84-.4,1.79-.97,2.54-.94.34-1.87.5-2.82.03-.47-.58-1.04-1.15-.9-1.98.13-.77.28-1.55.6-2.28.52-1.19,1.01-2.41.72-3.75-.2-.93-.47-1.83-.68-2.76-.18-.8-.52-1.48-1.18-1.99-.04-.53-.07-1.05-.11-1.58Z"/>
    <path class="cls-4" d="M48.51,34.14c-.22-.64-.36-1.28.06-1.9.22-.07.52-.26.64-.18.66.43,1.05-.12,1.52-.36.57-.04.86.3,1.06.78.47,1.14,1.23,2.1,1.91,3.13,1.95,2.96,3.25,6.22,3.88,9.72.17.93-.81,2.66-1.67,3.09-1.3.64-2.65.81-4.05.43-.32-.09-.63-.06-.95-.08-1.41-.82-1.39-2.3-1.63-3.62-.25-1.4-.31-2.82-.28-4.24,0-.59.05-1.19.02-1.78-.03-.55.2-1.16-.14-1.62-.34-.47-.33-.95-.33-1.46,0-.63-.02-1.26-.04-1.9ZM52.32,37.53c-.14-.77-1.82-3.97-2.38-4.47.29,1.66.22,3.3.87,4.84.58.12,1.1.12,1.51-.37Z"/>
    <path class="cls-7" d="M30.76,46.58c-.85.65-1.68,1.33-2.56,1.93-1.07.73-2.74.59-3.78-.23-.19-.15-.39-.27-.58-.41-.36-.5-.84-.96-.85-1.63-.01-.63-.21-1.21-.36-1.81.01-.59.37-1.14.24-1.73-.26-1.22.33-2.18.87-3.17.62-.5,1.32-.64,2.12-.53,1,.14,2.01.14,3,.41.78.21,1.41.57,1.76,1.27.36.73.64,1.51.87,2.29.4,1.32.29,2.57-.73,3.62Z"/>
    <path class="cls-7" d="M16.85,11.11c-.66.17-1.16-.15-1.65-.52-.45-.84-.9-1.67-1.68-2.29-.38-.31-.59-.76-.52-1.28.18-1.25.36-2.5,1.38-3.42.83-.74,1.65-1.5,2.21-2.46.58-.99,1.6-.96,2.5-1.07.93-.11,1.92-.18,2.8.33.3.17.63.07.94.1,1.74.2,2.26,1.3,1.31,2.78-1.19.63-2.55,1.05-3,2.56-1.13-.85-1.35-.91-2-.56-1.08.58-1.18,1.57-.14,2.64.57.59.63,1.14.29,1.8-.34.65-.74,1.28-1.63,1.08-.38-.09-.61.04-.82.31Z"/>
    <path class="cls-13" d="M16.85,11.11c.21-.27.44-.4.82-.31.89.2,1.29-.42,1.63-1.08.34-.66.28-1.21-.29-1.8-1.04-1.06-.93-2.06.14-2.64.64-.35.87-.29,2,.56.45-1.51,1.81-1.93,3-2.56.17.38.52.59.79.87.85.89,1.31,1.88.86,3.13-.18.5-.14,1.03,0,1.53.32,1.13-.17,1.92-1,2.57-.79.62-1.65.69-2.56.24-.17-.08-.34-.16-.56-.26-.42.84-.93,1.58-1.73,2.08-1.09.24-1.83-.24-2.36-1.14-.24-.41-.5-.8-.75-1.2Z"/>
    <path class="cls-5" d="M2.72,76.29c.97,1.58,2.65,2.21,4.13,3.09.42.25.91.19,1.38.14.38,1.27,1.03,2.38,1.88,3.4.32.39.53.88.75,1.35.59,1.23,0,2.09-1.37,1.9-.89-.12-1.75-.32-2.57-.84-1.24-.79-2.44-1.57-3.52-2.6-.63-.6-1.56-.89-2.35-1.34-1.19-.67-1.37-1.29-.54-2.37.71-.93,1.55-1.76,2.21-2.73Z"/>
    <path class="cls-1" d="M38.45,81.37c.66-.52.85.14.81.48-.07.61.27,1.14.19,1.71-.24,1.87,2.12,2.94,3.63,2.2.14-.07.28-.15.42-.22.59.71,1.41,1.12,2.18,1.57.77.46,1.36,1.09,1.92,1.76.25.3.43.64.49,1.06.18,1.24-.28,1.87-1.52,1.75-1.17-.11-2.28-.54-3.36-1.05-1.54-.73-2.85-1.94-4.67-2.13-.62-.06-1.29-.39-1.73-.96-.86-1.12-.91-1.92.05-2.97.86-.93,1.26-2.04,1.6-3.2Z"/>
    <path class="cls-5" d="M15.73,82.58c1.02.6,2.04.6,3.14.16,1.01-.41,2.03-.89,3.17-.85.69.01,1.38.02,1.59.89,0,.13-.01.26-.02.39-.17,1.65-1.35,2.32-2.67,2.97-1.43.7-2.87,1.14-4.47,1.05-1.29-.07-1.82-.73-1.68-2.04.1-.95.65-1.7.94-2.56Z"/>
    <path class="cls-13" d="M50.73,31.69c-.47.25-.85.79-1.52.36-.12-.08-.42.11-.64.18-1.41-.81-1.62-1.7-.7-3,.21-.29.45-.56.67-.84.46-.26.79-.6.98-1.13.38-1.05,1.17-1.57,2.29-1.52,1.08.05,1.85.66,2.37,1.55.37.63.08,1.44-.61,2.13-.87.86-1.77,1.68-2.85,2.27Z"/>
    <path class="cls-13" d="M41.08,13.68c.8-1.08.83-2.23.27-3.4-.2-.41-.01-.67.19-.92.62-.77.95-1.54.62-2.59-.26-.84.36-1.37,1.09-1.71.62-.35.98-.1,1.35.45,1.47,2.17,1.36,4.87-.18,6.83-.56.72-1.06,1.12-1.91,1.16-.43.44-.92.46-1.44.17Z"/>
    <path class="cls-13" d="M23.74,39.52c-.54.99-1.13,1.95-.87,3.17.13.59-.23,1.14-.24,1.73-.22.18-.46.28-.74.29-.23-.13-.34-.4-.35-.59-.08-1.06-.51-1.96-1.17-2.78-.22-.27-.4-.62-.36-.99.08-.73-.14-1.31-.71-1.78-.32-.27-.23-.6-.07-.97.28-.66.84-.97,1.44-1.16.87-.26,1.78-.35,2.65.1,0,1.01.21,2,.43,2.98Z"/>
    <path class="cls-17" d="M26.65,84.49c.27-.06.53-.16.8-.19.43-.05.75.12.99.51.24.41.21.78-.07,1.1-.54.63-.99,1.34-1.77,1.75-.6.31-1.12.76-1.69,1.12-.75.46-1.81.41-2.35-.09-.51-.48-.56-1.17-.12-2.1.27-.58.63-1.1,1.1-1.53,1.1,1.03,2.21.82,3.11-.58Z"/>
    <path class="cls-13" d="M30.82,77.61c1.4.05,2.33-.52,2.62-1.95.6.8.4,1.8.69,2.68.08.26.17.52.3.75-.04,1.29-.31,2.5-.95,3.66-.36.65-.72.97-1.45.8-.29-.41-.57-.76-.37-1.39.13-.42-.07-1.01-.27-1.46-.46-1-.48-2.05-.55-3.1Z"/>
    <path class="cls-13" d="M26.65,84.49c-.9,1.4-2.01,1.6-3.11.58-.07-.64.66-1.25.08-1.91,0-.13.01-.26.02-.39.29.03.43-.13.44-.4.02-.8.44-1.47.74-2.17.95.46,1.88.31,2.82-.03.13,1.02-.27,1.93-.59,2.85-.17.48-.38.95-.4,1.47Z"/>
    <path class="cls-17" d="M32.02,83.55c.73.17,1.09-.15,1.45-.8.64-1.16.92-2.37.95-3.66,1.35-.14,1.48-.04,1.76,1.25.35,1.65-.71,3.88-2.13,4.5-1.22.53-2,.03-2.03-1.29Z"/>
    <path class="cls-3" d="M45.19,81.84c.28-1.15,1.04-2.12,1.23-3.31.84.13,1.73-.28,2.52.35.37.3.84.51.79,1.08-.05.58-.48.88-.97,1.08-1.14.47-2.35.65-3.56.8Z"/>
    <path class="cls-10" d="M15.91,65.07c-.1-1.37-.05-2.75-.49-4.09-.12-.37-.2-.78-.18-1.17.09-1.4-.53-2.54-1.24-3.67-.57-.91-.96-1.86-.62-3.07.54.35.73.81.8,1.25.18,1.17.67,2.24,1.31,3.16.73,1.07.82,2.18.88,3.37.05,1.02.2,2.04.3,3.06-.21.41-.25.93-.76,1.15Z"/>
    <path class="cls-2" d="M20.92,50.45c-.48.59-.84,1.4-1.85,1-.33-.49-.68-.98-.41-1.62.41-.98,1.4-1.2,2.42-.5.1.38-.21.73-.16,1.12Z"/>
    <path class="cls-16" d="M9.25,25.55c-.32-1.15.35-2.05.96-2.9.69-.97,1.5-1.85,2.28-2.74.44-.51.61-1.19,1.14-1.66.95-.83,1.84-1.73,3.2-1.87.34-.03.71-.19.99-.39,1.3-.94,2.55-.6,3.79.11.52.3.91.76.64,1.36-.25.54-.65.85-1.44.68-2.03-.45-3.7.19-5.26,1.67-1.37,1.3-2.55,2.78-3.96,4.05-.43.38-.69,1.02-1.15,1.46-.34.32-.66.59-1.19.24Z"/>
    <path class="cls-9" d="M18.49,34.19c-.39-.3-.7-.54-1.07-.82.07-.95.07-1.94.36-2.91.2-.67.04-1.34-.58-1.82-.32-.24-.6-.54-.57-.99.11-2.02.52-4,.84-6.16.44.35.4.64.35.88-.3,1.38-.19,2.77-.25,4.16-.03.65.11,1.26.57,1.63.98.79.75,1.73.33,2.58-.39.8-.5,1.44.07,2.19.33.44.27.49-.04,1.25Z"/>
    <path class="cls-16" d="M8.17,46.13c-.4-.3-.59-.7-.67-1.19-.08-.51-.09-1.07-.32-1.5-1.13-2.13-.67-4.28-.19-6.44.08-.38,0-.8.03-1.19.03-.37-.13-.82.42-1.06.17.6.14,1.2.03,1.76-.4,2.04-.21,4.01.54,5.94.16.42.4.77.66,1.13.62.88.42,1.86-.49,2.56Z"/>
  </g>
</svg>