<?xml version="1.0" encoding="UTF-8"?>
<svg id="_レイヤー_2" data-name="レイヤー 2" xmlns="http://www.w3.org/2000/svg" viewBox="0 0 107.89 74.06">
  <defs>
    <style>
      .cls-1 {
        fill: #da6599;
      }

      .cls-2 {
        fill: #63a8a5;
      }

      .cls-3 {
        fill: #e2d7b0;
      }

      .cls-4 {
        fill: #b6b6b6;
      }

      .cls-5 {
        fill: #faf8f9;
      }

      .cls-6 {
        fill: #231815;
      }

      .cls-7 {
        fill: #717171;
      }

      .cls-8 {
        fill: #3e3a39;
      }

      .cls-9 {
        fill: #d6154c;
      }

      .cls-10 {
        fill: #a5927c;
      }

      .cls-11 {
        fill: #4b86c2;
      }

      .cls-12 {
        fill: #f3d44d;
      }

      .cls-13 {
        fill: #efb354;
      }

      .cls-14 {
        fill: #717070;
      }

      .cls-15 {
        fill: #e27c93;
      }

      .cls-16 {
        fill: #b6b5b6;
      }

      .cls-17 {
        fill: #6d8444;
      }

      .cls-18 {
        fill: #4c86c2;
      }

      .cls-19 {
        fill: #4c86c3;
      }
    </style>
  </defs>
  <g id="_レイヤー_1-2" data-name="レイヤー 1">
    <g>
      <path class="cls-2" d="M91.84,45.26c-1.23-.15-2.44.08-3.65.29-.53.22-1.11.27-1.64.14-1.01-.24-2.02-.13-3.03-.21-.14-.15-.32-.23-.53-.24-1.75-.09-2.23-1.77-1.7-3.06.33-.8.63-1.63.83-2.48.22-.92.78-1.76.6-2.76-.28-1.53.12-2.98.51-4.43.58-.12.95.35,1.43.52,1.61.57,3.27.41,4.91.49.82.04,1.6.27,2.47.13,1.98-.31,3.68-1.16,5.28-2.29.8,2.6,1.72,5.17,1.72,7.94,0,.28,0,.57.08.83.59,1.78-.2,3-1.56,4.01-.25.19-.57.3-.75.58-1.4.12-2.8.4-4.22.28-.29-.02-.53.12-.77.26Z"/>
      <path class="cls-3" d="M77.01,18.86c-.1-.66.07-1.35-.23-1.99-.06-.13-.07-.36,0-.46.67-.89.88-2.13,2.01-2.67.43-.2.86-.42,1.06-.89.25.13.53.21.73.39,1.24,1.13,2.63,1.46,4.28,1.06,1.63-.39,3.26-2.03,3.41-3.64.29.13.13.54.45.72,2.1-.12,3.66,1.18,5.25,2.32.69.49.94,1.34,1.06,2.19.14.99.62,1.97.11,2.98-1.13.48-2.29.82-3.55,1.04.14.94.65,1.68.84,2.52.17.74-.16,1.46-.8,1.43-1.61-.08-3.15.29-4.73.47-.99.11-1.96.23-2.91.53-.42.13-.83.29-1.28.23-.28-.61-.91-.98-1.15-1.61-.46-1.2-1.11-2.3-1.72-3.42-.12-.27-.32-.42-.61-.5-.75-.21-1.49-.45-2.24-.69Z"/>
      <path class="cls-1" d="M89.82,66.34c-.3-.03-.51.11-.76.26-.88.54-1.79,1.01-2.78,1.31-1.29.4-2.44,1.07-3.61,1.73-.9.51-1.85.78-2.92.82-1.62.06-2.49-.61-3.4-2.38-.34-.14-.69-.01-1.05-.02-.69-.69-1.5-.85-2.41-.52.15-3.05.74-6.05,1.11-9.07.28-2.25.6-4.49.86-6.74.17-1.48.33-2.97.53-4.44.21-1.55.64-3.08.64-4.68,0-1.41.42-2.8.54-4.22.11-1.39.34-2.77.46-4.17.09-1.03.4-2.07.56-3.12.19-1.29.25-2.59.56-3.86.11-.44-.21-.65-.62-.7-.44-.05-.88-.07-1.31.02-.48-.3-1.2-.26-1.37-1,.13-.68.54-.99,1.25-.95.43.03.87,0,1.31,0,.53.08,1.06.14,1.6.16,1.09.05,2.27,0,3.26.65-.01.45,0,.9-.49,1.15-.61.1-1.22.3-1.94.04-1.74,13.32-3.48,26.59-5.22,39.91.33-.09.59-.16.85-.23,1.61-.41,2.14-.11,2.7,1.5.19.55.54.63,1.02.36,1.51.22,2.85-.18,3.89-1.26.58-.6,1.21-1.01,1.98-1.21.6-.16,1.08-.45,1.45-.95.2-.02.41-.02.46-.29,1.13-.72,2.3-1.38,3.64-1.64,0,.68.33,1.08,1.01,1.18.19.82-.37,1.23-.9,1.65-.5,0-.72.34-.9.73Z"/>
      <path class="cls-3" d="M97.33,31.36c-1.6,1.13-3.3,1.98-5.28,2.29-.87.14-1.65-.09-2.47-.13-1.64-.08-3.3.08-4.91-.49-.48-.17-.85-.64-1.43-.52-.63-1.21-.52-2.38.16-3.53,1.51.3,2.67-.13,3.4-1.57.29-.56.94-.9,1.5-.78,1.22.26,2.43-.02,3.63.13,1.11.14,2.1-.29,3.02-.85.24-.14.42-.36.73-.34.95.5.89,1.61,1.43,2.36.12.16.11.43.25.64.83,1.19.82,1.58-.03,2.8Z"/>
      <path class="cls-8" d="M78.89,10.71c-.48-.04-1-.03-.96-.75,0-.1-.05-.27-.13-.31-.6-.35-.97-1.03-.94-1.55.06-1.05.12-2.25.92-3.03.94-.93,1.58-2.14,2.98-2.66,1.57-.58,3.01-.78,4.46.13.27.17.44.21.75.12.63-.19,1.15.09,1.61.53,1.4,1.32,2.23,2.95,2.54,4.84.14.86-.39,1.73-1.33,2.21-.18.09-.36.16-.54.24-.6-.1-.93-.56-1.31-.96-.26-.28-.53-.82-.89-.72-1.03.29-1.72-.34-2.49-.8-1.11,1.02-2.35,1.66-3.84,1.74-.24.36-.43.75-.83.97Z"/>
      <path class="cls-13" d="M83.52,45.48c1.01.08,2.02-.03,3.03.21.53.12,1.11.08,1.64-.14.04,2.07.1,4.15.1,6.22,0,.37,0,.78-.18,1.16-.68,1.43-.68,3-.82,4.54-.36.35-.17.79-.18,1.19-.51.73-.75,1.51-.56,2.43.09.46,0,.95,0,1.43-.39.27-.77.56-1.18.8-1.28.75-2.09.44-2.64-1,.53-1.12.93-2.25.57-3.51-.13-.46-.13-.94-.11-1.42.09-3.02,0-6.05.25-9.06.08-.94-.08-1.9.09-2.85Z"/>
      <path class="cls-13" d="M91.84,45.26c.24-.14.48-.28.77-.26,1.42.12,2.81-.16,4.22-.28,1.29,1.32,2.68,2.54,3.67,4.12.12.19.28.28.44.37,1.76.97,2.66,2.6,3.42,4.37.37.86.83,1.71,1.41,2.46.04.11.08.22.13.33.45.93.4,1.3-.19,1.79-.62.51-1.09.21-1.57-.23-.14-.13-.35-.17-.53-.26-.58-.63-1.29-1.18-1.8-1.79-.95-1.15-2.2-1.92-3.18-3.01-.62-.68-1.33-1.18-2.21-1.53-1.17-.46-2.23-1.27-2.9-2.27-.77-1.13-1.76-2.27-1.69-3.82Z"/>
      <path class="cls-13" d="M95.68,25.56c-.31-.02-.5.2-.73.34-.93.56-1.91.99-3.02.85-1.21-.15-2.41.13-3.63-.13-.55-.12-1.21.22-1.5.78-.74,1.44-1.89,1.87-3.4,1.57-.92-.55-1.59-1.27-1.61-2.42.48-.25.48-.7.49-1.15l.46-.32c.45.06.86-.1,1.28-.23.95-.3,1.92-.42,2.91-.53,1.57-.17,3.12-.55,4.73-.47.64.03.97-.69.8-1.43-.19-.84-.7-1.59-.84-2.52,1.26-.22,2.43-.56,3.55-1.04.91,1.72.86,3.61.92,5.48.01.4-.26.81-.39,1.22Z"/>
      <path class="cls-13" d="M78.89,10.71c.4-.22.6-.62.83-.97,1.49-.09,2.73-.73,3.84-1.74.78.47,1.46,1.1,2.49.8.36-.1.62.44.89.72.38.41.71.86,1.31.96,0,.06,0,.13.02.19-.15,1.61-1.79,3.25-3.41,3.64-1.65.4-3.04.06-4.28-1.06-.2-.18-.49-.26-.73-.39-.55-.61-.74-1.38-.96-2.14Z"/>
      <path class="cls-13" d="M77.42,24.59c-.44,0-.87.03-1.31,0-.71-.04-1.12.27-1.25.95.18.73.89.7,1.37,1-.54,1.53-2.4,2.42-3.9,1.85-.73-.28-1.85-2.66-1.53-3.38.34-.76.98-1.2,1.81-1.34,1.2-.2,2.15-.94,3.11-1.6.65-.45.62-1.33.74-2.05.08-.47.29-.8.54-1.15.74.23,1.48.48,2.24.69.3.08.49.23.61.5,0,.46-.12.89-.04,1.38.19,1.21-.39,2.05-1.55,2.56-.32.14-.68.24-.84.61Z"/>
      <path class="cls-17" d="M103.62,57.67c.18.08.39.13.53.26.48.44.95.74,1.57.23.59-.49.64-.86.19-1.79-.05-.11-.09-.22-.13-.33.63-.03,1.12.34,1.64.61.31.16.53.47.47.89-.1.75-1.97,5.84-2.35,6.44-.59.94-1.52,1.26-2.5,1.39-1.07.14-2.06-1.2-1.63-2.21.42-1,.94-1.96,1.46-2.91.45-.81.41-1.75.75-2.58Z"/>
      <path class="cls-14" d="M72.9,67.53c.91-.32,1.72-.16,2.41.52,1.37,2.26.37,4.14-1.31,5.44-.72.56-1.62.64-2.49.51-.56-.08-.81-.61-.96-1.09-.65-2.06-.47-3.75,1.83-5.11.17-.1.35-.18.52-.27ZM72.73,71.88c1.21-.65,1.55-1.53.96-2.37-.76.55-1.03,1.18-.96,2.37Z"/>
      <path class="cls-17" d="M82.72,62.32c.55,1.43,1.36,1.74,2.64,1,.41-.24.78-.53,1.18-.8.03.41.07.81.1,1.22-.04.32-.09.65-.13.97-.36.5-.85.79-1.45.95-.77.2-1.4.62-1.98,1.21-1.04,1.08-2.39,1.48-3.89,1.26-.88-.97-1.01-1.52-.51-2.41.31-.56.69-1.11,1.25-1.42,1.01-.55,1.83-1.35,2.78-1.98Z"/>
      <path class="cls-7" d="M91.63,63.96c-.68-.1-1.01-.5-1.01-1.18.51-.83,1.17-1.37,2.24-1.29.92.07,1.56.52,1.71,1.37.16.93.32,1.96-.18,2.84-.44.78-.94,1.53-1.68,2.12-.67.54-1.26.51-1.95.17-.7-.34-1.17-.79-.94-1.65.18-.39.4-.74.9-.73.65.24,1.3.42,1.71-.36.3-.57.7-1.19-.14-1.74-.23.16-.45.31-.67.46Z"/>
      <path class="cls-5" d="M91.63,63.96c.22-.15.44-.3.67-.46.84.55.43,1.17.14,1.74-.41.79-1.06.61-1.71.36.54-.42,1.09-.83.9-1.65Z"/>
    </g>
    <g>
      <path class="cls-11" d="M36.22,17.79c.37-.72.89-1.38,1.62-1.65,1.39-.51,2.12-1.55,2.7-2.8.45-.98,1.03-1.79,2.13-2.25.76-.32,1.53-.58,2.29-.88.27.05.55.1.82.15.64.11,1.11.37,1.11,1.14,0,.67.38.99,1.03,1.05.75.06,1.49.26,2.31-.05.23-.17.17-.63.51-.82.26-.04.55-.27.79-.04.6.59,1.41.68,2.13.98,1.98.82,3.94,1.72,4.98,3.8.23.46.41.95.68,1.39,1.35,2.18,1.17,4.44.36,6.74-.44,1.23-1.29,2.26-1.79,3.46-.52,1.27-1.53,1.76-2.85,1.73q-1.03-.45-2.2-1.93c-.94.2-2.23-.34-2.54,1.23-.69.85-1.53,1.16-2.63.92-.77-.17-1.56-.28-2.37-.14-.51.09-1.04.01-1.46-.36-.43-.38-.93-.4-1.46-.37-1.35-.45-1.73-1.24-1.15-2.4.13-.26.37-.41.56-.61.64-.68,1.38-1.32,1.51-2.32.19-1.41.49-2.78,1.04-4.11.12-.29.21-.73-.04-1.03-.38-.45-.42-1.06-.72-1.51-.42.12-.4.45-.54.68-1.1,1.86-4.25,2.88-6.29,2.03-.68-.54-.44-1.32-.54-2.01ZM56.12,21.2c.26-1.12-.3-2.05-1.42-2.63-.21.82.22,1.6.1,2.4-.12.82-.22,1.64-.36,2.7,1.31-.54,1.49-1.6,1.68-2.47Z"/>
      <path class="cls-12" d="M50.31,29.01c-.69.85-1.53,1.16-2.63.92-.77-.17-1.56-.28-2.37-.14-.51.09-1.04.01-1.46-.36-.43-.38-.93-.4-1.46-.37.21.98-.26,1.85-.54,2.72-.65,2.01-1.74,3.76-3.26,5.26-1.34,1.32-2.17,3.01-2.93,4.71-.32.72-.4,1.55-.51,2.32-.24,1.61-.54,3.18-1.23,4.66-.32.7-.12,1.31.26,1.91.9.86,2.04,1.06,3.22,1.16.97-.43,1.37-1.33,1.58-2.24.11-.49.22-.91.59-1.22.65-.55.96-1.28,1.01-2.1.04-.59.32-1.03.57-1.53.8-1.57,2.06-2.78,3.1-4.17.41-.55,1.14-.85,1.75-1.28.76,1.04,1.4,2.21,2.05,3.38,1.04,1.88,2.81,2.81,4.68,3.66,1.09.49,2.33.64,3.27,1.5.52.47,1.31.28,1.96.44,1.58-.28,2.43-1.29,2.79-2.79.04-.15.06-.31.2-.41.24-1.07.15-1.13-.72-1.5-1.22-.51-2.62-.56-3.7-1.49-1.14-.98-2.21-2.05-3.08-3.23-.73-1-.91-2.37-.75-3.65.13-1.02.08-1.97-.34-2.9-.7-.15-1.35-.33-1.64-1.12-.25-.7-.53-1.38-.41-2.15Z"/>
      <path class="cls-6" d="M50.84,11.2c1.6,0,2.66-1.35,3.25-3.16.83-2.53-.28-4.23-2.24-6.14-.81-.79-1.88-1.12-2.79-1.72-.66-.44-1.37.11-2.08-.08-.63-.16-1.34-.04-1.73.7-.1.19-.37.3-.56.44-1.21.92-1.39,1.67-.74,3.01.39.89.93,1.64,1.99,1.93.66-.56,1.25-.38,1.79.25.2.24.46.44.72.61.59.39,1.25.55,1.91.27,1.07-.45,1.06-.49,1.85.42,0,.54-.07,1.05-.64,1.29-.26.11-.34.33-.33.58.01.57-.31,1.05-.37,1.6Z"/>
      <path class="cls-13" d="M50.84,11.2c.06-.55.39-1.03.37-1.6,0-.24.07-.47.33-.58.58-.24.64-.75.64-1.29-.79-.91-.78-.87-1.85-.42-.66.28-1.32.11-1.91-.27-.26-.17-.51-.37-.72-.61-.54-.63-1.13-.81-1.79-.25-1.05-.3-1.6-1.04-1.99-1.93-.51.5-.93,1.07-1.17,1.75-.47,1.36-.07,2.46,1.03,3.36.37.3.73.61,1.14.84.27.05.55.1.82.15.64.11,1.11.37,1.11,1.14,0,.67.38.99,1.03,1.05.75.06,1.49.26,2.31-.05.23-.17.17-.63.51-.82.03-.16.06-.31.1-.47Z"/>
      <path class="cls-10" d="M60.95,45.05c-.14.1-.17.25-.2.41-.36,1.5-1.21,2.51-2.79,2.79.02.52-.25.87-.57,1.26-.69.85-.66,2.27-.02,3.01.7.82,1.72.89,2.36.05.45-.59.96-1.14,1.41-1.73.89-1.18,1.04-2.65,1.34-4.03.2-.92-.25-1.33-1.53-1.75Z"/>
      <path class="cls-10" d="M37.39,51.81c-1.17-.1-2.31-.3-3.22-1.16-.66.22-1.31-.1-1.97-.04-.87.09-1.65.59-1.8,1.29-.12.54.32,1.4,1.02,1.74,1.39.68,2.91.81,4.41.77,1.1-.03,1.8-1.37,1.56-2.61Z"/>
      <path class="cls-13" d="M36.76,19.8c-.68-.54-.44-1.32-.54-2.01-.58-.36-1.17-.74-1.86-.74-.76,0-1.53.13-1.99.85-.53.84-.2,1.7.12,2.51.4,1.01,1.24,1.44,2.3,1.5.72.04,1.56-.51,1.83-1.29.09-.26.09-.55.14-.83Z"/>
      <path class="cls-13" d="M50.31,29.01c-.12.77.15,1.45.41,2.15.28.79.94.97,1.64,1.12,1.34.08,1.96-.32,2.39-1.55.12-.33.33-.64.3-1.01q-1.03-.45-2.2-1.93c-.94.2-2.23-.34-2.54,1.23Z"/>
    </g>
    <g>
      <path class="cls-9" d="M17.46,23.06c-1.09-.4-2.13-.73-3.1-1.28-.67-.38-1.37-.79-2.09-1.1-1.34-.58-1.59-1.85-1.67-3.07-.15-2.33-.37-4.69.45-6.97.7-1.95,1.95-3.4,3.74-4.43,1.45-.84,3.01-.56,4.53-.44.66.05,1.32.28,1.97.44,2.2.54,3.73,2.04,4.58,4,.53,1.22.68,2.71.36,4.08-.35,1.54-.88,3.01-1.75,4.38-.55.87-1.38,1.39-2.04,2.13-.73.82-1.69,1.46-2.62,2.06-.58.37-.97.78-1.15,1.42-.16.56-.43.97-1.09.78-.5-.14-.65-.71-.39-1.38.06-.15.12-.29.26-.61ZM21.1,8.65c.51,1.54.99,3.06,1.19,4.64.83.16,1.56-.39,2.25.08.34-.66,0-1.23-.06-1.81-.14-1.45-.98-2.45-2.18-3.2-.45-.28-.81-.21-1.2.29ZM21.53,18.92c1.44-.54,2.46-2.17,2.64-4.09-.58.02-1.15-.13-1.74-.01-.3,1.35-.59,2.65-.91,4.1Z"/>
      <path class="cls-15" d="M3.84,61.63c-.6-.45-1.16-.92-1.93-1.14-.99-.29-1.35-1.27-1.83-2.08-.22-.37.04-.74.2-1.01,1.22-1.99,2.32-4.05,3.8-5.88.38-.46.84-.72,1.31-.99.99.8,2.13.93,3.38,1.05,1.82.18,3.4-.01,4.76-1.29,1.73,1.04,2.3,2.95,3.39,4.48.48.67.96,1.34,1.27,2.13.12.31.31.64.18.9-.61,1.31-.88,2.83-2.32,3.61-.46.25-.92.46-1.46.41-.46-.05-.87.06-1.17.44-.71.65-1.55.81-2.5.79-.53-.01-.98-.28-1.49-.27-.3-.28-.61-.57-.89-.83-.35-.16-.6.16-.9.14-1.35.56-2.61.29-3.8-.46Z"/>
      <path class="cls-11" d="M13.53,50.3c-1.36,1.28-2.94,1.47-4.76,1.29-1.25-.12-2.39-.25-3.38-1.05-.53-.91-1.02-1.8-1.15-2.92-.24-2.07.11-3.92,1.36-5.59.07-.09.07-.22.11-.34.16-.18.32-.36.47-.54,1.13.37,2.19.31,3.12-.52.5-.45,1.1-.39,1.69-.4.98.39,1.83.94,2.38,1.87-.69.09-1.22.55-1.85.77-.28.1-.48.3-.52.6-.08.78-.17,1.56.15,2.33.28.67.83,1,1.45,1.1.57.1.89-.36,1.12-.89.27-.61.73-.76,1.34-.38.37.23.77.4,1.15.6.02.24.05.48.06.71.04.64-.35,1.07-.84,1.34-.55.3-.94-.07-1.26-.62-.24.96-.45,1.8-.66,2.64Z"/>
      <path class="cls-6" d="M6.19,41.14c-.16.18-.32.36-.47.54-.43.07-.81.25-1.19.46-.69.39-1.19.29-1.42-.42-.57-1.69-1.41-3.32-1.45-5.15-.04-1.61.64-2.83,2-3.78,1.59-1.1,3.42-1.11,5.18-1.38,1.25-.19,2.99,1.49,3.12,2.77.06.56-.19.99-.52,1.4-.69.23-1.11-.25-1.54-.65-1.05.4-2.08,1.48-2.94.15-.68.62-1.32,1.2-1.98,1.8.77,1.3,1.37,2.66,1.23,4.24Z"/>
      <path class="cls-13" d="M6.19,41.14c.14-1.57-.46-2.94-1.23-4.24.66-.6,1.3-1.18,1.98-1.8.86,1.33,1.88.25,2.94-.15.44.4.85.88,1.54.65,1.15,1.55,1.02,2.99-.43,4.63-.59,0-1.19-.05-1.69.4-.92.83-1.99.89-3.12.52Z"/>
      <path class="cls-13" d="M16.22,46.23c-.39-.2-.79-.38-1.15-.6-.6-.38-1.07-.22-1.34.38-.23.52-.55.98-1.12.89-.62-.1-1.17-.43-1.45-1.1-.32-.77-.23-1.55-.15-2.33.03-.3.23-.5.52-.6.63-.22,1.16-.68,1.85-.77.62-1.16,1.59-1.61,2.88-1.39.14.3.37.49.71.49.71.78.85,1.77.94,2.74.12,1.21-.71,1.83-1.69,2.29Z"/>
      <path class="cls-13" d="M3.84,61.63c1.2.75,2.45,1.02,3.8.46.04,2.16-.59,4.22-1.07,6.29-.04.17-.23.31-.35.47-.61-1.39-1.47-1.77-2.7-1.22.03-1.09-.11-2.18,0-3.29.09-.9.44-1.78.32-2.7Z"/>
      <path class="cls-16" d="M16.97,41.19c-.35,0-.57-.19-.71-.49.8-3.47.4-6.99.48-10.48.02-.79.26-1.54.22-2.34-.03-.5.2-1.02.81-1.22.36.12.61.34.57.76-.35,3.33-.4,6.67-.42,10.02,0,1.29-.15,2.63-.94,3.76Z"/>
      <path class="cls-13" d="M9.43,62.79c.51,0,.97.26,1.49.27.94.02,1.79-.14,2.5-.79.18.19.2.44.18.67-.1,1.68-.05,3.38-.98,4.89-.47-.2-1.01-.3-1.38-.61-.49-.42-.92-.3-1.41-.14-.13-1.43-.27-2.87-.4-4.3Z"/>
      <path class="cls-19" d="M3.52,67.62c1.24-.55,2.1-.16,2.7,1.22-.3,1.9-1.64,2.88-3.51,2.59-1.18-.18-1.6-1.23-.89-2.17.48-.64,1.14-1.09,1.7-1.65Z"/>
      <path class="cls-18" d="M9.83,67.08c.49-.16.92-.28,1.41.14.37.31.91.42,1.38.61.26.57.89.8,1.18,1.31.14.44-.15.79-.25,1.15-.15.52-.62.8-1.13.58-.72-.31-1.5-.45-2.15-.98-1.05-.86-1.23-1.7-.44-2.82Z"/>
      <path class="cls-4" d="M17.31,46.3c.49-.46.8-.25,1.1-.06.37.22.71.44,1.16.52.58.1.88.86.62,1.41-.13.28-.32.55-.53.77-.62.65-1.29.58-1.53-.26-.23-.81-.59-1.58-.82-2.38Z"/>
    </g>
    <path class="cls-2" d="M91.84,45.26c-1.23-.15-2.44.08-3.65.29-.53.22-1.11.27-1.64.14-1.01-.24-2.02-.13-3.03-.21-.14-.15-.32-.23-.53-.24-1.75-.09-2.23-1.77-1.7-3.06.33-.8.63-1.63.83-2.48.22-.92.78-1.76.6-2.76-.28-1.53.12-2.98.51-4.43.58-.12.95.35,1.43.52,1.61.57,3.27.41,4.91.49.82.04,1.6.27,2.47.13,1.98-.31,3.68-1.16,5.28-2.29.8,2.6,1.72,5.17,1.72,7.94,0,.28,0,.57.08.83.59,1.78-.2,3-1.56,4.01-.25.19-.57.3-.75.58-1.4.12-2.8.4-4.22.28-.29-.02-.53.12-.77.26Z"/>
    <path class="cls-3" d="M77.01,18.86c-.1-.66.07-1.35-.23-1.99-.06-.13-.07-.36,0-.46.67-.89.88-2.13,2.01-2.67.43-.2.86-.42,1.06-.89.25.13.53.21.73.39,1.24,1.13,2.63,1.46,4.28,1.06,1.63-.39,3.26-2.03,3.41-3.64.29.13.13.54.45.72,2.1-.12,3.66,1.18,5.25,2.32.69.49.94,1.34,1.06,2.19.14.99.62,1.97.11,2.98-1.13.48-2.29.82-3.55,1.04.14.94.65,1.68.84,2.52.17.74-.16,1.46-.8,1.43-1.61-.08-3.15.29-4.73.47-.99.11-1.96.23-2.91.53-.42.13-.83.29-1.28.23-.28-.61-.91-.98-1.15-1.61-.46-1.2-1.11-2.3-1.72-3.42-.12-.27-.32-.42-.61-.5-.75-.21-1.49-.45-2.24-.69Z"/>
    <path class="cls-1" d="M89.82,66.34c-.3-.03-.51.11-.76.26-.88.54-1.79,1.01-2.78,1.31-1.29.4-2.44,1.07-3.61,1.73-.9.51-1.85.78-2.92.82-1.62.06-2.49-.61-3.4-2.38-.34-.14-.69-.01-1.05-.02-.69-.69-1.5-.85-2.41-.52.15-3.05.74-6.05,1.11-9.07.28-2.25.6-4.49.86-6.74.17-1.48.33-2.97.53-4.44.21-1.55.64-3.08.64-4.68,0-1.41.42-2.8.54-4.22.11-1.39.34-2.77.46-4.17.09-1.03.4-2.07.56-3.12.19-1.29.25-2.59.56-3.86.11-.44-.21-.65-.62-.7-.44-.05-.88-.07-1.31.02-.48-.3-1.2-.26-1.37-1,.13-.68.54-.99,1.25-.95.43.03.87,0,1.31,0,.53.08,1.06.14,1.6.16,1.09.05,2.27,0,3.26.65-.01.45,0,.9-.49,1.15-.61.1-1.22.3-1.94.04-1.74,13.32-3.48,26.59-5.22,39.91.33-.09.59-.16.85-.23,1.61-.41,2.14-.11,2.7,1.5.19.55.54.63,1.02.36,1.51.22,2.85-.18,3.89-1.26.58-.6,1.21-1.01,1.98-1.21.6-.16,1.08-.45,1.45-.95.2-.02.41-.02.46-.29,1.13-.72,2.3-1.38,3.64-1.64,0,.68.33,1.08,1.01,1.18.19.82-.37,1.23-.9,1.65-.5,0-.72.34-.9.73Z"/>
    <path class="cls-3" d="M97.33,31.36c-1.6,1.13-3.3,1.98-5.28,2.29-.87.14-1.65-.09-2.47-.13-1.64-.08-3.3.08-4.91-.49-.48-.17-.85-.64-1.43-.52-.63-1.21-.52-2.38.16-3.53,1.51.3,2.67-.13,3.4-1.57.29-.56.94-.9,1.5-.78,1.22.26,2.43-.02,3.63.13,1.11.14,2.1-.29,3.02-.85.24-.14.42-.36.73-.34.95.5.89,1.61,1.43,2.36.12.16.11.43.25.64.83,1.19.82,1.58-.03,2.8Z"/>
    <path class="cls-8" d="M78.89,10.71c-.48-.04-1-.03-.96-.75,0-.1-.05-.27-.13-.31-.6-.35-.97-1.03-.94-1.55.06-1.05.12-2.25.92-3.03.94-.93,1.58-2.14,2.98-2.66,1.57-.58,3.01-.78,4.46.13.27.17.44.21.75.12.63-.19,1.15.09,1.61.53,1.4,1.32,2.23,2.95,2.54,4.84.14.86-.39,1.73-1.33,2.21-.18.09-.36.16-.54.24-.6-.1-.93-.56-1.31-.96-.26-.28-.53-.82-.89-.72-1.03.29-1.72-.34-2.49-.8-1.11,1.02-2.35,1.66-3.84,1.74-.24.36-.43.75-.83.97Z"/>
    <path class="cls-13" d="M83.52,45.48c1.01.08,2.02-.03,3.03.21.53.12,1.11.08,1.64-.14.04,2.07.1,4.15.1,6.22,0,.37,0,.78-.18,1.16-.68,1.43-.68,3-.82,4.54-.36.35-.17.79-.18,1.19-.51.73-.75,1.51-.56,2.43.09.46,0,.95,0,1.43-.39.27-.77.56-1.18.8-1.28.75-2.09.44-2.64-1,.53-1.12.93-2.25.57-3.51-.13-.46-.13-.94-.11-1.42.09-3.02,0-6.05.25-9.06.08-.94-.08-1.9.09-2.85Z"/>
    <path class="cls-13" d="M91.84,45.26c.24-.14.48-.28.77-.26,1.42.12,2.81-.16,4.22-.28,1.29,1.32,2.68,2.54,3.67,4.12.12.19.28.28.44.37,1.76.97,2.66,2.6,3.42,4.37.37.86.83,1.71,1.41,2.46.04.11.08.22.13.33.45.93.4,1.3-.19,1.79-.62.51-1.09.21-1.57-.23-.14-.13-.35-.17-.53-.26-.58-.63-1.29-1.18-1.8-1.79-.95-1.15-2.2-1.92-3.18-3.01-.62-.68-1.33-1.18-2.21-1.53-1.17-.46-2.23-1.27-2.9-2.27-.77-1.13-1.76-2.27-1.69-3.82Z"/>
    <path class="cls-13" d="M95.68,25.56c-.31-.02-.5.2-.73.34-.93.56-1.91.99-3.02.85-1.21-.15-2.41.13-3.63-.13-.55-.12-1.21.22-1.5.78-.74,1.44-1.89,1.87-3.4,1.57-.92-.55-1.59-1.27-1.61-2.42.48-.25.48-.7.49-1.15l.46-.32c.45.06.86-.1,1.28-.23.95-.3,1.92-.42,2.91-.53,1.57-.17,3.12-.55,4.73-.47.64.03.97-.69.8-1.43-.19-.84-.7-1.59-.84-2.52,1.26-.22,2.43-.56,3.55-1.04.91,1.72.86,3.61.92,5.48.01.4-.26.81-.39,1.22Z"/>
    <path class="cls-13" d="M78.89,10.71c.4-.22.6-.62.83-.97,1.49-.09,2.73-.73,3.84-1.74.78.47,1.46,1.1,2.49.8.36-.1.62.44.89.72.38.41.71.86,1.31.96,0,.06,0,.13.02.19-.15,1.61-1.79,3.25-3.41,3.64-1.65.4-3.04.06-4.28-1.06-.2-.18-.49-.26-.73-.39-.55-.61-.74-1.38-.96-2.14Z"/>
    <path class="cls-13" d="M77.42,24.59c-.44,0-.87.03-1.31,0-.71-.04-1.12.27-1.25.95.18.73.89.7,1.37,1-.54,1.53-2.4,2.42-3.9,1.85-.73-.28-1.85-2.66-1.53-3.38.34-.76.98-1.2,1.81-1.34,1.2-.2,2.15-.94,3.11-1.6.65-.45.62-1.33.74-2.05.08-.47.29-.8.54-1.15.74.23,1.48.48,2.24.69.3.08.49.23.61.5,0,.46-.12.89-.04,1.38.19,1.21-.39,2.05-1.55,2.56-.32.14-.68.24-.84.61Z"/>
    <path class="cls-17" d="M103.62,57.67c.18.08.39.13.53.26.48.44.95.74,1.57.23.59-.49.64-.86.19-1.79-.05-.11-.09-.22-.13-.33.63-.03,1.12.34,1.64.61.31.16.53.47.47.89-.1.75-1.97,5.84-2.35,6.44-.59.94-1.52,1.26-2.5,1.39-1.07.14-2.06-1.2-1.63-2.21.42-1,.94-1.96,1.46-2.91.45-.81.41-1.75.75-2.58Z"/>
    <path class="cls-14" d="M72.9,67.53c.91-.32,1.72-.16,2.41.52,1.37,2.26.37,4.14-1.31,5.44-.72.56-1.62.64-2.49.51-.56-.08-.81-.61-.96-1.09-.65-2.06-.47-3.75,1.83-5.11.17-.1.35-.18.52-.27ZM72.73,71.88c1.21-.65,1.55-1.53.96-2.37-.76.55-1.03,1.18-.96,2.37Z"/>
    <path class="cls-17" d="M82.72,62.32c.55,1.43,1.36,1.74,2.64,1,.41-.24.78-.53,1.18-.8.03.41.07.81.1,1.22-.04.32-.09.65-.13.97-.36.5-.85.79-1.45.95-.77.2-1.4.62-1.98,1.21-1.04,1.08-2.39,1.48-3.89,1.26-.88-.97-1.01-1.52-.51-2.41.31-.56.69-1.11,1.25-1.42,1.01-.55,1.83-1.35,2.78-1.98Z"/>
    <path class="cls-7" d="M91.63,63.96c-.68-.1-1.01-.5-1.01-1.18.51-.83,1.17-1.37,2.24-1.29.92.07,1.56.52,1.71,1.37.16.93.32,1.96-.18,2.84-.44.78-.94,1.53-1.68,2.12-.67.54-1.26.51-1.95.17-.7-.34-1.17-.79-.94-1.65.18-.39.4-.74.9-.73.65.24,1.3.42,1.71-.36.3-.57.7-1.19-.14-1.74-.23.16-.45.31-.67.46Z"/>
    <path class="cls-5" d="M91.63,63.96c.22-.15.44-.3.67-.46.84.55.43,1.17.14,1.74-.41.79-1.06.61-1.71.36.54-.42,1.09-.83.9-1.65Z"/>
    <path class="cls-11" d="M36.22,17.79c.37-.72.89-1.38,1.62-1.65,1.39-.51,2.12-1.55,2.7-2.8.45-.98,1.03-1.79,2.13-2.25.76-.32,1.53-.58,2.29-.88.27.05.55.1.82.15.64.11,1.11.37,1.11,1.14,0,.67.38.99,1.03,1.05.75.06,1.49.26,2.31-.05.23-.17.17-.63.51-.82.26-.04.55-.27.79-.04.6.59,1.41.68,2.13.98,1.98.82,3.94,1.72,4.98,3.8.23.46.41.95.68,1.39,1.35,2.18,1.17,4.44.36,6.74-.44,1.23-1.29,2.26-1.79,3.46-.52,1.27-1.53,1.76-2.85,1.73q-1.03-.45-2.2-1.93c-.94.2-2.23-.34-2.54,1.23-.69.85-1.53,1.16-2.63.92-.77-.17-1.56-.28-2.37-.14-.51.09-1.04.01-1.46-.36-.43-.38-.93-.4-1.46-.37-1.35-.45-1.73-1.24-1.15-2.4.13-.26.37-.41.56-.61.64-.68,1.38-1.32,1.51-2.32.19-1.41.49-2.78,1.04-4.11.12-.29.21-.73-.04-1.03-.38-.45-.42-1.06-.72-1.51-.42.12-.4.45-.54.68-1.1,1.86-4.25,2.88-6.29,2.03-.68-.54-.44-1.32-.54-2.01ZM56.12,21.2c.26-1.12-.3-2.05-1.42-2.63-.21.82.22,1.6.1,2.4-.12.82-.22,1.64-.36,2.7,1.31-.54,1.49-1.6,1.68-2.47Z"/>
    <path class="cls-12" d="M50.31,29.01c-.69.85-1.53,1.16-2.63.92-.77-.17-1.56-.28-2.37-.14-.51.09-1.04.01-1.46-.36-.43-.38-.93-.4-1.46-.37.21.98-.26,1.85-.54,2.72-.65,2.01-1.74,3.76-3.26,5.26-1.34,1.32-2.17,3.01-2.93,4.71-.32.72-.4,1.55-.51,2.32-.24,1.61-.54,3.18-1.23,4.66-.32.7-.12,1.31.26,1.91.9.86,2.04,1.06,3.22,1.16.97-.43,1.37-1.33,1.58-2.24.11-.49.22-.91.59-1.22.65-.55.96-1.28,1.01-2.1.04-.59.32-1.03.57-1.53.8-1.57,2.06-2.78,3.1-4.17.41-.55,1.14-.85,1.75-1.28.76,1.04,1.4,2.21,2.05,3.38,1.04,1.88,2.81,2.81,4.68,3.66,1.09.49,2.33.64,3.27,1.5.52.47,1.31.28,1.96.44,1.58-.28,2.43-1.29,2.79-2.79.04-.15.06-.31.2-.41.24-1.07.15-1.13-.72-1.5-1.22-.51-2.62-.56-3.7-1.49-1.14-.98-2.21-2.05-3.08-3.23-.73-1-.91-2.37-.75-3.65.13-1.02.08-1.97-.34-2.9-.7-.15-1.35-.33-1.64-1.12-.25-.7-.53-1.38-.41-2.15Z"/>
    <path class="cls-6" d="M50.84,11.2c1.6,0,2.66-1.35,3.25-3.16.83-2.53-.28-4.23-2.24-6.14-.81-.79-1.88-1.12-2.79-1.72-.66-.44-1.37.11-2.08-.08-.63-.16-1.34-.04-1.73.7-.1.19-.37.3-.56.44-1.21.92-1.39,1.67-.74,3.01.39.89.93,1.64,1.99,1.93.66-.56,1.25-.38,1.79.25.2.24.46.44.72.61.59.39,1.25.55,1.91.27,1.07-.45,1.06-.49,1.85.42,0,.54-.07,1.05-.64,1.29-.26.11-.34.33-.33.58.01.57-.31,1.05-.37,1.6Z"/>
    <path class="cls-13" d="M50.84,11.2c.06-.55.39-1.03.37-1.6,0-.24.07-.47.33-.58.58-.24.64-.75.64-1.29-.79-.91-.78-.87-1.85-.42-.66.28-1.32.11-1.91-.27-.26-.17-.51-.37-.72-.61-.54-.63-1.13-.81-1.79-.25-1.05-.3-1.6-1.04-1.99-1.93-.51.5-.93,1.07-1.17,1.75-.47,1.36-.07,2.46,1.03,3.36.37.3.73.61,1.14.84.27.05.55.1.82.15.64.11,1.11.37,1.11,1.14,0,.67.38.99,1.03,1.05.75.06,1.49.26,2.31-.05.23-.17.17-.63.51-.82.03-.16.06-.31.1-.47Z"/>
    <path class="cls-10" d="M60.95,45.05c-.14.1-.17.25-.2.41-.36,1.5-1.21,2.51-2.79,2.79.02.52-.25.87-.57,1.26-.69.85-.66,2.27-.02,3.01.7.82,1.72.89,2.36.05.45-.59.96-1.14,1.41-1.73.89-1.18,1.04-2.65,1.34-4.03.2-.92-.25-1.33-1.53-1.75Z"/>
    <path class="cls-10" d="M37.39,51.81c-1.17-.1-2.31-.3-3.22-1.16-.66.22-1.31-.1-1.97-.04-.87.09-1.65.59-1.8,1.29-.12.54.32,1.4,1.02,1.74,1.39.68,2.91.81,4.41.77,1.1-.03,1.8-1.37,1.56-2.61Z"/>
    <path class="cls-13" d="M36.76,19.8c-.68-.54-.44-1.32-.54-2.01-.58-.36-1.17-.74-1.86-.74-.76,0-1.53.13-1.99.85-.53.84-.2,1.7.12,2.51.4,1.01,1.24,1.44,2.3,1.5.72.04,1.56-.51,1.83-1.29.09-.26.09-.55.14-.83Z"/>
    <path class="cls-13" d="M50.31,29.01c-.12.77.15,1.45.41,2.15.28.79.94.97,1.64,1.12,1.34.08,1.96-.32,2.39-1.55.12-.33.33-.64.3-1.01q-1.03-.45-2.2-1.93c-.94.2-2.23-.34-2.54,1.23Z"/>
    <path class="cls-9" d="M17.46,23.06c-1.09-.4-2.13-.73-3.1-1.28-.67-.38-1.37-.79-2.09-1.1-1.34-.58-1.59-1.85-1.67-3.07-.15-2.33-.37-4.69.45-6.97.7-1.95,1.95-3.4,3.74-4.43,1.45-.84,3.01-.56,4.53-.44.66.05,1.32.28,1.97.44,2.2.54,3.73,2.04,4.58,4,.53,1.22.68,2.71.36,4.08-.35,1.54-.88,3.01-1.75,4.38-.55.87-1.38,1.39-2.04,2.13-.73.82-1.69,1.46-2.62,2.06-.58.37-.97.78-1.15,1.42-.16.56-.43.97-1.09.78-.5-.14-.65-.71-.39-1.38.06-.15.12-.29.26-.61ZM21.1,8.65c.51,1.54.99,3.06,1.19,4.64.83.16,1.56-.39,2.25.08.34-.66,0-1.23-.06-1.81-.14-1.45-.98-2.45-2.18-3.2-.45-.28-.81-.21-1.2.29ZM21.53,18.92c1.44-.54,2.46-2.17,2.64-4.09-.58.02-1.15-.13-1.74-.01-.3,1.35-.59,2.65-.91,4.1Z"/>
    <path class="cls-15" d="M3.84,61.63c-.6-.45-1.16-.92-1.93-1.14-.99-.29-1.35-1.27-1.83-2.08-.22-.37.04-.74.2-1.01,1.22-1.99,2.32-4.05,3.8-5.88.38-.46.84-.72,1.31-.99.99.8,2.13.93,3.38,1.05,1.82.18,3.4-.01,4.76-1.29,1.73,1.04,2.3,2.95,3.39,4.48.48.67.96,1.34,1.27,2.13.12.31.31.64.18.9-.61,1.31-.88,2.83-2.32,3.61-.46.25-.92.46-1.46.41-.46-.05-.87.06-1.17.44-.71.65-1.55.81-2.5.79-.53-.01-.98-.28-1.49-.27-.3-.28-.61-.57-.89-.83-.35-.16-.6.16-.9.14-1.35.56-2.61.29-3.8-.46Z"/>
    <path class="cls-11" d="M13.53,50.3c-1.36,1.28-2.94,1.47-4.76,1.29-1.25-.12-2.39-.25-3.38-1.05-.53-.91-1.02-1.8-1.15-2.92-.24-2.07.11-3.92,1.36-5.59.07-.09.07-.22.11-.34.16-.18.32-.36.47-.54,1.13.37,2.19.31,3.12-.52.5-.45,1.1-.39,1.69-.4.98.39,1.83.94,2.38,1.87-.69.09-1.22.55-1.85.77-.28.1-.48.3-.52.6-.08.78-.17,1.56.15,2.33.28.67.83,1,1.45,1.1.57.1.89-.36,1.12-.89.27-.61.73-.76,1.34-.38.37.23.77.4,1.15.6.02.24.05.48.06.71.04.64-.35,1.07-.84,1.34-.55.3-.94-.07-1.26-.62-.24.96-.45,1.8-.66,2.64Z"/>
    <path class="cls-6" d="M6.19,41.14c-.16.18-.32.36-.47.54-.43.07-.81.25-1.19.46-.69.39-1.19.29-1.42-.42-.57-1.69-1.41-3.32-1.45-5.15-.04-1.61.64-2.83,2-3.78,1.59-1.1,3.42-1.11,5.18-1.38,1.25-.19,2.99,1.49,3.12,2.77.06.56-.19.99-.52,1.4-.69.23-1.11-.25-1.54-.65-1.05.4-2.08,1.48-2.94.15-.68.62-1.32,1.2-1.98,1.8.77,1.3,1.37,2.66,1.23,4.24Z"/>
    <path class="cls-13" d="M6.19,41.14c.14-1.57-.46-2.94-1.23-4.24.66-.6,1.3-1.18,1.98-1.8.86,1.33,1.88.25,2.94-.15.44.4.85.88,1.54.65,1.15,1.55,1.02,2.99-.43,4.63-.59,0-1.19-.05-1.69.4-.92.83-1.99.89-3.12.52Z"/>
    <path class="cls-13" d="M16.22,46.23c-.39-.2-.79-.38-1.15-.6-.6-.38-1.07-.22-1.34.38-.23.52-.55.98-1.12.89-.62-.1-1.17-.43-1.45-1.1-.32-.77-.23-1.55-.15-2.33.03-.3.23-.5.52-.6.63-.22,1.16-.68,1.85-.77.62-1.16,1.59-1.61,2.88-1.39.14.3.37.49.71.49.71.78.85,1.77.94,2.74.12,1.21-.71,1.83-1.69,2.29Z"/>
    <path class="cls-13" d="M3.84,61.63c1.2.75,2.45,1.02,3.8.46.04,2.16-.59,4.22-1.07,6.29-.04.17-.23.31-.35.47-.61-1.39-1.47-1.77-2.7-1.22.03-1.09-.11-2.18,0-3.29.09-.9.44-1.78.32-2.7Z"/>
    <path class="cls-16" d="M16.97,41.19c-.35,0-.57-.19-.71-.49.8-3.47.4-6.99.48-10.48.02-.79.26-1.54.22-2.34-.03-.5.2-1.02.81-1.22.36.12.61.34.57.76-.35,3.33-.4,6.67-.42,10.02,0,1.29-.15,2.63-.94,3.76Z"/>
    <path class="cls-13" d="M9.43,62.79c.51,0,.97.26,1.49.27.94.02,1.79-.14,2.5-.79.18.19.2.44.18.67-.1,1.68-.05,3.38-.98,4.89-.47-.2-1.01-.3-1.38-.61-.49-.42-.92-.3-1.41-.14-.13-1.43-.27-2.87-.4-4.3Z"/>
    <path class="cls-19" d="M3.52,67.62c1.24-.55,2.1-.16,2.7,1.22-.3,1.9-1.64,2.88-3.51,2.59-1.18-.18-1.6-1.23-.89-2.17.48-.64,1.14-1.09,1.7-1.65Z"/>
    <path class="cls-18" d="M9.83,67.08c.49-.16.92-.28,1.41.14.37.31.91.42,1.38.61.26.57.89.8,1.18,1.31.14.44-.15.79-.25,1.15-.15.52-.62.8-1.13.58-.72-.31-1.5-.45-2.15-.98-1.05-.86-1.23-1.7-.44-2.82Z"/>
    <path class="cls-4" d="M17.31,46.3c.49-.46.8-.25,1.1-.06.37.22.71.44,1.16.52.58.1.88.86.62,1.41-.13.28-.32.55-.53.77-.62.65-1.29.58-1.53-.26-.23-.81-.59-1.58-.82-2.38Z"/>
  </g>
</svg>