<?xml version="1.0" encoding="UTF-8"?>
<svg id="_レイヤー_2" data-name="レイヤー 2" xmlns="http://www.w3.org/2000/svg" viewBox="0 0 84.92 100.2">
  <defs>
    <style>
      .cls-1 {
        fill: #f1b9d2;
      }

      .cls-2 {
        fill: #9a8778;
      }

      .cls-3 {
        fill: #a9a9a8;
      }

      .cls-4 {
        fill: #231815;
      }

      .cls-5 {
        fill: #51a87f;
      }

      .cls-6 {
        fill: #dd3a43;
      }

      .cls-7 {
        fill: #55435b;
      }

      .cls-8 {
        fill: #e89abc;
      }

      .cls-9 {
        fill: #378660;
      }

      .cls-10 {
        fill: #4b86c2;
      }

      .cls-11 {
        fill: #c9bc9c;
      }

      .cls-12 {
        fill: #efb354;
      }

      .cls-13 {
        fill: #b5a496;
      }

      .cls-14 {
        fill: #3a639d;
      }

      .cls-15 {
        fill: #a9a9a9;
      }

      .cls-16 {
        fill: #d1d1d1;
      }
    </style>
  </defs>
  <g id="_レイヤー_1-2" data-name="レイヤー 1">
    <g>
      <path class="cls-7" d="M31.04,39.43c1.05,1.89,1.84,3.84,1.64,6.07-.1,1.14.08,2.29-.21,3.44-.14.54-.09,1.15.13,1.75.44,1.22.22,2.52.03,3.74-.16,1.09-.24,2.2-.44,3.29-.3,1.59-.83,2.23-2.15,2.44-1.85.05-3.65.46-5.48.71-.97.08-1.54-.74-2.34-1.04-.14-.05-.25-.19-.46-.16-.49.49-.93,1.03-.92,1.81,0,.26-.19.32-.37.4-.19-.02-.37,0-.57.04-1.36.26-2.72.43-3.98-.35-.18-1.25.02-2.44.56-3.56.47-.99.75-2.02.57-3.1-.23-1.37-.48-2.72-.45-4.11.02-.83-.28-1.54-.69-2.24-.46-.78-1.2-1.37-1.49-2.26.38-.21.76-.42,1.13-.63.74-.44,1.03-1.18.82-1.93-.19-.69-.15-1.4-.41-2.06.36-.38.39.05.55.21.34.36.62.86,1.26.65.63-.21.81-.69.78-1.3.48-.51,1.08-.55,1.74-.54,2.5.04,4.63-.92,6.46-2.58.29-.27.49-.63.88-.79.25.44.44.9.55,1.42.16.73.61,1.3,1.41,1.42.62.09.99-.42,1.45-.7Z"/>
      <path class="cls-5" d="M14.42,46.28c.29.89,1.03,1.48,1.49,2.26.41.7.7,1.41.69,2.24-.03,1.39.22,2.75.45,4.11.18,1.08-.11,2.11-.57,3.1-.53,1.13-.74,2.32-.56,3.56-.05.68-.36,1.28-.6,1.91-.38,1.02-1.11,1.94-.88,3.12-1.27.24-2.56.45-3.83.67-1.87.33-3.63-.27-5.28-1.17.34,0,.69.14.97-.25,1.31-1.8,2.16-3.74,2.15-6.01-.01-1.48,0-2.95,0-4.43,0-.28.03-.57-.04-.83-.1-.4-.29-.71-.81-.71-.53,0-.69.37-.78.75-.08.3-.04.63-.04.95,0,.81.11,1.61.09,2.44-.09,2.52-.46,4.92-1.74,7.13,0-.24-.01-.48-.02-.72-.05-1.21-.54-1.83-1.69-2.12-.38-.1-.78-.15-1.17-.22-.38-1.66-.22-3.28.18-4.93.16-.68.53-1.23.8-1.83.52-1.17.45-2.48.94-3.61.88-2.03,1.19-4.4,3.13-5.87.38-.28.75-.57,1.13-.85.36,1.3,1.26,1.86,2.55,2.09,1.31.24,2.39-.17,3.45-.81Z"/>
      <path class="cls-3" d="M31.04,39.43c-.46.28-.84.79-1.45.7-.8-.12-1.26-.69-1.41-1.42-.11-.51-.29-.97-.55-1.42.26-1.34.17-2.67-.31-3.94-.15-.4-.01-.73.1-1.03.41-1.07.67-2.06-.18-3.09-.27-.32-.21-.91-.32-1.37-.1-.42-.13-.89-.34-1.25-1.12-2-1-4.26-1.32-6.42-.21-1.45-.76-2.76-1.48-3.99-.46-.78-1.4-.98-2.21-1.28-.3-.11-.58-.27-.86-.4.03-.15.02-.32.08-.46.65-1.32.95-2.64.19-4.03-.15-.27-.1-.62.22-.84,1.07-.23,1.86-.82,2.73-1.51,1.48-1.18,3.3-1.8,5.3-1.24.81.23,1.63.35,2.43-.07.12.33.09.68.28,1.02.68,1.23,1.22,2.52,1.24,3.98.02,1.72.91,2.58,2.67,2.65-.37.32-.82.42-1.3.49-1.7.24-3.32,1.04-5.18.67-.04,1.82.36,3.43.53,5.06.22,2.13.8,4.19.89,6.34.08,2.16.38,4.33,1.09,6.4.25.73.31,1.47.09,2.2-.29,1-.24,2.03-.43,3.04-.09.45-.23.83-.47,1.19Z"/>
      <path class="cls-15" d="M18.55,41.21c.03.61-.15,1.08-.78,1.3-.65.22-.92-.29-1.26-.65-.16-.16-.19-.59-.55-.21-.13-.39-.34-.75-.34-1.18.22-.27.47-.51.69-.8.72-.96-.17-2.84-1.29-2.9-1.49-.08-3-.63-4.45.22-.22.13-.56.18-.81.11-.84-.22-1.53.09-2.22.5-1.24-1.61-1.72-3.32-1.34-5.41.24-1.31-.05-2.77-.34-4.11-.3-1.39-.63-2.81-.36-4.17.35-1.81.93-3.62,2.41-4.93.66-.58,1.29-1.19,1.62-2.03.39-1.01,1.23-1.6,2.04-2.23.95.89,1.97,1.62,3.38,1.49,0,.45-.07.88-.31,1.26-.27.45-.33,1-.16,1.39.47,1.07.44,2.24.9,3.32.48,1.12.85,2.3.76,3.57-.05.83-.11,1.67.18,2.49.09.25-.02.55-.04.82-.1,1.93-.65,3.88.32,5.76.16.31.17.69.25,1.03.19.85-.06,1.88.4,2.54.62.88.87,1.86,1.3,2.79Z"/>
      <path class="cls-13" d="M5.33,66.09c1.65.9,3.41,1.5,5.28,1.17,1.27-.22,2.56-.44,3.83-.67.41.34.18.81.25,1.22.19,1.23.21,2.5.98,3.57.18.93.27,1.88.55,2.78.51,1.67-.34,3.01-.97,4.39-.22.49-.83.54-1.33.6.37,1.98.12,3.85-.47,5.7-1.16,1.21-1.78,1.3-3.28.45.32-1.29.54-2.58.07-3.96-.39.17-.84.17-1.29.14-.97-.26-1.93-.51-2.9-.77-.93-.85-1.15-1.76-.58-2.98.6-1.28.95-2.68.58-4.13-.04-.15-.02-.33-.1-.46-1.03-1.85-1.7-3.83-2.03-5.92.35-.44,1.02-.56,1.21-1.17.07.01.14.03.2.04ZM12.35,70.76c-1.69-.1-1.98.16-1.98,1.51,0,.52.02,1.01.2,1.52.58,1.7.47,3.39-.2,5.06-.46,1.13-.36,1.38.79,2.08.38-.18.58-.48.69-.9.35-1.3.63-2.6.71-3.95.11-1.78-.89-3.46-.2-5.32Z"/>
      <path class="cls-12" d="M24.57,60.86c1.82-.25,3.63-.65,5.48-.71-.38,2.26-.38,4.55-.82,6.81-.28,1.42-.48,2.94-.43,4.45.03.99-.42,1.91-.61,2.88-.28,1.51-.57,3.01-.78,4.54-.14,1.04.06,1.96.46,2.87-1.04.09-2.17-.27-2.96.79-1.37-.57-2.07-1.75-2.98-2.71.37-.91.74-1.83,1.1-2.74.19-.49.03-1.02.09-1.5.28-2.49.13-4.98.23-7.46.04-1.13.43-2.24.57-3.37.16-1.29.77-2.51.64-3.85Z"/>
      <path class="cls-4" d="M11.06,13.98c-.88.02-1.01-.67-1.3-1.36-.63-.01-1.41-.28-1.49-.97-.1-.83-.48-1.86.55-2.49.1-.06.23-.14.26-.24.44-1.51,1.78-2.4,2.55-3.68.53-.87,1.85-1.37,2.91-1.12.58.13,1.06.09,1.54-.31.6-.5,1.33-.54,2.02-.22.96.44,1.97.78,2.89,1.33,1.21.72,1.51,2.29.55,3.33-.18.2-.43.35-.64.52-1.11.57-2.11-.07-3.11-.43-.64.83-1.42,1.17-2.34,1.18-.9,1.2-.46,3.21-2.3,3.86-.28-.48-.3-1.04-.9-1.23-.37.09-.78.21-1.14.57-.02.39-.04.83-.06,1.26Z"/>
      <path class="cls-12" d="M11.06,13.98c.02-.43.04-.87.06-1.26.36-.37.77-.49,1.14-.57.6.19.61.74.9,1.23,1.84-.66,1.4-2.66,2.3-3.86.92,0,1.69-.35,2.34-1.18.99.36,1.99,1,3.11.43.1.15.2.29.3.44-.31.22-.36.57-.22.84.76,1.4.45,2.72-.19,4.03-.07.13-.06.3-.08.46-.2.54-.65,1.01-.43,1.68.26.77-.02,1.49-.37,2.15-.49.93-1.4,1.21-2.34.74-.9-.45-1.67-1.06-2.01-2.09-.1-.3-.12-.75-.61-.78-1.4.13-2.42-.6-3.38-1.49-.17-.25-.34-.51-.51-.76Z"/>
      <path class="cls-12" d="M35.84,14.03c-1.76-.07-2.65-.94-2.67-2.65-.02-1.46-.56-2.74-1.24-3.98-.19-.34-.16-.69-.28-1.02.08-.83-.05-1.85.57-2.38,1.05-.89,1.43-1.98,1.74-3.23.19-.78,1.05-.96,1.97-.6.13.17.2.41.12.56-.6,1.14.18,1.81.84,2.5.57.59.91,1.26,1.1,2.06.22.92.11,1.65-.52,2.41-.81.97-.89,2.1-.44,3.33.43,1.17-.12,2.36-1.21,2.99Z"/>
      <path class="cls-4" d="M7.54,37.62c.68-.41,1.38-.72,2.22-.5.25.06.59.02.81-.11,1.45-.85,2.96-.3,4.45-.22,1.11.06,2.01,1.94,1.29,2.9-.21.28-.46.53-.69.8-.62.31-1.2.22-1.82-.06-1.25-.56-2.13-.27-2.7.93-.32.68-.72.6-1.23.28-.35-.22-.71-.39-1.08-.04-.34.32-.49.73-.37,1.19.07.26.17.53.3.77.2.37.04.59-.28.76-.55-.01-.96-.16-1.2-.75-.27-.68-.93-1.15-.96-1.98-.02-.69-.02-1.36.34-1.94.39-.64.45-1.42.93-2.01Z"/>
      <path class="cls-12" d="M8.43,44.3c.32-.17.47-.39.28-.76-.13-.24-.23-.5-.3-.77-.12-.46.03-.86.37-1.19.37-.35.73-.18,1.08.04.51.32.91.4,1.23-.28.57-1.2,1.45-1.49,2.7-.93.62.28,1.2.37,1.82.06,0,.42.22.79.34,1.18.26.66.22,1.38.41,2.06.21.75-.07,1.49-.82,1.93-.37.22-.75.42-1.13.63-1.06.65-2.14,1.05-3.45.81-1.29-.23-2.19-.8-2.55-2.09,0-.23,0-.46,0-.69Z"/>
      <path class="cls-6" d="M21.93,79.79c.91.95,1.62,2.14,2.98,2.71.79-1.05,1.93-.7,2.96-.79.84.91,1.96,1.45,2.92,2.19.89.69,1.24,1.62.94,2.58-.4,1.26-1,1.7-2.36,1.71-2.28.02-3.56-.97-4.38-3.4-.04-.11-.1-.21-.17-.34-1.14-.18-1.97-.96-2.84-1.61-1.15-.86-1.12-1.6-.05-3.05Z"/>
      <path class="cls-12" d="M15.66,71.38c-.77-1.07-.79-2.34-.98-3.57-.06-.41.16-.88-.25-1.22-.23-1.19.5-2.11.88-3.12.23-.63.54-1.22.6-1.91,1.27.78,2.63.61,3.98.35.2-.04.38-.07.57-.04-.43.58-.26,1.3-.46,1.94-.68,2.19-1.39,4.35-2.87,6.17-.44.54-.65,1.28-1.47,1.4Z"/>
      <path class="cls-16" d="M8.19,84.62c.25.68.39,1.31-.1,2.01-.36.52.45,2,1.24,2.49.27.17.61.24.82.46.39.4,1.08.64.84,1.42-.29.98-.84,1.41-1.75,1.52-1.54.19-2.5-.77-3.39-1.74-.28-.31-.5-.58-.9-.65-1.36-.26-2.1-1.15-2.48-2.43.38-.72,1.08-1.03,1.7-1.43.24.14.46.3.71.41,1.32.55,2.45.03,2.96-1.33.09-.24.06-.56.34-.72Z"/>
      <path class="cls-12" d="M5.12,66.05c-.19.61-.86.72-1.21,1.17-.34.1-.68.23-1.02.29-.92.17-1.74-.01-2.36-.77-.63-.75-.62-1.6-.37-2.47.31-1.08,1.2-1.63,2.07-2.18.39.07.78.12,1.17.22,1.16.3,1.64.92,1.69,2.12,0,.24.01.48.02.72,0,.3,0,.6,0,.91Z"/>
      <path class="cls-12" d="M8.19,84.62c-.28.16-.25.47-.34.72-.51,1.36-1.65,1.88-2.96,1.33-.25-.1-.47-.27-.71-.41-.24-1.4,0-2.71.85-3.86.4-.54.39-1.3,1.01-1.7.97.26,1.93.51,2.9.77-.15,1.07-.38,2.12-.76,3.14Z"/>
      <path class="cls-16" d="M10.17,85.3c1.5.84,2.12.76,3.28-.45.07.69.7.86,1.15,1.09.36.19.67.43.95.68.61.55.46,1.25-.27,1.58-1.32.59-2.14.45-3.18-.55-.28-.27-.53-.55-.94-.69-.75-.26-1.17-.8-.98-1.66Z"/>
      <path class="cls-10" d="M14.94,16.23c.5.02.51.47.61.78.34,1.03,1.1,1.64,2.01,2.09.94.47,1.86.19,2.34-.74.35-.66.63-1.38.37-2.15-.22-.66.23-1.13.43-1.68.29.14.57.29.86.4.81.3,1.75.49,2.21,1.28.72,1.23,1.27,2.53,1.48,3.99.32,2.16.2,4.42,1.32,6.42.21.37.24.83.34,1.25.11.46.05,1.05.32,1.37.85,1.03.6,2.02.18,3.09-.11.3-.25.62-.1,1.03.48,1.27.57,2.6.31,3.94-.38.16-.59.53-.88.79-1.83,1.67-3.96,2.62-6.46,2.58-.66,0-1.26.03-1.74.54-.43-.93-.68-1.91-1.3-2.79-.46-.66-.2-1.69-.4-2.54-.08-.34-.09-.72-.25-1.03-.96-1.88-.42-3.83-.32-5.76.01-.27.13-.57.04-.82-.29-.82-.23-1.67-.18-2.49.08-1.28-.29-2.45-.76-3.57-.46-1.07-.43-2.25-.9-3.32-.17-.39-.12-.94.16-1.39.23-.38.31-.82.31-1.26Z"/>
      <path class="cls-9" d="M5.12,66.05c0-.3,0-.6,0-.91,1.27-2.21,1.65-4.61,1.74-7.13.03-.83-.08-1.63-.09-2.44,0-.32-.04-.65.04-.95.1-.38.25-.74.78-.75.52,0,.71.31.81.71.07.26.04.55.04.83,0,1.48-.01,2.95,0,4.43.02,2.27-.84,4.21-2.15,6.01-.28.39-.63.24-.97.25-.07-.01-.14-.03-.2-.04Z"/>
      <path class="cls-2" d="M12.35,70.76c-.69,1.86.31,3.54.2,5.32-.08,1.36-.36,2.65-.71,3.95-.11.42-.31.72-.69.9-1.14-.7-1.24-.96-.79-2.08.67-1.66.78-3.35.2-5.06-.17-.51-.2-1.01-.2-1.52,0-1.35.3-1.61,1.98-1.51Z"/>
    </g>
    <g>
      <path class="cls-1" d="M68.5,49.37c2.5.74,5.08,1.46,7,3.25,1.61,1.5,3.18,3.13,3.95,5.38.44,1.27,1.02,2.51,1.09,3.84.09,1.63.39,3.38-1.03,4.7-.54.71-1.25.85-2.08.63-.84-.43-1.85-.72-2.11-1.77-.16-.65-.4-1.26-.61-1.89-.22-.67-.46-1.31-.9-1.89-.35-.46-.61-1.01-.79-1.59-.24-.77-.59-1.47-1.31-1.91-.36.2-.37.47-.26.82.48,1.52.3,3.14.65,4.67.28,1.22-.29,2.42.16,3.62.16.42-.55.81-.23,1.32-.84.23-1.58.7-2.48.8-2.52.28-5.05.18-7.57.21-1.51.02-2.8-.35-4.08-1.02-.38-1.21-.24-2.48-.44-3.71-.03-.2.14-.45.23-.66.53-1.15.72-2.37.9-3.75-.84.62-.7,1.53-1.05,2.21-.83,1.65-1.85,3.11-3.33,4.25-.66.51-1.33.34-2.02.26-.65-.4-1.23-.89-1.75-1.45-.59-.72-.69-1.61-.68-2.45.02-1.66.36-3.22,1.14-4.77,1.49-2.96,3.87-4.99,6.44-6.88.67-.49,1.36-.93,1.83-1.65.21-.31.48-.64.89-.77,0,.08,0,.16,0,.24-.02,1.88.09,2.02,1.95,2.41.19.04.38.13.56.19,1,.33,2.05.29,3.07.24,1.44-.06,2.73-1.42,2.8-2.87l.05-.02Z"/>
      <path class="cls-14" d="M57.9,68.55c1.28.67,2.57,1.04,4.08,1.02,2.53-.03,5.05.07,7.57-.21.89-.1,1.64-.57,2.48-.8,1.69,1.7,2.13,3.89,2.42,6.15.13,1.01.41,2,.43,3.03.05,1.86-2.21,3.77-3.97,3.51-.4-.06-.79-.03-1.18.06-1.4-.03-2.72.4-4.06.71-1.07.03-2.15.06-3.22.08-1.38-.27-2.73-.65-4.04-1.17-.59-.22-1.26-.35-1.77-.64-1.01-.58-2.11-1.06-2.45-2.5-.32-1.34.04-2.46.44-3.63.2-.6.48-1.18.64-1.79.29-1.14,1.12-1.99,1.6-3.03.18-.39.66-.55,1.03-.79Z"/>
      <path class="cls-4" d="M59.81,43.62c-.37-.82-.2-1.71-.24-2.63-.76.1-1.14.37-1.22,1.17-.11,1.16-.37,2.31-1.12,3.29-.63.82-1.72.77-2.2-.15-.21-.4-.3-.83-.26-1.27.19-2.2.99-4.05,3-5.21,1.41-.81,2.82-.73,4.39-.11.24-.14.61-.34.97-.56,1.4-.87,3.61-.64,4.65.68.72.91,1.7,1.13,2.65,1.36,1.45.36,2.55,1.16,2.79,2.64.16.96.4,1.93.08,2.94-.18.6-.5.87-1.03.98-.55.11-.73-.31-.97-.69-.4-.63-.54-1.39-1.02-1.98-.33.22-.34.67-.7.83-.42.11-.84.19-1.26.32-.8.25-1.56.36-2.42.1-.53-.16-1.11-.3-1.74-.19-1.7.29-3.3.11-4.36-1.52Z"/>
      <path class="cls-12" d="M65.68,82.01c1.34-.31,2.66-.74,4.06-.71.9,4.18.99,8.34-.27,12.47-.58,0-.64.47-.77.87-.15.46-.49.81-.92.76-.5-.06-1.13-.13-1.23-.85-.02-.16-.08-.3-.21-.4-.36-1.54-.47-3.06-.38-4.67.08-1.56-.15-3.19-.36-4.77-.12-.91.34-1.79.09-2.69Z"/>
      <path class="cls-12" d="M59.81,43.62c1.06,1.63,2.66,1.82,4.36,1.52.63-.11,1.21.03,1.74.19.85.25,1.62.15,2.42-.1.41-.13.84-.22,1.26-.32.64.44.74.96.44,1.71-.39,1-.95,1.87-1.53,2.74l-.05.02c-.56-.47-1.04-.58-1.78-.14-1.26.74-2.63.9-4.07.25-.65-.29-1.2-.96-2.04-.77-1.33-1.28-1.62-3.28-.74-5.1Z"/>
      <path class="cls-12" d="M58.42,80.93c1.31.52,2.66.9,4.04,1.17-.03,1.49-.59,2.86-1.13,4.21-.47,1.16-.81,2.4-1.62,3.41-.19.23-.11.54-.15.81-.05.41-.19.78-.64.92-.38-.28-.76-.17-1.19-.08-.92.2-1.32-.17-1.3-1.1,0-.36.07-.7-.23-.97.16-1.53.69-2.94,1.27-4.36.3-.74.76-1.49.57-2.44-.09-.46.07-1.09.39-1.57Z"/>
      <path class="cls-11" d="M66.33,94.15c.13.1.19.23.21.4.1.72.73.79,1.23.85.44.05.78-.3.92-.76.13-.4.2-.86.77-.87.59.39.97.78.73,1.64-.21.76.22,1.57-.03,2.43-.56,2-2.99,3.02-4.72,1.86-.1-.07-.19-.15-.27-.23-1.46-1.47-.78-4.6,1.15-5.33Z"/>
      <path class="cls-11" d="M56.2,89.29c.3.27.24.61.23.97-.02.93.38,1.3,1.3,1.1.43-.1.81-.2,1.19.08.79,1.35.47,2.74.11,4.12-.09.36-.42.54-.81.61-1.54.29-2.96-.47-3.3-1.98-.28-1.25-.56-2.54-.14-3.84.26-.8.52-1.04,1.42-1.06Z"/>
      <path class="cls-8" d="M60.56,48.72c.84-.19,1.39.48,2.04.77,1.44.65,2.81.49,4.07-.25.74-.44,1.22-.33,1.78.14-.06,1.45-1.36,2.81-2.8,2.87-1.03.04-2.07.09-3.07-.24-.19-.06-.37-.15-.56-.19-1.85-.39-1.96-.52-1.95-2.41,0-.08,0-.16,0-.24.16-.15.32-.3.48-.46Z"/>
      <path class="cls-12" d="M50.45,65.7c.52.56,1.1,1.05,1.75,1.45-.14.36.11.69.11,1.09-.72.51-.65,1.37-.87,2.12-.31,1.03-.71,1.4-1.65,1.33-.94-.07-1.45-.63-1.48-1.67-.03-.97.13-1.94.76-2.69.46-.54.4-1.55,1.39-1.64Z"/>
      <path class="cls-12" d="M77.43,67.18c.82.21,1.54.08,2.08-.63.65,1.39,1.08,2.85,1.17,4.39.04.59-.14,1.14-.66,1.43-.57.31-1.1-.03-1.51-.39-.95-.82-1.77-1.7-1.2-3.15.2-.49-.07-1.1.12-1.65Z"/>
    </g>
    <path class="cls-7" d="M31.04,39.43c1.05,1.89,1.84,3.84,1.64,6.07-.1,1.14.08,2.29-.21,3.44-.14.54-.09,1.15.13,1.75.44,1.22.22,2.52.03,3.74-.16,1.09-.24,2.2-.44,3.29-.3,1.59-.83,2.23-2.15,2.44-1.85.05-3.65.46-5.48.71-.97.08-1.54-.74-2.34-1.04-.14-.05-.25-.19-.46-.16-.49.49-.93,1.03-.92,1.81,0,.26-.19.32-.37.4-.19-.02-.37,0-.57.04-1.36.26-2.72.43-3.98-.35-.18-1.25.02-2.44.56-3.56.47-.99.75-2.02.57-3.1-.23-1.37-.48-2.72-.45-4.11.02-.83-.28-1.54-.69-2.24-.46-.78-1.2-1.37-1.49-2.26.38-.21.76-.42,1.13-.63.74-.44,1.03-1.18.82-1.93-.19-.69-.15-1.4-.41-2.06.36-.38.39.05.55.21.34.36.62.86,1.26.65.63-.21.81-.69.78-1.3.48-.51,1.08-.55,1.74-.54,2.5.04,4.63-.92,6.46-2.58.29-.27.49-.63.88-.79.25.44.44.9.55,1.42.16.73.61,1.3,1.41,1.42.62.09.99-.42,1.45-.7Z"/>
    <path class="cls-5" d="M14.42,46.28c.29.89,1.03,1.48,1.49,2.26.41.7.7,1.41.69,2.24-.03,1.39.22,2.75.45,4.11.18,1.08-.11,2.11-.57,3.1-.53,1.13-.74,2.32-.56,3.56-.05.68-.36,1.28-.6,1.91-.38,1.02-1.11,1.94-.88,3.12-1.27.24-2.56.45-3.83.67-1.87.33-3.63-.27-5.28-1.17.34,0,.69.14.97-.25,1.31-1.8,2.16-3.74,2.15-6.01-.01-1.48,0-2.95,0-4.43,0-.28.03-.57-.04-.83-.1-.4-.29-.71-.81-.71-.53,0-.69.37-.78.75-.08.3-.04.63-.04.95,0,.81.11,1.61.09,2.44-.09,2.52-.46,4.92-1.74,7.13,0-.24-.01-.48-.02-.72-.05-1.21-.54-1.83-1.69-2.12-.38-.1-.78-.15-1.17-.22-.38-1.66-.22-3.28.18-4.93.16-.68.53-1.23.8-1.83.52-1.17.45-2.48.94-3.61.88-2.03,1.19-4.4,3.13-5.87.38-.28.75-.57,1.13-.85.36,1.3,1.26,1.86,2.55,2.09,1.31.24,2.39-.17,3.45-.81Z"/>
    <path class="cls-3" d="M31.04,39.43c-.46.28-.84.79-1.45.7-.8-.12-1.26-.69-1.41-1.42-.11-.51-.29-.97-.55-1.42.26-1.34.17-2.67-.31-3.94-.15-.4-.01-.73.1-1.03.41-1.07.67-2.06-.18-3.09-.27-.32-.21-.91-.32-1.37-.1-.42-.13-.89-.34-1.25-1.12-2-1-4.26-1.32-6.42-.21-1.45-.76-2.76-1.48-3.99-.46-.78-1.4-.98-2.21-1.28-.3-.11-.58-.27-.86-.4.03-.15.02-.32.08-.46.65-1.32.95-2.64.19-4.03-.15-.27-.1-.62.22-.84,1.07-.23,1.86-.82,2.73-1.51,1.48-1.18,3.3-1.8,5.3-1.24.81.23,1.63.35,2.43-.07.12.33.09.68.28,1.02.68,1.23,1.22,2.52,1.24,3.98.02,1.72.91,2.58,2.67,2.65-.37.32-.82.42-1.3.49-1.7.24-3.32,1.04-5.18.67-.04,1.82.36,3.43.53,5.06.22,2.13.8,4.19.89,6.34.08,2.16.38,4.33,1.09,6.4.25.73.31,1.47.09,2.2-.29,1-.24,2.03-.43,3.04-.09.45-.23.83-.47,1.19Z"/>
    <path class="cls-15" d="M18.55,41.21c.03.61-.15,1.08-.78,1.3-.65.22-.92-.29-1.26-.65-.16-.16-.19-.59-.55-.21-.13-.39-.34-.75-.34-1.18.22-.27.47-.51.69-.8.72-.96-.17-2.84-1.29-2.9-1.49-.08-3-.63-4.45.22-.22.13-.56.18-.81.11-.84-.22-1.53.09-2.22.5-1.24-1.61-1.72-3.32-1.34-5.41.24-1.31-.05-2.77-.34-4.11-.3-1.39-.63-2.81-.36-4.17.35-1.81.93-3.62,2.41-4.93.66-.58,1.29-1.19,1.62-2.03.39-1.01,1.23-1.6,2.04-2.23.95.89,1.97,1.62,3.38,1.49,0,.45-.07.88-.31,1.26-.27.45-.33,1-.16,1.39.47,1.07.44,2.24.9,3.32.48,1.12.85,2.3.76,3.57-.05.83-.11,1.67.18,2.49.09.25-.02.55-.04.82-.1,1.93-.65,3.88.32,5.76.16.31.17.69.25,1.03.19.85-.06,1.88.4,2.54.62.88.87,1.86,1.3,2.79Z"/>
    <path class="cls-13" d="M5.33,66.09c1.65.9,3.41,1.5,5.28,1.17,1.27-.22,2.56-.44,3.83-.67.41.34.18.81.25,1.22.19,1.23.21,2.5.98,3.57.18.93.27,1.88.55,2.78.51,1.67-.34,3.01-.97,4.39-.22.49-.83.54-1.33.6.37,1.98.12,3.85-.47,5.7-1.16,1.21-1.78,1.3-3.28.45.32-1.29.54-2.58.07-3.96-.39.17-.84.17-1.29.14-.97-.26-1.93-.51-2.9-.77-.93-.85-1.15-1.76-.58-2.98.6-1.28.95-2.68.58-4.13-.04-.15-.02-.33-.1-.46-1.03-1.85-1.7-3.83-2.03-5.92.35-.44,1.02-.56,1.21-1.17.07.01.14.03.2.04ZM12.35,70.76c-1.69-.1-1.98.16-1.98,1.51,0,.52.02,1.01.2,1.52.58,1.7.47,3.39-.2,5.06-.46,1.13-.36,1.38.79,2.08.38-.18.58-.48.69-.9.35-1.3.63-2.6.71-3.95.11-1.78-.89-3.46-.2-5.32Z"/>
    <path class="cls-12" d="M24.57,60.86c1.82-.25,3.63-.65,5.48-.71-.38,2.26-.38,4.55-.82,6.81-.28,1.42-.48,2.94-.43,4.45.03.99-.42,1.91-.61,2.88-.28,1.51-.57,3.01-.78,4.54-.14,1.04.06,1.96.46,2.87-1.04.09-2.17-.27-2.96.79-1.37-.57-2.07-1.75-2.98-2.71.37-.91.74-1.83,1.1-2.74.19-.49.03-1.02.09-1.5.28-2.49.13-4.98.23-7.46.04-1.13.43-2.24.57-3.37.16-1.29.77-2.51.64-3.85Z"/>
    <path class="cls-4" d="M11.06,13.98c-.88.02-1.01-.67-1.3-1.36-.63-.01-1.41-.28-1.49-.97-.1-.83-.48-1.86.55-2.49.1-.06.23-.14.26-.24.44-1.51,1.78-2.4,2.55-3.68.53-.87,1.85-1.37,2.91-1.12.58.13,1.06.09,1.54-.31.6-.5,1.33-.54,2.02-.22.96.44,1.97.78,2.89,1.33,1.21.72,1.51,2.29.55,3.33-.18.2-.43.35-.64.52-1.11.57-2.11-.07-3.11-.43-.64.83-1.42,1.17-2.34,1.18-.9,1.2-.46,3.21-2.3,3.86-.28-.48-.3-1.04-.9-1.23-.37.09-.78.21-1.14.57-.02.39-.04.83-.06,1.26Z"/>
    <path class="cls-12" d="M11.06,13.98c.02-.43.04-.87.06-1.26.36-.37.77-.49,1.14-.57.6.19.61.74.9,1.23,1.84-.66,1.4-2.66,2.3-3.86.92,0,1.69-.35,2.34-1.18.99.36,1.99,1,3.11.43.1.15.2.29.3.44-.31.22-.36.57-.22.84.76,1.4.45,2.72-.19,4.03-.07.13-.06.3-.08.46-.2.54-.65,1.01-.43,1.68.26.77-.02,1.49-.37,2.15-.49.93-1.4,1.21-2.34.74-.9-.45-1.67-1.06-2.01-2.09-.1-.3-.12-.75-.61-.78-1.4.13-2.42-.6-3.38-1.49-.17-.25-.34-.51-.51-.76Z"/>
    <path class="cls-12" d="M35.84,14.03c-1.76-.07-2.65-.94-2.67-2.65-.02-1.46-.56-2.74-1.24-3.98-.19-.34-.16-.69-.28-1.02.08-.83-.05-1.85.57-2.38,1.05-.89,1.43-1.98,1.74-3.23.19-.78,1.05-.96,1.97-.6.13.17.2.41.12.56-.6,1.14.18,1.81.84,2.5.57.59.91,1.26,1.1,2.06.22.92.11,1.65-.52,2.41-.81.97-.89,2.1-.44,3.33.43,1.17-.12,2.36-1.21,2.99Z"/>
    <path class="cls-4" d="M7.54,37.62c.68-.41,1.38-.72,2.22-.5.25.06.59.02.81-.11,1.45-.85,2.96-.3,4.45-.22,1.11.06,2.01,1.94,1.29,2.9-.21.28-.46.53-.69.8-.62.31-1.2.22-1.82-.06-1.25-.56-2.13-.27-2.7.93-.32.68-.72.6-1.23.28-.35-.22-.71-.39-1.08-.04-.34.32-.49.73-.37,1.19.07.26.17.53.3.77.2.37.04.59-.28.76-.55-.01-.96-.16-1.2-.75-.27-.68-.93-1.15-.96-1.98-.02-.69-.02-1.36.34-1.94.39-.64.45-1.42.93-2.01Z"/>
    <path class="cls-12" d="M8.43,44.3c.32-.17.47-.39.28-.76-.13-.24-.23-.5-.3-.77-.12-.46.03-.86.37-1.19.37-.35.73-.18,1.08.04.51.32.91.4,1.23-.28.57-1.2,1.45-1.49,2.7-.93.62.28,1.2.37,1.82.06,0,.42.22.79.34,1.18.26.66.22,1.38.41,2.06.21.75-.07,1.49-.82,1.93-.37.22-.75.42-1.13.63-1.06.65-2.14,1.05-3.45.81-1.29-.23-2.19-.8-2.55-2.09,0-.23,0-.46,0-.69Z"/>
    <path class="cls-6" d="M21.93,79.79c.91.95,1.62,2.14,2.98,2.71.79-1.05,1.93-.7,2.96-.79.84.91,1.96,1.45,2.92,2.19.89.69,1.24,1.62.94,2.58-.4,1.26-1,1.7-2.36,1.71-2.28.02-3.56-.97-4.38-3.4-.04-.11-.1-.21-.17-.34-1.14-.18-1.97-.96-2.84-1.61-1.15-.86-1.12-1.6-.05-3.05Z"/>
    <path class="cls-12" d="M15.66,71.38c-.77-1.07-.79-2.34-.98-3.57-.06-.41.16-.88-.25-1.22-.23-1.19.5-2.11.88-3.12.23-.63.54-1.22.6-1.91,1.27.78,2.63.61,3.98.35.2-.04.38-.07.57-.04-.43.58-.26,1.3-.46,1.94-.68,2.19-1.39,4.35-2.87,6.17-.44.54-.65,1.28-1.47,1.4Z"/>
    <path class="cls-16" d="M8.19,84.62c.25.68.39,1.31-.1,2.01-.36.52.45,2,1.24,2.49.27.17.61.24.82.46.39.4,1.08.64.84,1.42-.29.98-.84,1.41-1.75,1.52-1.54.19-2.5-.77-3.39-1.74-.28-.31-.5-.58-.9-.65-1.36-.26-2.1-1.15-2.48-2.43.38-.72,1.08-1.03,1.7-1.43.24.14.46.3.71.41,1.32.55,2.45.03,2.96-1.33.09-.24.06-.56.34-.72Z"/>
    <path class="cls-12" d="M5.12,66.05c-.19.61-.86.72-1.21,1.17-.34.1-.68.23-1.02.29-.92.17-1.74-.01-2.36-.77-.63-.75-.62-1.6-.37-2.47.31-1.08,1.2-1.63,2.07-2.18.39.07.78.12,1.17.22,1.16.3,1.64.92,1.69,2.12,0,.24.01.48.02.72,0,.3,0,.6,0,.91Z"/>
    <path class="cls-12" d="M8.19,84.62c-.28.16-.25.47-.34.72-.51,1.36-1.65,1.88-2.96,1.33-.25-.1-.47-.27-.71-.41-.24-1.4,0-2.71.85-3.86.4-.54.39-1.3,1.01-1.7.97.26,1.93.51,2.9.77-.15,1.07-.38,2.12-.76,3.14Z"/>
    <path class="cls-16" d="M10.17,85.3c1.5.84,2.12.76,3.28-.45.07.69.7.86,1.15,1.09.36.19.67.43.95.68.61.55.46,1.25-.27,1.58-1.32.59-2.14.45-3.18-.55-.28-.27-.53-.55-.94-.69-.75-.26-1.17-.8-.98-1.66Z"/>
    <path class="cls-10" d="M14.94,16.23c.5.02.51.47.61.78.34,1.03,1.1,1.64,2.01,2.09.94.47,1.86.19,2.34-.74.35-.66.63-1.38.37-2.15-.22-.66.23-1.13.43-1.68.29.14.57.29.86.4.81.3,1.75.49,2.21,1.28.72,1.23,1.27,2.53,1.48,3.99.32,2.16.2,4.42,1.32,6.42.21.37.24.83.34,1.25.11.46.05,1.05.32,1.37.85,1.03.6,2.02.18,3.09-.11.3-.25.62-.1,1.03.48,1.27.57,2.6.31,3.94-.38.16-.59.53-.88.79-1.83,1.67-3.96,2.62-6.46,2.58-.66,0-1.26.03-1.74.54-.43-.93-.68-1.91-1.3-2.79-.46-.66-.2-1.69-.4-2.54-.08-.34-.09-.72-.25-1.03-.96-1.88-.42-3.83-.32-5.76.01-.27.13-.57.04-.82-.29-.82-.23-1.67-.18-2.49.08-1.28-.29-2.45-.76-3.57-.46-1.07-.43-2.25-.9-3.32-.17-.39-.12-.94.16-1.39.23-.38.31-.82.31-1.26Z"/>
    <path class="cls-9" d="M5.12,66.05c0-.3,0-.6,0-.91,1.27-2.21,1.65-4.61,1.74-7.13.03-.83-.08-1.63-.09-2.44,0-.32-.04-.65.04-.95.1-.38.25-.74.78-.75.52,0,.71.31.81.71.07.26.04.55.04.83,0,1.48-.01,2.95,0,4.43.02,2.27-.84,4.21-2.15,6.01-.28.39-.63.24-.97.25-.07-.01-.14-.03-.2-.04Z"/>
    <path class="cls-2" d="M12.35,70.76c-.69,1.86.31,3.54.2,5.32-.08,1.36-.36,2.65-.71,3.95-.11.42-.31.72-.69.9-1.14-.7-1.24-.96-.79-2.08.67-1.66.78-3.35.2-5.06-.17-.51-.2-1.01-.2-1.52,0-1.35.3-1.61,1.98-1.51Z"/>
    <path class="cls-1" d="M68.5,49.37c2.5.74,5.08,1.46,7,3.25,1.61,1.5,3.18,3.13,3.95,5.38.44,1.27,1.02,2.51,1.09,3.84.09,1.63.39,3.38-1.03,4.7-.54.71-1.25.85-2.08.63-.84-.43-1.85-.72-2.11-1.77-.16-.65-.4-1.26-.61-1.89-.22-.67-.46-1.31-.9-1.89-.35-.46-.61-1.01-.79-1.59-.24-.77-.59-1.47-1.31-1.91-.36.2-.37.47-.26.82.48,1.52.3,3.14.65,4.67.28,1.22-.29,2.42.16,3.62.16.42-.55.81-.23,1.32-.84.23-1.58.7-2.48.8-2.52.28-5.05.18-7.57.21-1.51.02-2.8-.35-4.08-1.02-.38-1.21-.24-2.48-.44-3.71-.03-.2.14-.45.23-.66.53-1.15.72-2.37.9-3.75-.84.62-.7,1.53-1.05,2.21-.83,1.65-1.85,3.11-3.33,4.25-.66.51-1.33.34-2.02.26-.65-.4-1.23-.89-1.75-1.45-.59-.72-.69-1.61-.68-2.45.02-1.66.36-3.22,1.14-4.77,1.49-2.96,3.87-4.99,6.44-6.88.67-.49,1.36-.93,1.83-1.65.21-.31.48-.64.89-.77,0,.08,0,.16,0,.24-.02,1.88.09,2.02,1.95,2.41.19.04.38.13.56.19,1,.33,2.05.29,3.07.24,1.44-.06,2.73-1.42,2.8-2.87l.05-.02Z"/>
    <path class="cls-14" d="M57.9,68.55c1.28.67,2.57,1.04,4.08,1.02,2.53-.03,5.05.07,7.57-.21.89-.1,1.64-.57,2.48-.8,1.69,1.7,2.13,3.89,2.42,6.15.13,1.01.41,2,.43,3.03.05,1.86-2.21,3.77-3.97,3.51-.4-.06-.79-.03-1.18.06-1.4-.03-2.72.4-4.06.71-1.07.03-2.15.06-3.22.08-1.38-.27-2.73-.65-4.04-1.17-.59-.22-1.26-.35-1.77-.64-1.01-.58-2.11-1.06-2.45-2.5-.32-1.34.04-2.46.44-3.63.2-.6.48-1.18.64-1.79.29-1.14,1.12-1.99,1.6-3.03.18-.39.66-.55,1.03-.79Z"/>
    <path class="cls-4" d="M59.81,43.62c-.37-.82-.2-1.71-.24-2.63-.76.1-1.14.37-1.22,1.17-.11,1.16-.37,2.31-1.12,3.29-.63.82-1.72.77-2.2-.15-.21-.4-.3-.83-.26-1.27.19-2.2.99-4.05,3-5.21,1.41-.81,2.82-.73,4.39-.11.24-.14.61-.34.97-.56,1.4-.87,3.61-.64,4.65.68.72.91,1.7,1.13,2.65,1.36,1.45.36,2.55,1.16,2.79,2.64.16.96.4,1.93.08,2.94-.18.6-.5.87-1.03.98-.55.11-.73-.31-.97-.69-.4-.63-.54-1.39-1.02-1.98-.33.22-.34.67-.7.83-.42.11-.84.19-1.26.32-.8.25-1.56.36-2.42.1-.53-.16-1.11-.3-1.74-.19-1.7.29-3.3.11-4.36-1.52Z"/>
    <path class="cls-12" d="M65.68,82.01c1.34-.31,2.66-.74,4.06-.71.9,4.18.99,8.34-.27,12.47-.58,0-.64.47-.77.87-.15.46-.49.81-.92.76-.5-.06-1.13-.13-1.23-.85-.02-.16-.08-.3-.21-.4-.36-1.54-.47-3.06-.38-4.67.08-1.56-.15-3.19-.36-4.77-.12-.91.34-1.79.09-2.69Z"/>
    <path class="cls-12" d="M59.81,43.62c1.06,1.63,2.66,1.82,4.36,1.52.63-.11,1.21.03,1.74.19.85.25,1.62.15,2.42-.1.41-.13.84-.22,1.26-.32.64.44.74.96.44,1.71-.39,1-.95,1.87-1.53,2.74l-.05.02c-.56-.47-1.04-.58-1.78-.14-1.26.74-2.63.9-4.07.25-.65-.29-1.2-.96-2.04-.77-1.33-1.28-1.62-3.28-.74-5.1Z"/>
    <path class="cls-12" d="M58.42,80.93c1.31.52,2.66.9,4.04,1.17-.03,1.49-.59,2.86-1.13,4.21-.47,1.16-.81,2.4-1.62,3.41-.19.23-.11.54-.15.81-.05.41-.19.78-.64.92-.38-.28-.76-.17-1.19-.08-.92.2-1.32-.17-1.3-1.1,0-.36.07-.7-.23-.97.16-1.53.69-2.94,1.27-4.36.3-.74.76-1.49.57-2.44-.09-.46.07-1.09.39-1.57Z"/>
    <path class="cls-11" d="M66.33,94.15c.13.1.19.23.21.4.1.72.73.79,1.23.85.44.05.78-.3.92-.76.13-.4.2-.86.77-.87.59.39.97.78.73,1.64-.21.76.22,1.57-.03,2.43-.56,2-2.99,3.02-4.72,1.86-.1-.07-.19-.15-.27-.23-1.46-1.47-.78-4.6,1.15-5.33Z"/>
    <path class="cls-11" d="M56.2,89.29c.3.27.24.61.23.97-.02.93.38,1.3,1.3,1.1.43-.1.81-.2,1.19.08.79,1.35.47,2.74.11,4.12-.09.36-.42.54-.81.61-1.54.29-2.96-.47-3.3-1.98-.28-1.25-.56-2.54-.14-3.84.26-.8.52-1.04,1.42-1.06Z"/>
    <path class="cls-8" d="M60.56,48.72c.84-.19,1.39.48,2.04.77,1.44.65,2.81.49,4.07-.25.74-.44,1.22-.33,1.78.14-.06,1.45-1.36,2.81-2.8,2.87-1.03.04-2.07.09-3.07-.24-.19-.06-.37-.15-.56-.19-1.85-.39-1.96-.52-1.95-2.41,0-.08,0-.16,0-.24.16-.15.32-.3.48-.46Z"/>
    <path class="cls-12" d="M83.06,59.81c.52.56,1.1,1.05,1.75,1.45-.14.36.11.69.11,1.09-.72.51-.65,1.37-.87,2.12-.31,1.03-.71,1.4-1.65,1.33-.94-.07-1.45-.63-1.48-1.67-.03-.97.13-1.94.76-2.69.46-.54.4-1.55,1.39-1.64Z"/>
    <path class="cls-12" d="M77.43,67.18c.82.21,1.54.08,2.08-.63.65,1.39,1.08,2.85,1.17,4.39.04.59-.14,1.14-.66,1.43-.57.31-1.1-.03-1.51-.39-.95-.82-1.77-1.7-1.2-3.15.2-.49-.07-1.1.12-1.65Z"/>
  </g>
</svg>