<?xml version="1.0" encoding="UTF-8"?>
<svg id="_レイヤー_2" data-name="レイヤー 2" xmlns="http://www.w3.org/2000/svg" viewBox="0 0 67.8 86.9">
  <defs>
    <style>
      .cls-1 {
        fill: #20acde;
      }

      .cls-2 {
        fill: #7c7c7c;
      }

      .cls-3 {
        fill: #eeece9;
      }

      .cls-4 {
        fill: #e7dfd4;
      }

      .cls-5 {
        fill: #231815;
      }

      .cls-6 {
        fill: #7f5123;
      }

      .cls-7 {
        fill: #7d7d7d;
      }

      .cls-8 {
        fill: #413876;
      }

      .cls-9 {
        fill: #5b4e97;
      }

      .cls-10 {
        fill: #efb354;
      }

      .cls-11 {
        fill: #7b7b7c;
      }

      .cls-12 {
        fill: #21acde;
      }
    </style>
  </defs>
  <g id="_レイヤー_1-2" data-name="レイヤー 1">
    <g>
      <path class="cls-9" d="M50.91,47.17c-1.23-.77-1.42-1.35-1.03-2.76.36-1.28,1.09-2.49.94-3.88-.19-1.76.2-3.42.7-5.08.09-.3.08-.63,0-.94.77,0,1.51-.2,2.15-.62,2.29-1.51,4.21-3.45,6.02-5.5.23-.26.24-.58.38-.86.17-.32.15-.64-.17-.84-.33-.21-.74-.22-.98.09-.61.78-1.42,1.36-2.06,2.11-1.42,1.66-2.9,3.24-5.03,4.03-.58.21-1.1.53-.98,1.3-1.42.57-2.96.69-4.38,1.23-1.37-.63-2.05-1.67-1.91-3.2.82-1.31,1.57-2.65,1.27-4.29.75-1.9,1.18-3.91,2.45-5.64,1.27-1.72,2.59-3.4,3.73-5.22,1.01-1.62,2.57-2.68,4.32-3.45.68,1.16.68,1.15,1.92.77.22-.07.46-.11.69-.1.59.02,1.08-.19,1.5-.59.32-.3.7-.49,1.11-.63.81.27,1.05,1.08,1.42,1.68.55.9,1.07,1.83,1.37,2.89.25.89.45,1.86,1.2,2.55.16.15.26.41.31.64.5,2.22,1.17,4.4.84,6.76-.2,1.44.05,2.93.2,4.39.07.71.06,1.43-.16,2.13-.18.6.09,1.18.11,1.78.02.87.2,1.76-.04,2.62-.09.32.03.55.15.79.35.71.4,1.44.13,2.18-.13.36-.14.68-.04,1.05.16.55.13,1.1-.03,1.65-.06.19-.14.42-.08.58.44,1.28-.36,2.08-1.08,2.92-.52-.46-1.09-.54-1.77-.4-1.15.23-2.27.49-3.5.18-.83-.21-1.78-.28-2.64-.23-1.82.1-3.6-.03-5.37-.35-.64-.11-1.14-.07-1.66.25ZM47.17,29.15c1.07-.26,1.91-.7,2.59-1.59.7-.92,1.64-1.69,2.39-2.57.87-1.02,1.94-1.97,2.18-3.45.09-.56,0-.98-.48-1.17-.49-.19-.88.17-1.04.59-.63,1.74-1.91,2.98-3.16,4.25-.84.85-1.7,1.67-2.41,2.64-.29.4-.6.77-.08,1.3Z"/>
      <path class="cls-6" d="M50.91,47.17c.52-.33,1.02-.37,1.66-.25,1.77.32,3.55.45,5.37.35.86-.05,1.81.02,2.64.23,1.23.3,2.35.05,3.5-.18.68-.14,1.25-.05,1.77.4.61,1.34.37,2.77.49,4.16.13,1.5-.42,2.94-.35,4.41.06,1.23.11,2.46.24,3.69.06.52.08,1.01,0,1.52-.13.72.11,1.42.19,2.13.27,2.52.67,5.03.73,7.56.02.72.45,1.33.39,2.09-.12,1.62-.12,3.24-.16,4.87,0,.32.04.64.06.95-.61.27-1.26.52-1.87.65-1.28.26-2.69.72-3.72-.66.02-.15.12-.35.06-.46-1.47-2.41-1.87-5.21-2.9-7.78-.1-.26-.22-.53-.23-.8,0-1.65-.66-3.12-1.13-4.66-.33-1.07-.11-2.31-.36-3.42-.37-1.63-.26-3.27-.16-4.98-.76.09-1.08.53-1.22,1-.46,1.51-1.33,2.89-1.38,4.52,0,.24-.13.48-.09.71.37,2.14-.17,4.28,0,6.41.04.51.05,1.02-.18,1.52-.29.63.18,1.23.21,1.86.04.98.25,1.95.38,2.93-1.25.36-2.5.73-3.75,1.09-1.47.43-2.53-.02-3.07-1.3.08-.61-.36-1.03-.54-1.54-.46-1.33-.3-2.79-.91-4.12-.23-.49-.16-1.22,0-1.77.26-.89.04-1.74-.05-2.59-.26-2.46-.25-4.92-.27-7.38,0-.67.26-1.23.52-1.81.55-1.22,1.19-2.41,1.6-3.68.29-.9.4-1.85.98-2.65.44-.6.84-1.2.82-2.03,0-.4.29-.82.73-1.03Z"/>
      <path class="cls-5" d="M43.19,38.36c-.75,1.21-1.58,2.37-2.23,3.64-.24.48-.63.8-1.28.93-.94.19-1.45,1.06-1.79,1.9-.32.77-.36,1.62-.31,2.46.04.76-.18,1.46-.74,1.94-.97.82-1.29,2.07-2.09,2.99-.92,1.07-1.6,2.37-3.02,2.93-.71.28-.89,1.04-1.1,1.64-.4,1.19-1.13,2.16-1.75,3.22-.52.88-.53,1.8-.13,2.7.62,1.38.28,2.62-1.01,3.46-.26.17-.47.43-.69.65-.39.39-.75.79-1.36.9-.71.13-1.1.73-1.61,1.38,2.7,2.83,3.99,6.61,6.35,9.75.29.06.59-.09.9-.11.97-.06,1.83.26,2.39,1.05.91,1.29,1.5,2.7,1.2,4.34-.1.56-.31,1.03-.75,1.44-1.57,1.45-3.41,1.73-5.16.72-.21-.12-.4-.25-.53-.46-.85-1.43-1.5-4.09-.21-5.85-2.67-3.1-4.65-6.63-6.44-10.51-1.86.46-3.77-.11-5.79-.59-.78,2.14-2.54,3.39-3.83,5.02-1.65,2.09-3.41,4.07-5.18,6.06-.29.32-.6.63-.91.96,1.24.91,1.08,2.21,1,3.45-.03.44-.56.64-.86.94-1.12,1.12-2.54,1.54-4.01,1.24-.6-.12-1.01-.44-1.31-.92-.28-.43-.5-.91-.79-1.34-.18-.26-.09-.51-.11-.78-.12-1.73,1.06-2.49,2.31-3.2.34-.19.67-.49,1.07-.45.55.06.84-.25,1.05-.63,1.01-1.89,2.42-3.51,3.75-5.15,1.28-1.59,2.45-3.29,3.86-4.77.41-.43.53-.85.41-1.44-.87-.37-1.53-1.02-1.97-1.9.18-.39.5-.73.53-1.19.68-.08.84-.97,1.56-1.01.83.3,1.61.73,2.42,1.27.87-1.21,2.27-1.73,3.21-2.82-.21-.23-.38-.4-.52-.59-.73-.98-1.62-1.9-2.03-3.05-.27-.75-.73-1.35-1.03-2.05-.17-.26-.36-.51-.5-.79-.41-.84-.34-1.68.19-2.22.65-.65,1.39-.64,2.17-.26.97.85,1.56,1.97,2.19,3.07.6,1.04.82,2.33,1.98,3.08.48-.43.93-.98,1.6-1.14.28-.07.54-.14.73-.35,1.11-1.19,2.22-2.39,3.33-3.59.23-.25.33-.54.28-.88.59-.57,1.45-.85,1.79-1.69l.62-.59c.74-.24.65-1.11,1.24-1.5-.3-.1-.48-.01-.67.05-.61-.13-1.04-.41-1.26-1.07-.25-.75-.79-1.35-1.32-1.94-.48-.53-.93-1.09-.92-1.87.09-.64.42-1.09,1.01-1.37.88-.42,1.56-.25,2.35.74,1.12,1.4,1.99,2.9,1.27,4.83.8-.64,1.51-1.18,1-2.42-.42-1.02-.26-2.22-.76-3.29-.38-.81-.75-1.54-1.48-2.11-.58-.45-.79-1.24-.86-1.9-.1-1.03-.35-2.03-.47-3.05-.1-.8.28-1.47.92-1.78.93-.45,1.15-.39,1.77.47.64.89,1.28,1.79,1.76,2.47,2,1.29,3.83,2.41,5.36,4.07.62-1.07.88-2.54,1.88-3.6.66-1.06,1.05-1.26,2.12-1.06.93.17,1.11.39,1.27,1.49ZM30.95,81.77c-.53-.02-.96.39-1,.95-.04.63.49,1.22,1.15,1.29.54.05,1-.38,1-.93,0-.61-.59-1.29-1.15-1.31ZM4.51,83.01c.05-.66-.24-1.03-.84-1.06-.59-.03-1.06.4-1.12,1-.05.59.41,1.17.92,1.17.53,0,.98-.49,1.03-1.12Z"/>
      <path class="cls-10" d="M61.55,13.1c-.41.15-.8.33-1.11.63-.42.4-.91.61-1.5.59-.23,0-.47.04-.69.1-1.24.38-1.25.39-1.92-.77-.08-.35-.33-.22-.56-.21-1.3.04-1.7-.31-2.31-1.41-.88-1.61-.93-3.41-1.38-5.12-.3-1.17,1.04-3.82,2.68-4.23,1.23,1.12,2.85,1.68,4.12,2.74.33.28.69.35,1.1.16.62-.29.92.04,1.2.56.31.59.11,1.03-.19,1.53-.56.93-.42,2.7.23,3.55-.15.23-.26.43-.07.72.24.34.48.7.41,1.16Z"/>
      <path class="cls-5" d="M61.21,11.22c-.65-.85-.79-2.62-.23-3.55.3-.5.5-.94.19-1.53-.28-.53-.58-.86-1.2-.56-.41.19-.77.12-1.1-.16-1.28-1.06-2.89-1.61-4.12-2.74-.44-.66-.73-1.34-.12-2.06.45-.53,1.8-.79,2.52-.49.91.38,1.88.34,2.83.34.41,0,.8.04,1.17.18.85.32,1.61.81,2.37,1.3.41.27.7.66.7,1.19,0,.99.19,1.95.62,2.84.38.78,0,1.56-.01,2.33-.02.85-.62,1.32-1.43,1.54-.37.1-.56.45-.76.73-.37.5-.83.71-1.43.64Z"/>
      <path class="cls-1" d="M14.61,56.54c.31.7.77,1.3,1.03,2.05.41,1.15,1.29,2.07,2.03,3.05.14.19.32.36.52.59-.94,1.09-2.35,1.61-3.21,2.82-.81-.54-1.59-.97-2.42-1.27-.72.04-.88.92-1.56,1.01-.42-.93-.51-2.09-1.7-2.5.02-.18.05-.35.07-.53.22-.19.44-.38.65-.57.48-.14.93-.32,1.2-.74-.17-.48-.5-.54-.87-.52-.88-.57-1.43-1.31-1.26-2.42.54-.89,1.38-1.19,2.37-1.18,1.05.01,2.11-.08,3.15.22Z"/>
      <path class="cls-12" d="M26.58,53.46c.05.34-.05.63-.28.88-1.11,1.19-2.22,2.39-3.33,3.59-.2.21-.45.28-.73.35-.67.17-1.12.71-1.6,1.14-1.16-.75-1.38-2.03-1.98-3.08-.63-1.1-1.21-2.22-2.19-3.07.77-.45,1.49-1.1,2.49-.54.62-1.49,1.87-1.8,3.25-1.87.32.23.68.42.94.7.8.85,1.79,1.26,2.92,1.39.14.2.25.42.5.5Z"/>
      <path class="cls-10" d="M26.08,52.96c-1.13-.12-2.12-.54-2.92-1.39-.26-.28-.63-.47-.94-.7.13-.56-.17-1.08-.18-1.64-.06-2.67,1.07-3.76,3.46-4.22.19-.04.37-.11.56-.16,0,.78.45,1.34.92,1.87.53.59,1.08,1.19,1.32,1.94.22.67.65.94,1.26,1.07-.32.43-.42.95-.58,1.45l-.62.59c-.75.42-1.6.64-2.29,1.18Z"/>
      <path class="cls-10" d="M43.19,38.36c-.16-1.11-.33-1.32-1.27-1.49-1.07-.2-1.46,0-2.12,1.06-.78-.92-1.2-1.92-.73-3.13.07-.18.18-.37.19-.56.01-1.65,1.18-2.01,2.46-2.15.94-.1,1.9-.12,2.83.16-.14,1.53.54,2.57,1.91,3.2-.09.22-.21.43-.26.65-.36,1.61-1.48,2.21-3.01,2.26Z"/>
      <path class="cls-7" d="M48.02,75.77c.54,1.28,1.6,1.73,3.07,1.3,1.25-.36,2.5-.73,3.75-1.09.14,1.67-.13,1.99-1.65,2.68-.86.39-1.76.67-2.62,1.09-1.12.54-2.28.56-3.44.1-1.08-.43-1.35-1.56-.5-2.36.54-.52,1.01-1.08,1.39-1.72Z"/>
      <path class="cls-7" d="M61.83,79.1c1.03,1.38,2.44.92,3.72.66.62-.13,1.27-.37,1.87-.65.73,1.26.38,2.52-.96,3.14-1.55.72-3.18.57-4.81.34-.11-.02-.22-.09-.33-.13-1.3-.46-1.72-.91-1.6-1.71.1-.67,1.19-1.53,2.11-1.65Z"/>
      <path class="cls-8" d="M50.84,34.21c-.11-.77.41-1.08.98-1.3,2.13-.78,3.61-2.36,5.03-4.03.64-.75,1.45-1.32,2.06-2.11.25-.32.65-.3.98-.09.32.2.34.52.17.84-.15.28-.16.6-.38.86-1.81,2.05-3.73,3.98-6.02,5.5-.63.42-1.37.62-2.15.62-.22-.1-.45-.2-.67-.3Z"/>
      <path class="cls-10" d="M10.03,61.19c-.22.19-.44.38-.65.57-.74.08-1.51.31-2.09-.42-.67-.83-1.08-1.81-1.01-2.83.1-1.47,1.42-1.9,2.82-1.01-.17,1.11.38,1.85,1.26,2.42-.11.42-.22.84-.33,1.26Z"/>
      <path class="cls-10" d="M9.31,62.3c1.18.41,1.27,1.57,1.7,2.5-.02.47-.34.8-.53,1.19-.62.4-1.27.68-1.97.2-.51-.34-1.1-2.18-.99-2.74.2-1.02.97-1.11,1.78-1.15Z"/>
      <path class="cls-8" d="M47.17,29.15c-.52-.53-.21-.9.08-1.3.71-.97,1.57-1.79,2.41-2.64,1.25-1.27,2.52-2.52,3.16-4.25.15-.42.55-.78,1.04-.59.48.19.57.6.48,1.17-.24,1.48-1.31,2.43-2.18,3.45-.75.88-1.69,1.65-2.39,2.57-.68.89-1.52,1.33-2.59,1.59Z"/>
      <path class="cls-2" d="M30.95,81.77c.56.02,1.15.7,1.15,1.31,0,.55-.46.98-1,.93-.66-.06-1.19-.66-1.15-1.29.04-.56.47-.98,1-.95Z"/>
      <path class="cls-11" d="M4.51,83.01c-.05.62-.5,1.12-1.03,1.12-.51,0-.97-.58-.92-1.17.05-.6.53-1.03,1.12-1,.59.03.89.4.84,1.06Z"/>
      <path class="cls-3" d="M26.08,52.96c.68-.55,1.54-.76,2.29-1.18-.34.84-1.2,1.12-1.79,1.69-.25-.08-.36-.31-.5-.5Z"/>
      <path class="cls-4" d="M28.99,51.18c.16-.5.26-1.02.58-1.45.19-.06.37-.15.67-.05-.59.39-.5,1.26-1.24,1.5Z"/>
    </g>
    <path class="cls-9" d="M50.91,47.17c-1.23-.77-1.42-1.35-1.03-2.76.36-1.28,1.09-2.49.94-3.88-.19-1.76.2-3.42.7-5.08.09-.3.08-.63,0-.94.77,0,1.51-.2,2.15-.62,2.29-1.51,4.21-3.45,6.02-5.5.23-.26.24-.58.38-.86.17-.32.15-.64-.17-.84-.33-.21-.74-.22-.98.09-.61.78-1.42,1.36-2.06,2.11-1.42,1.66-2.9,3.24-5.03,4.03-.58.21-1.1.53-.98,1.3-1.42.57-2.96.69-4.38,1.23-1.37-.63-2.05-1.67-1.91-3.2.82-1.31,1.57-2.65,1.27-4.29.75-1.9,1.18-3.91,2.45-5.64,1.27-1.72,2.59-3.4,3.73-5.22,1.01-1.62,2.57-2.68,4.32-3.45.68,1.16.68,1.15,1.92.77.22-.07.46-.11.69-.1.59.02,1.08-.19,1.5-.59.32-.3.7-.49,1.11-.63.81.27,1.05,1.08,1.42,1.68.55.9,1.07,1.83,1.37,2.89.25.89.45,1.86,1.2,2.55.16.15.26.41.31.64.5,2.22,1.17,4.4.84,6.76-.2,1.44.05,2.93.2,4.39.07.71.06,1.43-.16,2.13-.18.6.09,1.18.11,1.78.02.87.2,1.76-.04,2.62-.09.32.03.55.15.79.35.71.4,1.44.13,2.18-.13.36-.14.68-.04,1.05.16.55.13,1.1-.03,1.65-.06.19-.14.42-.08.58.44,1.28-.36,2.08-1.08,2.92-.52-.46-1.09-.54-1.77-.4-1.15.23-2.27.49-3.5.18-.83-.21-1.78-.28-2.64-.23-1.82.1-3.6-.03-5.37-.35-.64-.11-1.14-.07-1.66.25ZM47.17,29.15c1.07-.26,1.91-.7,2.59-1.59.7-.92,1.64-1.69,2.39-2.57.87-1.02,1.94-1.97,2.18-3.45.09-.56,0-.98-.48-1.17-.49-.19-.88.17-1.04.59-.63,1.74-1.91,2.98-3.16,4.25-.84.85-1.7,1.67-2.41,2.64-.29.4-.6.77-.08,1.3Z"/>
    <path class="cls-6" d="M50.91,47.17c.52-.33,1.02-.37,1.66-.25,1.77.32,3.55.45,5.37.35.86-.05,1.81.02,2.64.23,1.23.3,2.35.05,3.5-.18.68-.14,1.25-.05,1.77.4.61,1.34.37,2.77.49,4.16.13,1.5-.42,2.94-.35,4.41.06,1.23.11,2.46.24,3.69.06.52.08,1.01,0,1.52-.13.72.11,1.42.19,2.13.27,2.52.67,5.03.73,7.56.02.72.45,1.33.39,2.09-.12,1.62-.12,3.24-.16,4.87,0,.32.04.64.06.95-.61.27-1.26.52-1.87.65-1.28.26-2.69.72-3.72-.66.02-.15.12-.35.06-.46-1.47-2.41-1.87-5.21-2.9-7.78-.1-.26-.22-.53-.23-.8,0-1.65-.66-3.12-1.13-4.66-.33-1.07-.11-2.31-.36-3.42-.37-1.63-.26-3.27-.16-4.98-.76.09-1.08.53-1.22,1-.46,1.51-1.33,2.89-1.38,4.52,0,.24-.13.48-.09.71.37,2.14-.17,4.28,0,6.41.04.51.05,1.02-.18,1.52-.29.63.18,1.23.21,1.86.04.98.25,1.95.38,2.93-1.25.36-2.5.73-3.75,1.09-1.47.43-2.53-.02-3.07-1.3.08-.61-.36-1.03-.54-1.54-.46-1.33-.3-2.79-.91-4.12-.23-.49-.16-1.22,0-1.77.26-.89.04-1.74-.05-2.59-.26-2.46-.25-4.92-.27-7.38,0-.67.26-1.23.52-1.81.55-1.22,1.19-2.41,1.6-3.68.29-.9.4-1.85.98-2.65.44-.6.84-1.2.82-2.03,0-.4.29-.82.73-1.03Z"/>
    <path class="cls-5" d="M43.19,38.36c-.75,1.21-1.58,2.37-2.23,3.64-.24.48-.63.8-1.28.93-.94.19-1.45,1.06-1.79,1.9-.32.77-.36,1.62-.31,2.46.04.76-.18,1.46-.74,1.94-.97.82-1.29,2.07-2.09,2.99-.92,1.07-1.6,2.37-3.02,2.93-.71.28-.89,1.04-1.1,1.64-.4,1.19-1.13,2.16-1.75,3.22-.52.88-.53,1.8-.13,2.7.62,1.38.28,2.62-1.01,3.46-.26.17-.47.43-.69.65-.39.39-.75.79-1.36.9-.71.13-1.1.73-1.61,1.38,2.7,2.83,3.99,6.61,6.35,9.75.29.06.59-.09.9-.11.97-.06,1.83.26,2.39,1.05.91,1.29,1.5,2.7,1.2,4.34-.1.56-.31,1.03-.75,1.44-1.57,1.45-3.41,1.73-5.16.72-.21-.12-.4-.25-.53-.46-.85-1.43-1.5-4.09-.21-5.85-2.67-3.1-4.65-6.63-6.44-10.51-1.86.46-3.77-.11-5.79-.59-.78,2.14-2.54,3.39-3.83,5.02-1.65,2.09-3.41,4.07-5.18,6.06-.29.32-.6.63-.91.96,1.24.91,1.08,2.21,1,3.45-.03.44-.56.64-.86.94-1.12,1.12-2.54,1.54-4.01,1.24-.6-.12-1.01-.44-1.31-.92-.28-.43-.5-.91-.79-1.34-.18-.26-.09-.51-.11-.78-.12-1.73,1.06-2.49,2.31-3.2.34-.19.67-.49,1.07-.45.55.06.84-.25,1.05-.63,1.01-1.89,2.42-3.51,3.75-5.15,1.28-1.59,2.45-3.29,3.86-4.77.41-.43.53-.85.41-1.44-.87-.37-1.53-1.02-1.97-1.9.18-.39.5-.73.53-1.19.68-.08.84-.97,1.56-1.01.83.3,1.61.73,2.42,1.27.87-1.21,2.27-1.73,3.21-2.82-.21-.23-.38-.4-.52-.59-.73-.98-1.62-1.9-2.03-3.05-.27-.75-.73-1.35-1.03-2.05-.17-.26-.36-.51-.5-.79-.41-.84-.34-1.68.19-2.22.65-.65,1.39-.64,2.17-.26.97.85,1.56,1.97,2.19,3.07.6,1.04.82,2.33,1.98,3.08.48-.43.93-.98,1.6-1.14.28-.07.54-.14.73-.35,1.11-1.19,2.22-2.39,3.33-3.59.23-.25.33-.54.28-.88.59-.57,1.45-.85,1.79-1.69l.62-.59c.74-.24.65-1.11,1.24-1.5-.3-.1-.48-.01-.67.05-.61-.13-1.04-.41-1.26-1.07-.25-.75-.79-1.35-1.32-1.94-.48-.53-.93-1.09-.92-1.87.09-.64.42-1.09,1.01-1.37.88-.42,1.56-.25,2.35.74,1.12,1.4,1.99,2.9,1.27,4.83.8-.64,1.51-1.18,1-2.42-.42-1.02-.26-2.22-.76-3.29-.38-.81-.75-1.54-1.48-2.11-.58-.45-.79-1.24-.86-1.9-.1-1.03-.35-2.03-.47-3.05-.1-.8.28-1.47.92-1.78.93-.45,1.15-.39,1.77.47.64.89,1.28,1.79,1.76,2.47,2,1.29,3.83,2.41,5.36,4.07.62-1.07.88-2.54,1.88-3.6.66-1.06,1.05-1.26,2.12-1.06.93.17,1.11.39,1.27,1.49ZM30.95,81.77c-.53-.02-.96.39-1,.95-.04.63.49,1.22,1.15,1.29.54.05,1-.38,1-.93,0-.61-.59-1.29-1.15-1.31ZM4.51,83.01c.05-.66-.24-1.03-.84-1.06-.59-.03-1.06.4-1.12,1-.05.59.41,1.17.92,1.17.53,0,.98-.49,1.03-1.12Z"/>
    <path class="cls-10" d="M61.55,13.1c-.41.15-.8.33-1.11.63-.42.4-.91.61-1.5.59-.23,0-.47.04-.69.1-1.24.38-1.25.39-1.92-.77-.08-.35-.33-.22-.56-.21-1.3.04-1.7-.31-2.31-1.41-.88-1.61-.93-3.41-1.38-5.12-.3-1.17,1.04-3.82,2.68-4.23,1.23,1.12,2.85,1.68,4.12,2.74.33.28.69.35,1.1.16.62-.29.92.04,1.2.56.31.59.11,1.03-.19,1.53-.56.93-.42,2.7.23,3.55-.15.23-.26.43-.07.72.24.34.48.7.41,1.16Z"/>
    <path class="cls-5" d="M61.21,11.22c-.65-.85-.79-2.62-.23-3.55.3-.5.5-.94.19-1.53-.28-.53-.58-.86-1.2-.56-.41.19-.77.12-1.1-.16-1.28-1.06-2.89-1.61-4.12-2.74-.44-.66-.73-1.34-.12-2.06.45-.53,1.8-.79,2.52-.49.91.38,1.88.34,2.83.34.41,0,.8.04,1.17.18.85.32,1.61.81,2.37,1.3.41.27.7.66.7,1.19,0,.99.19,1.95.62,2.84.38.78,0,1.56-.01,2.33-.02.85-.62,1.32-1.43,1.54-.37.1-.56.45-.76.73-.37.5-.83.71-1.43.64Z"/>
    <path class="cls-1" d="M14.61,56.54c.31.7.77,1.3,1.03,2.05.41,1.15,1.29,2.07,2.03,3.05.14.19.32.36.52.59-.94,1.09-2.35,1.61-3.21,2.82-.81-.54-1.59-.97-2.42-1.27-.72.04-.88.92-1.56,1.01-.42-.93-.51-2.09-1.7-2.5.02-.18.05-.35.07-.53.22-.19.44-.38.65-.57.48-.14.93-.32,1.2-.74-.17-.48-.5-.54-.87-.52-.88-.57-1.43-1.31-1.26-2.42.54-.89,1.38-1.19,2.37-1.18,1.05.01,2.11-.08,3.15.22Z"/>
    <path class="cls-12" d="M26.58,53.46c.05.34-.05.63-.28.88-1.11,1.19-2.22,2.39-3.33,3.59-.2.21-.45.28-.73.35-.67.17-1.12.71-1.6,1.14-1.16-.75-1.38-2.03-1.98-3.08-.63-1.1-1.21-2.22-2.19-3.07.77-.45,1.49-1.1,2.49-.54.62-1.49,1.87-1.8,3.25-1.87.32.23.68.42.94.7.8.85,1.79,1.26,2.92,1.39.14.2.25.42.5.5Z"/>
    <path class="cls-10" d="M26.08,52.96c-1.13-.12-2.12-.54-2.92-1.39-.26-.28-.63-.47-.94-.7.13-.56-.17-1.08-.18-1.64-.06-2.67,1.07-3.76,3.46-4.22.19-.04.37-.11.56-.16,0,.78.45,1.34.92,1.87.53.59,1.08,1.19,1.32,1.94.22.67.65.94,1.26,1.07-.32.43-.42.95-.58,1.45l-.62.59c-.75.42-1.6.64-2.29,1.18Z"/>
    <path class="cls-10" d="M43.19,38.36c-.16-1.11-.33-1.32-1.27-1.49-1.07-.2-1.46,0-2.12,1.06-.78-.92-1.2-1.92-.73-3.13.07-.18.18-.37.19-.56.01-1.65,1.18-2.01,2.46-2.15.94-.1,1.9-.12,2.83.16-.14,1.53.54,2.57,1.91,3.2-.09.22-.21.43-.26.65-.36,1.61-1.48,2.21-3.01,2.26Z"/>
    <path class="cls-7" d="M48.02,75.77c.54,1.28,1.6,1.73,3.07,1.3,1.25-.36,2.5-.73,3.75-1.09.14,1.67-.13,1.99-1.65,2.68-.86.39-1.76.67-2.62,1.09-1.12.54-2.28.56-3.44.1-1.08-.43-1.35-1.56-.5-2.36.54-.52,1.01-1.08,1.39-1.72Z"/>
    <path class="cls-7" d="M61.83,79.1c1.03,1.38,2.44.92,3.72.66.62-.13,1.27-.37,1.87-.65.73,1.26.38,2.52-.96,3.14-1.55.72-3.18.57-4.81.34-.11-.02-.22-.09-.33-.13-1.3-.46-1.72-.91-1.6-1.71.1-.67,1.19-1.53,2.11-1.65Z"/>
    <path class="cls-8" d="M50.84,34.21c-.11-.77.41-1.08.98-1.3,2.13-.78,3.61-2.36,5.03-4.03.64-.75,1.45-1.32,2.06-2.11.25-.32.65-.3.98-.09.32.2.34.52.17.84-.15.28-.16.6-.38.86-1.81,2.05-3.73,3.98-6.02,5.5-.63.42-1.37.62-2.15.62-.22-.1-.45-.2-.67-.3Z"/>
    <path class="cls-10" d="M10.03,61.19c-.22.19-.44.38-.65.57-.74.08-1.51.31-2.09-.42-.67-.83-1.08-1.81-1.01-2.83.1-1.47,1.42-1.9,2.82-1.01-.17,1.11.38,1.85,1.26,2.42-.11.42-.22.84-.33,1.26Z"/>
    <path class="cls-10" d="M9.31,62.3c1.18.41,1.27,1.57,1.7,2.5-.02.47-.34.8-.53,1.19-.62.4-1.27.68-1.97.2-.51-.34-1.1-2.18-.99-2.74.2-1.02.97-1.11,1.78-1.15Z"/>
    <path class="cls-8" d="M47.17,29.15c-.52-.53-.21-.9.08-1.3.71-.97,1.57-1.79,2.41-2.64,1.25-1.27,2.52-2.52,3.16-4.25.15-.42.55-.78,1.04-.59.48.19.57.6.48,1.17-.24,1.48-1.31,2.43-2.18,3.45-.75.88-1.69,1.65-2.39,2.57-.68.89-1.52,1.33-2.59,1.59Z"/>
    <path class="cls-2" d="M30.95,81.77c.56.02,1.15.7,1.15,1.31,0,.55-.46.98-1,.93-.66-.06-1.19-.66-1.15-1.29.04-.56.47-.98,1-.95Z"/>
    <path class="cls-11" d="M4.51,83.01c-.05.62-.5,1.12-1.03,1.12-.51,0-.97-.58-.92-1.17.05-.6.53-1.03,1.12-1,.59.03.89.4.84,1.06Z"/>
    <path class="cls-3" d="M26.08,52.96c.68-.55,1.54-.76,2.29-1.18-.34.84-1.2,1.12-1.79,1.69-.25-.08-.36-.31-.5-.5Z"/>
    <path class="cls-4" d="M28.99,51.18c.16-.5.26-1.02.58-1.45.19-.06.37-.15.67-.05-.59.39-.5,1.26-1.24,1.5Z"/>
  </g>
</svg>