<?xml version="1.0" encoding="UTF-8"?>
<svg id="_レイヤー_2" data-name="レイヤー 2" xmlns="http://www.w3.org/2000/svg" viewBox="0 0 42.93 43.19">
  <defs>
    <style>
      .cls-1 {
        fill: #f39800;
      }

      .cls-2 {
        fill: #f8b62d;
      }
    </style>
  </defs>
  <g id="_レイヤー_1-2" data-name="レイヤー 1">
    <g>
      <g>
        <path class="cls-1" d="M31.43,21.51c0,5.5-4.46,9.96-9.96,9.96s-9.96-4.46-9.96-9.96,4.46-9.96,9.96-9.96,9.96,4.46,9.96,9.96Z"/>
        <path class="cls-2" d="M28.88,21.51c0,4.1-3.32,7.42-7.42,7.42s-7.42-3.32-7.42-7.42,3.32-7.42,7.42-7.42,7.42,3.32,7.42,7.42Z"/>
      </g>
      <g>
        <rect class="cls-2" x="20.33" width="2.26" height="10.3"/>
        <rect class="cls-2" x="20.33" y="32.9" width="2.26" height="10.3"/>
      </g>
      <g>
        <rect class="cls-2" x="20.33" width="2.26" height="10.3"/>
        <rect class="cls-2" x="20.33" y="32.9" width="2.26" height="10.3"/>
      </g>
      <g>
        <rect class="cls-2" x="13.38" y="1.54" width="2.26" height="10.29" transform="translate(-1.47 6.76) rotate(-25.01)"/>
        <rect class="cls-2" x="27.28" y="31.35" width="2.26" height="10.3" transform="translate(-12.76 15.42) rotate(-24.98)"/>
      </g>
      <g>
        <rect class="cls-2" x="7.73" y="5.88" width="2.26" height="10.29" transform="translate(-5.28 10.73) rotate(-50.01)"/>
        <rect class="cls-2" x="32.93" y="27.02" width="2.26" height="10.3" transform="translate(-12.47 37.59) rotate(-50.01)"/>
      </g>
      <g>
        <rect class="cls-2" x="4.45" y="12.19" width="2.26" height="10.3" transform="translate(-12.61 18.24) rotate(-75)"/>
        <rect class="cls-2" x="36.22" y="20.71" width="2.26" height="10.3" transform="translate(2.71 55.24) rotate(-75)"/>
      </g>
      <g>
        <rect class="cls-2" x=".12" y="23.32" width="10.3" height="2.26" transform="translate(-4.17 1.29) rotate(-10.01)"/>
        <rect class="cls-2" x="32.51" y="17.61" width="10.3" height="2.26" transform="translate(-2.67 6.8) rotate(-9.96)"/>
      </g>
      <g>
        <rect class="cls-2" x="2.84" y="29.9" width="10.29" height="2.26" transform="translate(-16.35 10.19) rotate(-34.99)"/>
        <rect class="cls-2" x="29.79" y="11.03" width="10.3" height="2.26" transform="translate(-.66 22.22) rotate(-34.98)"/>
      </g>
      <g>
        <rect class="cls-2" x="8.09" y="34.71" width="10.3" height="2.26" transform="translate(-24.42 29.39) rotate(-60)"/>
        <rect class="cls-2" x="24.54" y="6.22" width="10.3" height="2.26" transform="translate(8.47 29.38) rotate(-59.98)"/>
      </g>
    </g>
  </g>
</svg>