<?xml version="1.0" encoding="UTF-8"?>
<svg id="_レイヤー_2" data-name="レイヤー 2" xmlns="http://www.w3.org/2000/svg" viewBox="0 0 792.31 296.43">
  <defs>
    <style>
      .cls-1 {
        fill-rule: evenodd;
      }

      .cls-1, .cls-2, .cls-3, .cls-4, .cls-5, .cls-6, .cls-7 {
        stroke: #595757;
        stroke-linecap: round;
        stroke-linejoin: round;
        stroke-width: 2.27px;
      }

      .cls-1, .cls-4, .cls-8 {
        fill: #fff;
      }

      .cls-9, .cls-5 {
        fill: #9fd9f6;
      }

      .cls-10, .cls-7 {
        fill: #ffee7d;
      }

      .cls-2 {
        fill: #fabf13;
      }

      .cls-3 {
        fill: none;
      }

      .cls-6 {
        fill: #8ec43e;
      }

      .cls-11 {
        fill: #595757;
      }
    </style>
  </defs>
  <g id="_レイヤー_3" data-name="レイヤー 3">
    <g>
      <g>
        <path class="cls-3" d="M431.05,107.24c-.1,6.48-.2,12.96-.3,19.43"/>
        <g>
          <g>
            <path class="cls-4" d="M422.43,218.16c.39-31.03.78-62.06,1.17-93.09,9.88-3.49,19.81-6.93,29.77-10.31-.83,34.64-1.65,69.28-2.48,103.93"/>
            <path class="cls-4" d="M491.43,219.98c1.24-31.01,2.48-62.02,3.73-93.03-13.87-4.18-27.8-8.24-41.79-12.2-.83,34.64-1.65,69.28-2.48,103.93"/>
          </g>
          <g>
            <path class="cls-3" d="M494.7,138.49c-13.83-3.75-27.71-7.4-41.64-10.93"/>
            <path class="cls-3" d="M494.47,144.27c-13.81-3.54-27.66-6.98-41.57-10.3"/>
            <path class="cls-3" d="M494.23,150.04c-13.78-3.33-27.62-6.55-41.5-9.66"/>
            <path class="cls-3" d="M494,155.82c-13.76-3.12-27.57-6.13-41.42-9.03"/>
            <path class="cls-3" d="M493.77,161.59c-13.74-2.91-27.53-5.71-41.35-8.39"/>
            <path class="cls-3" d="M493.54,167.37c-13.72-2.7-27.48-5.28-41.28-7.76"/>
          </g>
          <g>
            <path class="cls-3" d="M423.45,136.62c9.82-3.08,19.68-6.09,29.57-9.06"/>
            <path class="cls-3" d="M423.38,142.4c9.8-2.86,19.63-5.67,29.49-8.43"/>
            <path class="cls-3" d="M423.31,148.18c9.77-2.65,19.58-5.25,29.42-7.8"/>
            <path class="cls-3" d="M423.24,153.96c9.75-2.44,19.53-4.83,29.34-7.17"/>
            <path class="cls-3" d="M423.16,159.74c9.73-2.23,19.48-4.41,29.26-6.54"/>
            <path class="cls-3" d="M423.09,165.52c9.7-2.02,19.43-3.99,29.19-5.91"/>
          </g>
        </g>
      </g>
      <g>
        <path class="cls-4" d="M330.52,219.26c-.57-23.77-1.15-47.53-1.72-71.3,21.79-.53,43.59-.77,65.38-.75-.03,23.85-.06,47.7-.09,71.56"/>
        <g>
          <path class="cls-4" d="M348.59,163.08c-4.36.07-8.72.16-13.08.25-.05-2.26-.1-4.52-.15-6.78,4.37-.09,8.74-.18,13.11-.25.04,2.26.07,4.52.11,6.78Z"/>
          <path class="cls-4" d="M361.67,162.9c-4.36.05-8.72.11-13.08.18-.04-2.26-.07-4.52-.11-6.78,4.37-.07,8.74-.13,13.12-.18.03,2.26.05,4.52.08,6.78Z"/>
          <path class="cls-4" d="M374.75,162.78c-4.36.03-8.72.07-13.08.12-.03-2.26-.05-4.52-.08-6.78,4.37-.05,8.74-.09,13.12-.12.01,2.26.03,4.52.04,6.78Z"/>
          <path class="cls-4" d="M387.84,162.73c-4.36,0-8.72.02-13.08.05-.01-2.26-.03-4.52-.04-6.78,4.37-.03,8.74-.04,13.12-.05,0,2.26,0,4.52,0,6.78Z"/>
        </g>
        <g>
          <path class="cls-4" d="M348.81,176.38c-4.34.07-8.67.15-13.01.25-.05-2.26-.1-4.52-.15-6.78,4.35-.09,8.7-.18,13.05-.25.04,2.26.07,4.52.11,6.78Z"/>
          <path class="cls-4" d="M361.83,176.2c-4.34.05-8.68.11-13.01.18-.04-2.26-.07-4.52-.11-6.78,4.35-.07,8.7-.13,13.05-.18.03,2.26.05,4.52.08,6.78Z"/>
          <path class="cls-4" d="M374.84,176.09c-4.34.03-8.68.07-13.01.12-.03-2.26-.05-4.52-.08-6.78,4.35-.05,8.7-.09,13.05-.12.01,2.26.03,4.52.04,6.78Z"/>
          <path class="cls-4" d="M387.85,176.04c-4.34,0-8.68.02-13.01.05-.01-2.26-.03-4.52-.04-6.78,4.35-.03,8.7-.04,13.05-.05,0,2.26,0,4.52,0,6.78Z"/>
        </g>
        <g>
          <path class="cls-4" d="M349.03,189.68c-4.31.07-8.63.15-12.94.25-.05-2.26-.1-4.52-.15-6.78,4.33-.09,8.65-.18,12.98-.25.04,2.26.07,4.52.11,6.78Z"/>
          <path class="cls-4" d="M361.98,189.5c-4.32.05-8.63.11-12.95.18-.04-2.26-.07-4.52-.11-6.78,4.33-.07,8.65-.13,12.98-.18.03,2.26.05,4.52.08,6.78Z"/>
          <path class="cls-4" d="M374.92,189.39c-4.32.03-8.63.07-12.95.11-.03-2.26-.05-4.52-.08-6.78,4.33-.05,8.65-.09,12.98-.12.01,2.26.03,4.52.04,6.78Z"/>
          <path class="cls-4" d="M387.87,189.34c-4.32,0-8.63.02-12.95.05-.01-2.26-.03-4.52-.04-6.78,4.33-.03,8.65-.04,12.98-.05,0,2.26,0,4.52,0,6.79Z"/>
        </g>
      </g>
      <path class="cls-6" d="M407.44,178.69c-12.02-.08-21.81,9.35-21.77,20.83,0,2.52.01,5.04.02,7.57,0-6.89-5.87-12.51-13.03-12.46-7.16.05-12.94,5.76-12.85,12.65.12,9.86.24,19.72.37,29.58,8.52-.11,17.05-.17,25.57-.18,14.21-.03,28.42.06,42.63.28.19-12.38.37-24.76.56-37.15.19-11.48-9.48-21.04-21.5-21.11Z"/>
      <path class="cls-6" d="M17.3,225.99c6.47-.97,12.5,3.36,13.39,9.59-.4-2.75-.8-5.5-1.19-8.26-1.52-10.37,6.14-20.16,17.01-21.64,10.88-1.49,20.87,5.89,22.19,16.29,1.5,11.69,3.01,23.37,4.51,35.06-12.89,1.66-25.78,3.42-38.65,5.28-7.72,1.12-15.44,2.27-23.15,3.46-1.37-8.9-2.74-17.8-4.12-26.69-.96-6.21,3.54-12.12,10.01-13.08Z"/>
      <g>
        <path class="cls-4" d="M539.94,241.13c2.98-49.79,5.97-99.59,8.95-149.38,16.19-4.62,32.47-9.1,48.85-13.42-4.32,55.3-8.63,110.6-12.95,165.89"/>
        <path class="cls-3" d="M599.05,61.55c-.44,5.59-.87,11.19-1.31,16.78"/>
        <g>
          <path class="cls-3" d="M544.15,170.97c13.09.78,26.18,1.67,39.26,2.65"/>
          <path class="cls-3" d="M543.75,177.55c13.06.78,26.11,1.66,39.16,2.65"/>
          <path class="cls-3" d="M548.49,98.56c13.46.81,26.92,1.72,40.37,2.73"/>
          <path class="cls-3" d="M548.09,105.14c13.43.8,26.85,1.71,40.27,2.72"/>
          <path class="cls-3" d="M547.7,111.73c13.4.8,26.79,1.71,40.17,2.72"/>
          <path class="cls-3" d="M547.3,118.31c13.36.8,26.72,1.7,40.07,2.71"/>
          <path class="cls-3" d="M546.91,124.89c13.33.8,26.65,1.7,39.97,2.7"/>
          <path class="cls-3" d="M546.51,131.47c13.29.8,26.58,1.7,39.87,2.7"/>
          <path class="cls-3" d="M546.12,138.06c13.26.79,26.52,1.69,39.77,2.69"/>
          <path class="cls-3" d="M545.73,144.64c13.23.79,26.45,1.69,39.67,2.68"/>
          <path class="cls-3" d="M545.33,151.22c13.19.79,26.38,1.68,39.57,2.68"/>
          <path class="cls-3" d="M544.94,157.81c13.16.79,26.32,1.68,39.46,2.67"/>
          <path class="cls-3" d="M544.54,164.39c13.13.79,26.25,1.67,39.36,2.66"/>
        </g>
      </g>
      <g>
        <path class="cls-3" d="M681.65,141.93c-.72,6.44-1.45,12.88-2.17,19.31"/>
        <g>
          <g>
            <path class="cls-4" d="M662.4,251.5c3.38-30.85,6.76-61.7,10.14-92.55,10.12-2.53,20.27-5,30.46-7.41-4.17,34.4-8.33,68.8-12.5,103.2"/>
            <path class="cls-4" d="M730.52,259.92c4.23-30.74,8.46-61.49,12.69-92.23-13.33-5.49-26.73-10.87-40.2-16.14-4.17,34.4-8.33,68.8-12.5,103.2"/>
          </g>
          <g>
            <path class="cls-3" d="M741.64,179.14c-13.33-5.06-26.72-10.02-40.18-14.87"/>
            <path class="cls-3" d="M740.85,184.86c-13.33-4.85-26.72-9.59-40.16-14.23"/>
            <path class="cls-3" d="M740.06,190.58c-13.33-4.64-26.71-9.17-40.15-13.59"/>
            <path class="cls-3" d="M739.27,196.31c-13.33-4.42-26.71-8.74-40.14-12.96"/>
            <path class="cls-3" d="M738.49,202.04c-13.33-4.21-26.7-8.32-40.13-12.32"/>
            <path class="cls-3" d="M737.7,207.77c-13.33-4-26.7-7.89-40.12-11.68"/>
          </g>
          <g>
            <path class="cls-3" d="M671.29,170.44c10.02-2.12,20.06-4.18,30.14-6.18"/>
            <path class="cls-3" d="M670.66,176.19c9.97-1.91,19.97-3.77,30.01-5.56"/>
            <path class="cls-3" d="M670.03,181.93c9.93-1.71,19.89-3.35,29.87-4.94"/>
            <path class="cls-3" d="M669.4,187.68c9.89-1.5,19.8-2.94,29.73-4.32"/>
            <path class="cls-3" d="M668.77,193.42c9.84-1.29,19.71-2.52,29.59-3.7"/>
            <path class="cls-3" d="M668.14,199.17c9.8-1.08,19.62-2.11,29.45-3.08"/>
          </g>
        </g>
      </g>
      <g>
        <path class="cls-4" d="M600.33,245.49c1.47-17.46,2.95-34.93,4.42-52.39,2.88-34.17,5.76-68.34,8.65-102.52,21.7,4.49,38.05,19.47,44.15,37.82-1.22,11.86-2.43,23.73-3.65,35.59-2.93,28.56-5.86,57.12-8.79,85.68"/>
        <g>
          <path class="cls-3" d="M650.27,136.54c-11.35-1.14-22.7-2.2-34.06-3.18"/>
          <path class="cls-3" d="M649.59,143.34c-11.32-1.13-22.64-2.19-33.97-3.17"/>
          <path class="cls-3" d="M648.91,150.14c-11.29-1.13-22.58-2.18-33.88-3.17"/>
          <path class="cls-3" d="M648.23,156.93c-11.26-1.13-22.52-2.18-33.79-3.16"/>
          <path class="cls-3" d="M647.55,163.73c-11.23-1.12-22.46-2.17-33.7-3.15"/>
          <path class="cls-3" d="M646.87,170.53c-11.2-1.12-22.4-2.17-33.61-3.14"/>
          <path class="cls-3" d="M646.19,177.32c-11.17-1.12-22.34-2.16-33.52-3.13"/>
          <path class="cls-3" d="M645.51,184.12c-11.14-1.11-22.28-2.16-33.43-3.12"/>
          <path class="cls-3" d="M644.83,190.92c-11.11-1.11-22.22-2.15-33.34-3.12"/>
        </g>
      </g>
      <g>
        <g>
          <path class="cls-4" d="M500.43,239.08c1.62-36.76,3.23-73.52,4.85-110.28,16.77.74,33.53,1.64,50.29,2.7-2.33,36.72-4.66,73.44-6.98,110.16"/>
          <path class="cls-4" d="M505.04,134.24c16.73.74,33.46,1.63,50.18,2.69"/>
        </g>
        <g>
          <g>
            <path class="cls-3" d="M513.08,144.11l.1-2.03"/>
            <path class="cls-3" d="M519.7,144.44c.03-.68.07-1.35.1-2.03"/>
            <path class="cls-3" d="M526.32,144.77c.04-.68.07-1.35.11-2.03"/>
            <path class="cls-3" d="M532.94,145.13c.04-.68.07-1.35.11-2.03"/>
            <path class="cls-3" d="M539.56,145.5c.04-.68.08-1.35.12-2.03"/>
            <path class="cls-3" d="M546.18,145.89c.04-.68.08-1.35.12-2.03"/>
          </g>
          <g>
            <path class="cls-3" d="M512.73,151.58c.03-.68.06-1.35.1-2.03"/>
            <path class="cls-3" d="M519.33,151.9c.03-.68.07-1.35.1-2.03"/>
            <path class="cls-3" d="M525.93,152.24c.04-.68.07-1.35.11-2.03"/>
            <path class="cls-3" d="M532.53,152.59c.04-.68.07-1.35.11-2.03"/>
            <path class="cls-3" d="M539.13,152.96c.04-.68.08-1.35.12-2.03"/>
            <path class="cls-3" d="M545.73,153.35c.04-.68.08-1.35.12-2.03"/>
          </g>
          <g>
            <path class="cls-3" d="M512.37,159.05c.03-.68.06-1.35.1-2.03"/>
            <path class="cls-3" d="M518.96,159.37c.03-.68.07-1.35.1-2.03"/>
            <path class="cls-3" d="M525.54,159.7c.04-.68.07-1.35.11-2.03"/>
            <path class="cls-3" d="M532.12,160.06c.04-.68.07-1.35.11-2.03"/>
            <path class="cls-3" d="M538.7,160.43c.04-.68.08-1.35.12-2.03"/>
            <path class="cls-3" d="M545.28,160.81c.04-.68.08-1.35.12-2.03"/>
          </g>
          <g>
            <path class="cls-3" d="M512.02,166.51c.03-.68.06-1.35.1-2.03"/>
            <path class="cls-3" d="M518.58,166.83c.03-.68.07-1.35.1-2.03"/>
            <path class="cls-3" d="M525.15,167.17c.04-.68.07-1.35.11-2.03"/>
            <path class="cls-3" d="M531.71,167.52c.04-.68.07-1.35.11-2.03"/>
            <path class="cls-3" d="M538.27,167.89c.04-.68.08-1.35.12-2.03"/>
            <path class="cls-3" d="M544.83,168.28c.04-.68.08-1.35.12-2.03"/>
          </g>
          <g>
            <path class="cls-3" d="M511.67,173.98c.03-.68.06-1.35.1-2.03"/>
            <path class="cls-3" d="M518.21,174.3c.03-.68.07-1.35.1-2.03"/>
            <path class="cls-3" d="M524.76,174.63c.04-.68.07-1.35.11-2.03"/>
            <path class="cls-3" d="M531.3,174.99c.04-.68.07-1.35.11-2.03"/>
            <path class="cls-3" d="M537.84,175.35c.04-.68.08-1.35.12-2.03"/>
            <path class="cls-3" d="M544.38,175.74c.04-.68.08-1.35.12-2.03"/>
          </g>
          <g>
            <path class="cls-3" d="M511.31,181.45c.03-.68.06-1.35.1-2.03"/>
            <path class="cls-3" d="M517.84,181.77c.03-.68.07-1.35.1-2.03"/>
            <path class="cls-3" d="M524.36,182.1c.04-.68.07-1.35.11-2.03"/>
            <path class="cls-3" d="M530.89,182.45c.04-.68.07-1.35.11-2.03"/>
            <path class="cls-3" d="M537.41,182.82c.04-.68.08-1.35.12-2.03"/>
            <path class="cls-3" d="M543.93,183.2c.04-.68.08-1.35.12-2.03"/>
          </g>
          <g>
            <path class="cls-3" d="M510.96,188.92c.03-.68.06-1.35.1-2.03"/>
            <path class="cls-3" d="M517.47,189.23c.03-.68.07-1.35.1-2.03"/>
            <path class="cls-3" d="M523.97,189.56c.04-.68.07-1.35.11-2.03"/>
            <path class="cls-3" d="M530.48,189.91c.04-.68.07-1.35.11-2.03"/>
            <path class="cls-3" d="M536.98,190.28c.04-.68.08-1.35.12-2.03"/>
            <path class="cls-3" d="M543.49,190.66c.04-.68.08-1.35.12-2.03"/>
          </g>
          <g>
            <path class="cls-3" d="M510.61,196.38c.03-.68.06-1.35.1-2.03"/>
            <path class="cls-3" d="M517.1,196.7c.03-.68.07-1.35.1-2.03"/>
            <path class="cls-3" d="M523.58,197.03c.04-.68.07-1.35.11-2.03"/>
            <path class="cls-3" d="M530.07,197.38c.04-.68.07-1.35.11-2.03"/>
            <path class="cls-3" d="M536.55,197.74c.04-.68.08-1.35.12-2.03"/>
            <path class="cls-3" d="M543.04,198.12c.04-.68.08-1.35.12-2.03"/>
          </g>
          <g>
            <path class="cls-3" d="M510.26,203.85c.03-.68.06-1.35.1-2.03"/>
            <path class="cls-3" d="M516.72,204.16c.03-.68.07-1.35.1-2.03"/>
            <path class="cls-3" d="M523.19,204.49c.04-.68.07-1.35.11-2.03"/>
            <path class="cls-3" d="M529.66,204.84c.04-.68.07-1.35.11-2.03"/>
            <path class="cls-3" d="M536.12,205.21c.04-.68.08-1.35.12-2.03"/>
            <path class="cls-3" d="M542.59,205.59c.04-.68.08-1.35.12-2.03"/>
          </g>
          <g>
            <path class="cls-3" d="M509.9,211.32c.03-.68.06-1.35.1-2.03"/>
            <path class="cls-3" d="M516.35,211.63c.03-.68.07-1.35.1-2.03"/>
            <path class="cls-3" d="M522.8,211.96c.04-.68.07-1.35.11-2.03"/>
            <path class="cls-3" d="M529.25,212.31c.04-.68.07-1.35.11-2.03"/>
            <path class="cls-3" d="M535.69,212.67c.04-.68.08-1.35.12-2.03"/>
            <path class="cls-3" d="M542.14,213.05c.04-.68.08-1.35.12-2.03"/>
          </g>
        </g>
      </g>
      <g>
        <g>
          <path class="cls-4" d="M597.96,154.2c-7.22-.58-14.45-1.13-21.68-1.65.19-2.7.39-5.39.58-8.09,7.25.52,14.5,1.07,21.75,1.66-.22,2.7-.43,5.39-.65,8.09Z"/>
          <path class="cls-4" d="M563.01,242.62c2.13-30.84,4.27-61.67,6.4-92.51,16.64,1.15,33.27,2.46,49.89,3.94-2.73,30.79-5.46,61.58-8.19,92.37"/>
        </g>
        <g>
          <path class="cls-3" d="M571.54,217.06c1.36-18.88,2.71-37.75,4.07-56.63"/>
          <path class="cls-3" d="M578.57,217.58c1.41-18.87,2.82-37.74,4.23-56.61"/>
          <path class="cls-3" d="M585.6,218.11c1.46-18.87,2.93-37.73,4.39-56.6"/>
          <path class="cls-3" d="M592.63,218.67c1.52-18.86,3.03-37.73,4.55-56.59"/>
          <path class="cls-3" d="M599.66,219.24c1.57-18.86,3.14-37.72,4.71-56.58"/>
          <path class="cls-3" d="M606.69,219.84c1.62-18.85,3.24-37.71,4.86-56.56"/>
        </g>
      </g>
      <g>
        <path class="cls-6" d="M764.21,240.83c-1.53,10.25,1.92,16.07,7.14,16.88,5.22.8,10.26-3.71,11.89-13.95,1.62-10.23-1.35-19.21-6.65-20.03-5.3-.82-10.84,6.85-12.37,17.1Z"/>
        <g>
          <path class="cls-3" d="M770.11,265.69c1.52-9.85,3.03-19.7,4.55-29.55"/>
          <path class="cls-3" d="M772.21,252.1c1.59-1.12,3.18-2.24,4.77-3.35"/>
          <path class="cls-3" d="M773.34,244.78c-1.18-1.55-2.37-3.09-3.56-4.63"/>
        </g>
      </g>
      <path class="cls-1" d="M567.57,22.97c3.05.2,5.67-1.86,5.85-4.6.19-2.74-2.14-5.13-5.2-5.33.18-2.74-2.16-5.13-5.22-5.32-3.07-.19-5.69,1.88-5.85,4.62-3.06-.19-5.67,1.89-5.83,4.63-.16,2.74,2.18,5.11,5.22,5.3,3.68.23,7.36.46,11.04.7Z"/>
      <path class="cls-1" d="M292.31,117.9c2.94-.11,5.24-2.42,5.14-5.17-.1-2.75-2.57-4.89-5.52-4.77-.1-2.75-2.58-4.88-5.54-4.76-2.96.12-5.26,2.44-5.14,5.19-2.95.12-5.24,2.45-5.12,5.2.12,2.74,2.6,4.86,5.54,4.74,3.55-.15,7.09-.29,10.64-.42Z"/>
      <path class="cls-1" d="M96.71,144.15c2.91-.33,5.03-2.81,4.72-5.54-.3-2.73-2.92-4.68-5.85-4.35-.31-2.73-2.94-4.67-5.87-4.33-2.93.34-5.04,2.83-4.72,5.56-2.93.34-5.03,2.84-4.7,5.57.33,2.73,2.95,4.65,5.87,4.31,3.52-.42,7.03-.82,10.55-1.22Z"/>
      <path class="cls-1" d="M785.13,176.7c2.88.44,5.56-1.39,5.98-4.1.43-2.71-1.57-5.28-4.47-5.73.42-2.71-1.59-5.28-4.49-5.72-2.9-.44-5.58,1.41-5.99,4.12-2.89-.44-5.57,1.42-5.97,4.14-.4,2.72,1.61,5.27,4.49,5.7,3.48.52,6.96,1.05,10.43,1.59Z"/>
      <path class="cls-1" d="M489.09,79.44c2.98.11,5.49-2.02,5.59-4.77.11-2.74-2.23-5.07-5.23-5.18.1-2.75-2.25-5.06-5.25-5.17-3-.1-5.51,2.04-5.59,4.79-3-.1-5.49,2.05-5.57,4.8-.08,2.75,2.27,5.05,5.25,5.14,3.6.12,7.2.24,10.8.38Z"/>
      <g>
        <path class="cls-4" d="M394.71,236.68c-29.68-.04-59.37.44-89.04,1.46-.4-11.72-.8-23.43-1.2-35.15,30.09-1.03,60.19-1.52,90.3-1.48-.02,11.72-.04,23.45-.05,35.17Z"/>
        <path class="cls-2" d="M394.74,213.42c-29.96-.04-59.92.45-89.87,1.47-.07-1.98-.14-3.97-.2-5.95,30.02-1.03,60.05-1.52,90.09-1.48,0,1.99,0,3.97,0,5.96Z"/>
        <path class="cls-5" d="M394.75,207.46c-30.03-.05-60.07.45-90.09,1.48-.07-1.98-.14-3.97-.2-5.95,30.09-1.03,60.19-1.52,90.3-1.48,0,1.99,0,3.97,0,5.96Z"/>
        <path class="cls-4" d="M369.74,236.76c-2.95.03-5.89.06-8.84.09-.09-7.75-.19-15.5-.28-23.25,2.97-.04,5.95-.07,8.92-.09.07,7.75.13,15.5.2,23.25Z"/>
        <path class="cls-4" d="M378.58,236.7c-2.95.01-5.89.03-8.84.06-.07-7.75-.13-15.5-.2-23.25,2.97-.03,5.95-.05,8.92-.06.04,7.75.08,15.5.12,23.25Z"/>
        <path class="cls-4" d="M327.67,232.76c-3.66.09-7.33.19-10.99.3-.18-6.18-.37-12.35-.55-18.53,3.69-.11,7.38-.21,11.08-.31.16,6.18.31,12.35.47,18.53Z"/>
        <path class="cls-4" d="M338.67,232.5c-3.66.08-7.33.16-10.99.25-.16-6.18-.31-12.35-.47-18.53,3.69-.09,7.38-.18,11.08-.26.13,6.18.26,12.35.39,18.53Z"/>
        <path class="cls-4" d="M349.66,232.3c-3.67.06-7.33.13-11,.21-.13-6.18-.26-12.35-.39-18.53,3.69-.08,7.38-.15,11.08-.21.1,6.18.2,12.35.31,18.53Z"/>
        <path class="cls-3" d="M394.71,236.68c-1.91,0-3.81,0-5.72,0,0-3.17,0-6.34,0-9.51,1.91,0,3.83,0,5.74,0,0,3.17,0,6.34-.01,9.51Z"/>
        <path class="cls-3" d="M388.98,236.67c-1.91,0-3.81,0-5.72.01,0-3.17-.02-6.34-.03-9.51,1.91,0,3.83,0,5.74-.01,0,3.17,0,6.34,0,9.51Z"/>
        <path class="cls-4" d="M378.5,220.04c-5.93.03-11.87.08-17.8.15-.03-2.2-.05-4.39-.08-6.59,5.95-.07,11.9-.12,17.84-.15.01,2.2.02,4.39.03,6.59Z"/>
        <g>
          <path class="cls-4" d="M297.32,238.43c-1.36.05-2.71.1-4.07.16-.72-18.32-1.44-36.64-2.16-54.97,1.39-.05,2.77-.11,4.16-.16.69,18.32,1.38,36.65,2.07,54.97Z"/>
          <path class="cls-4" d="M300.42,192.17c-4.61.16-9.21.34-13.82.53-.18-4.43-.36-8.86-.55-13.28,4.63-.19,9.26-.37,13.89-.53.16,4.43.32,8.86.47,13.29Z"/>
        </g>
        <path class="cls-4" d="M363.4,213.57c4.09-.04,8.18-.08,12.28-.1-.02-3.97-.05-7.94-.07-11.91-4.11.02-8.22.06-12.33.11.04,3.97.09,7.94.13,11.91Z"/>
      </g>
      <path class="cls-6" d="M721.32,195.8c-12.85-1.68-24.57,7.08-26.03,19.33-.33,2.69-.65,5.38-.98,8.07.9-7.34-4.63-14.11-12.29-15-7.66-.89-14.58,4.45-15.38,11.8-1.16,10.53-2.31,21.06-3.47,31.58,9.11,1,18.22,2.05,27.33,3.16,15.18,1.84,30.35,3.82,45.5,5.94,1.84-13.17,3.68-26.34,5.53-39.52,1.73-12.21-7.36-23.69-20.2-25.36Z"/>
      <g>
        <path class="cls-4" d="M635.84,248.74c13.29,1.31,26.57,2.73,39.85,4.26,1.43-12.39,2.85-24.78,4.28-37.17-6.22-5.27-12.48-10.51-18.77-15.73-7.26,3.77-14.48,7.57-21.67,11.41-1.23,12.41-2.45,24.82-3.68,37.24Z"/>
        <path class="cls-4" d="M649.59,240.66c2.11.22,4.22.44,6.33.67.22-2.05.44-4.11.66-6.16-2.11-.23-4.23-.45-6.34-.67-.21,2.06-.43,4.11-.64,6.17Z"/>
        <path class="cls-7" d="M669.3,252.27c.43-3.84.86-7.68,1.29-11.51.25-2.21-1.33-4.21-3.52-4.45-2.18-.24-4.17,1.37-4.41,3.57-.42,3.84-.84,7.68-1.26,11.52,2.63.29,5.26.58,7.89.87Z"/>
        <path class="cls-4" d="M653.4,224.74c3.4.36,6.79.72,10.19,1.09.36-3.29.72-6.57,1.07-9.86-3.41-.37-6.82-.74-10.23-1.09-.34,3.29-.69,6.58-1.03,9.86Z"/>
      </g>
      <path class="cls-4" d="M618.21,247.06c7.98.73,15.96,1.5,23.93,2.31.21-2.07.42-4.14.63-6.21-7.99-.81-15.99-1.58-23.99-2.31-.19,2.07-.38,4.14-.57,6.22Z"/>
      <path class="cls-4" d="M618.77,240.84c8,.73,16,1.5,23.99,2.31.21-2.07.42-4.14.63-6.21-8.01-.81-16.03-1.59-24.05-2.32-.19,2.07-.38,4.14-.57,6.22Z"/>
      <path class="cls-4" d="M619.34,234.63c8.02.73,16.04,1.51,24.05,2.32.21-2.07.42-4.14.63-6.21-8.03-.81-16.07-1.59-24.11-2.33-.19,2.07-.38,4.14-.57,6.22Z"/>
      <g>
        <path class="cls-6" d="M603.86,222.72c-.85,10.02,2.85,15.44,7.94,15.89,5.09.45,9.68-4.24,10.61-14.24.93-10.01-2.5-18.51-7.67-18.97-5.17-.46-10.04,7.31-10.89,17.32Z"/>
        <g>
          <path class="cls-3" d="M611.1,246.42c.85-9.63,1.71-19.26,2.56-28.88"/>
          <path class="cls-3" d="M612.28,233.13c1.47-1.18,2.93-2.36,4.4-3.54"/>
          <path class="cls-3" d="M612.92,225.97c-1.24-1.42-2.48-2.84-3.72-4.26"/>
        </g>
      </g>
      <g>
        <g>
          <path class="cls-4" d="M706.44,256.73c13.41,1.71,26.81,3.53,40.2,5.46,1.79-12.44,3.59-24.88,5.38-37.32-13.12-5.22-26.3-10.34-39.55-15.35-2.01,15.74-4.02,31.48-6.03,47.21Z"/>
          <g>
            <path class="cls-4" d="M727.07,231.71c2.12.29,4.24.57,6.35.86.28-2.05.56-4.09.84-6.14-2.12-.29-4.25-.58-6.37-.87-.28,2.05-.55,4.1-.83,6.14Z"/>
            <path class="cls-4" d="M715.6,230.19c2.12.28,4.24.55,6.36.83.27-2.05.54-4.1.81-6.14-2.12-.28-4.25-.56-6.37-.84-.27,2.05-.53,4.1-.8,6.15Z"/>
            <path class="cls-4" d="M738.55,233.28c2.12.29,4.23.59,6.35.89.29-2.05.58-4.09.87-6.14-2.12-.3-4.24-.6-6.37-.9-.29,2.05-.57,4.09-.86,6.14Z"/>
          </g>
        </g>
        <path class="cls-5" d="M731.07,260c.61-4.4,1.21-8.8,1.82-13.2.35-2.53-1.42-4.88-3.93-5.22-2.51-.34-4.84,1.45-5.18,3.98-.59,4.4-1.18,8.8-1.77,13.21,3.02.4,6.04.81,9.05,1.23Z"/>
      </g>
      <g>
        <g>
          <path class="cls-4" d="M683.3,243.04c.14-1.2.28-2.41.43-3.61.16-1.32,1.4-2.27,2.76-2.11,3.03.36,6.06.72,9.09,1.1,1.36.17,2.34,1.39,2.18,2.71-.15,1.2-.3,2.41-.45,3.61-4.67-.58-9.34-1.14-14.01-1.69Z"/>
          <path class="cls-7" d="M696.53,250.98c-4.66-.57-9.31-1.14-13.97-1.68.25-2.09.49-4.17.74-6.26,4.67.55,9.34,1.11,14.01,1.69-.26,2.08-.51,4.17-.77,6.25Z"/>
          <path class="cls-3" d="M682.56,249.3c-.1.82-.19,1.65-.29,2.47"/>
          <path class="cls-3" d="M696.53,250.98c-.1.82-.2,1.65-.3,2.47"/>
        </g>
        <path class="cls-11" d="M692.59,247.33c-.07.6.37,1.15.98,1.22.62.08,1.18-.35,1.25-.95.07-.6-.37-1.15-.98-1.23-.62-.08-1.18.35-1.25.95Z"/>
        <path class="cls-11" d="M687.25,246.68c-.07.6-.63,1.03-1.25.96-.62-.07-1.06-.62-.99-1.22.07-.6.63-1.03,1.25-.96.62.07,1.06.62.99,1.22Z"/>
      </g>
      <g>
        <path class="cls-4" d="M531.88,240.66c13.47.76,26.95,1.64,40.41,2.62.91-12.54,1.83-25.07,2.74-37.61-13.43-4.28-26.92-8.46-40.46-12.53-.9,15.84-1.79,31.68-2.69,47.52Z"/>
        <g>
          <path class="cls-4" d="M558.17,230.39c2.45.16,4.89.33,7.34.5.17-2.38.33-4.77.5-7.15-2.45-.17-4.91-.34-7.36-.5-.16,2.38-.32,4.77-.48,7.15Z"/>
          <g>
            <path class="cls-4" d="M550.68,214.25c2.13.14,4.26.27,6.39.41.14-2.06.27-4.12.41-6.19-2.13-.14-4.27-.28-6.4-.41-.13,2.06-.26,4.12-.39,6.19Z"/>
            <path class="cls-4" d="M539.14,213.55c2.13.13,4.26.25,6.39.38.13-2.06.25-4.12.38-6.19-2.13-.13-4.27-.26-6.41-.39-.12,2.06-.24,4.13-.36,6.19Z"/>
            <path class="cls-2" d="M542.43,241.28c2.64.16,5.28.33,7.91.49.33-5.2.67-10.39,1-15.59-2.65-.17-5.31-.34-7.96-.5-.32,5.2-.63,10.39-.95,15.59Z"/>
          </g>
        </g>
      </g>
      <g>
        <path class="cls-4" d="M476.42,185.87c.15-4.49.3-8.98.45-13.46-21.82-.73-43.65-1.19-65.48-1.36-.17,21.9-.35,43.81-.52,65.71,17.2.14,34.4.45,51.59.95.18-6.21.36-12.42.53-18.63,16.26.47,32.51,1.09,48.76,1.87.54-11.19,1.08-22.38,1.62-33.57-12.32-.59-24.64-1.1-36.96-1.51Z"/>
        <path class="cls-4" d="M433.14,200.44c-3.94-.07-7.87-.12-11.81-.17.04-3,.07-5.99.11-8.99,3.95.05,7.9.1,11.85.17-.05,3-.1,5.99-.15,8.99Z"/>
        <path class="cls-4" d="M438.71,200.54c3.94.07,7.87.16,11.81.25.07-3,.14-5.99.21-8.99-3.95-.09-7.9-.18-11.85-.25-.06,3-.11,5.99-.17,8.99Z"/>
        <path class="cls-4" d="M456.1,200.93c3.94.1,7.87.21,11.81.33.09-3,.18-5.99.27-8.99-3.95-.12-7.9-.23-11.85-.33-.08,3-.15,5.99-.23,8.99Z"/>
        <path class="cls-4" d="M433.36,186.97c-3.96-.07-7.92-.12-11.87-.17.04-3,.07-5.99.11-8.99,3.97.05,7.94.1,11.92.17-.05,3-.1,5.99-.15,8.99Z"/>
        <path class="cls-4" d="M438.97,187.07c3.96.07,7.92.16,11.87.25.07-3,.14-5.99.21-8.99-3.97-.09-7.94-.18-11.91-.25-.06,3-.11,5.99-.17,8.99Z"/>
        <path class="cls-4" d="M456.45,187.46c3.96.1,7.91.21,11.87.33.09-3,.18-5.99.27-8.99-3.97-.12-7.94-.23-11.91-.33-.08,3-.15,5.99-.23,8.99Z"/>
        <path class="cls-4" d="M473.48,201.43c3.94.13,7.87.27,11.81.41.11-3,.22-5.99.34-8.99-3.95-.15-7.9-.29-11.85-.41-.1,3-.2,5.99-.29,8.99Z"/>
        <path class="cls-4" d="M432.91,213.91c-3.92-.07-7.83-.12-11.75-.17.04-3,.07-5.99.11-8.99,3.93.05,7.86.1,11.79.17-.05,3-.1,5.99-.15,8.99Z"/>
        <path class="cls-4" d="M438.46,214.01c3.92.07,7.83.16,11.75.25.07-3,.14-5.99.21-8.99-3.93-.09-7.86-.18-11.79-.25-.06,3-.11,5.99-.17,8.99Z"/>
        <path class="cls-4" d="M432.69,227.38c-3.89-.06-7.79-.12-11.68-.17.04-3,.07-5.99.11-8.99,3.91.05,7.82.1,11.73.17-.05,3-.1,5.99-.15,8.99Z"/>
        <path class="cls-4" d="M438.2,227.47c3.89.07,7.79.16,11.68.25.07-3,.14-5.99.21-8.99-3.91-.09-7.82-.17-11.73-.25-.06,3-.11,5.99-.17,8.99Z"/>
        <path class="cls-4" d="M455.75,214.39c3.92.1,7.83.21,11.75.33.09-3,.18-5.99.27-8.99-3.93-.12-7.86-.23-11.79-.33-.08,3-.15,5.99-.23,8.99Z"/>
        <path class="cls-4" d="M473.04,214.9c3.91.13,7.83.26,11.74.41.11-2.99.22-5.99.34-8.99-3.93-.15-7.86-.28-11.79-.41-.1,3-.2,5.99-.29,8.99Z"/>
        <path class="cls-4" d="M490.86,202.06c3.93.16,7.87.32,11.8.49.13-2.99.26-5.99.4-8.98-3.95-.17-7.9-.34-11.85-.5-.12,2.99-.24,5.99-.36,8.98Z"/>
        <path class="cls-4" d="M490.33,215.52c3.91.15,7.83.32,11.74.49.13-2.99.26-5.99.4-8.98-3.93-.17-7.86-.34-11.78-.49-.12,2.99-.24,5.99-.36,8.98Z"/>
        <path class="cls-4" d="M462.47,237.7c16.14.46,32.27,1.08,48.4,1.86.3-6.2.6-12.41.9-18.61-16.25-.78-32.5-1.41-48.76-1.87-.18,6.21-.36,12.42-.53,18.63Z"/>
        <path class="cls-5" d="M501.05,239.11c-9.59-.42-19.17-.79-28.76-1.11.15-4.72.31-9.43.46-14.15,9.64.31,19.29.69,28.93,1.11-.21,4.71-.42,9.43-.63,14.14Z"/>
        <path class="cls-5" d="M416.58,171.09c5.86.06,11.73.14,17.59.24.05-2.89.1-5.79.15-8.68-5.88-.1-11.77-.18-17.65-.24-.03,2.89-.06,5.79-.09,8.68Z"/>
        <path class="cls-3" d="M486.73,238.51c.18-4.72.36-9.43.54-14.15"/>
      </g>
      <g>
        <path class="cls-3" d="M338.19,254.19c2.5-.05,5-.1,7.5-.15-.04-2-.07-4.01-.11-6.01-2.51.05-5.01.1-7.52.15.04,2,.09,4.01.13,6.01Z"/>
        <path class="cls-3" d="M345.69,254.04c2.5-.05,5-.09,7.5-.13-.03-2-.06-4.01-.09-6.01-2.51.04-5.01.08-7.52.13.04,2,.07,4.01.11,6.01Z"/>
        <path class="cls-7" d="M368.12,264.79c-11.23.1-22.45.28-33.67.54-.05-2.2-.1-4.4-.15-6.6,8.43-.19,16.86-.34,25.29-.45,2.83.32,5.65.65,8.48.98.02,1.84.03,3.69.05,5.53Z"/>
        <path class="cls-4" d="M359.59,258.28c-8.43.11-16.86.26-25.29.45.44-2.21.87-4.42,1.31-6.63,7.05-.16,14.1-.29,21.15-.38.95,2.19,1.89,4.38,2.83,6.56Z"/>
        <path class="cls-4" d="M338.89,266.27c.03,1.63,1.39,2.92,3.03,2.88,1.64-.03,2.94-1.38,2.91-3-.03-1.63-1.39-2.92-3.03-2.89-1.64.03-2.95,1.38-2.91,3.01Z"/>
        <path class="cls-4" d="M359.5,265.92c.02,1.63,1.37,2.93,3.01,2.91,1.64-.02,2.96-1.35,2.94-2.98-.02-1.63-1.36-2.93-3.01-2.91-1.64.02-2.96,1.36-2.94,2.98Z"/>
        <path class="cls-3" d="M343.34,258.54c-.04-2.2-.08-4.4-.13-6.6"/>
        <path class="cls-3" d="M350.94,258.41c-.04-2.2-.07-4.4-.11-6.6"/>
      </g>
      <g>
        <g>
          <path class="cls-8" d="M582.47,267.53s.63-1.21,1.4-2.69c.77-1.48,3.09-2.55,5.16-2.39,1.62.13,3.23.26,4.85.39,2.07.17,4.8,1.64,6.07,3.26.79,1.01,1.58,2.03,2.37,3.04"/>
          <path class="cls-3" d="M582.47,267.53s.63-1.21,1.4-2.69c.77-1.48,3.09-2.55,5.16-2.39,1.62.13,3.23.26,4.85.39,2.07.17,4.8,1.64,6.07,3.26.79,1.01,1.58,2.03,2.37,3.04"/>
        </g>
        <g>
          <path class="cls-10" d="M577.68,270.2c-.13,1.77,1.22,3.33,3,3.46,9.57.74,19.14,1.54,28.7,2.39,1.78.16,3.31-.5,3.4-1.46.09-.96-.46-2.57-1.22-3.56-.76-1-2.84-1.95-4.63-2.1-8.57-.75-17.14-1.46-25.72-2.12-1.79-.14-3.36,1.2-3.5,2.97-.01.14-.02.29-.03.43Z"/>
          <path class="cls-3" d="M577.68,270.2c-.13,1.77,1.22,3.33,3,3.46,9.57.74,19.14,1.54,28.7,2.39,1.78.16,3.31-.5,3.4-1.46.09-.96-.46-2.57-1.22-3.56-.76-1-2.84-1.95-4.63-2.1-8.57-.75-17.14-1.46-25.72-2.12-1.79-.14-3.36,1.2-3.5,2.97-.01.14-.02.29-.03.43Z"/>
        </g>
        <path class="cls-4" d="M608.61,275.36c-.14,1.62-1.59,2.82-3.22,2.67-1.63-.14-2.85-1.57-2.71-3.19.14-1.62,1.58-2.82,3.22-2.68,1.64.14,2.85,1.58,2.71,3.2Z"/>
        <path class="cls-4" d="M580.72,273.05c-.12,1.62,1.1,3.04,2.74,3.17,1.64.13,3.07-1.08,3.2-2.7.13-1.62-1.09-3.04-2.74-3.17-1.64-.13-3.07,1.08-3.2,2.71Z"/>
        <path class="cls-3" d="M590.84,262.6c-.13,1.65-.27,3.29-.4,4.94"/>
      </g>
      <g>
        <g>
          <path class="cls-8" d="M269.85,273.43s-.59-1.23-1.32-2.73c-.72-1.5-3.01-2.64-5.07-2.53-1.61.08-3.22.17-4.83.26-2.06.11-4.82,1.5-6.13,3.09-.82.99-1.63,1.98-2.44,2.97"/>
          <path class="cls-3" d="M269.85,273.43s-.59-1.23-1.32-2.73c-.72-1.5-3.01-2.64-5.07-2.53-1.61.08-3.22.17-4.83.26-2.06.11-4.82,1.5-6.13,3.09-.82.99-1.63,1.98-2.44,2.97"/>
        </g>
        <g>
          <path class="cls-9" d="M274.54,276.24c.08,1.77-1.3,3.29-3.08,3.38-9.54.47-19.08.99-28.62,1.56-1.78.11-3.28-.59-3.34-1.55-.06-.96.53-2.55,1.31-3.53.78-.98,2.88-1.86,4.67-1.97,8.55-.51,17.1-.97,25.65-1.39,1.79-.09,3.31,1.29,3.4,3.06,0,.14.01.29.02.43Z"/>
          <path class="cls-3" d="M274.54,276.24c.08,1.77-1.3,3.29-3.08,3.38-9.54.47-19.08.99-28.62,1.56-1.78.11-3.28-.59-3.34-1.55-.06-.96.53-2.55,1.31-3.53.78-.98,2.88-1.86,4.67-1.97,8.55-.51,17.1-.97,25.65-1.39,1.79-.09,3.31,1.29,3.4,3.06,0,.14.01.29.02.43Z"/>
        </g>
        <path class="cls-4" d="M243.62,280.51c.1,1.62,1.5,2.86,3.13,2.76,1.63-.1,2.88-1.49,2.78-3.11-.09-1.62-1.49-2.86-3.13-2.77-1.64.1-2.88,1.49-2.78,3.12Z"/>
        <path class="cls-4" d="M271.44,279c.08,1.62-1.18,3.01-2.81,3.09-1.63.08-3.02-1.17-3.1-2.79-.08-1.62,1.17-3.01,2.81-3.09,1.64-.08,3.03,1.17,3.1,2.8Z"/>
        <path class="cls-3" d="M261.66,268.27c.09,1.65.17,3.3.26,4.94"/>
      </g>
      <g>
        <path class="cls-5" d="M483.36,277.21c-7.25-.27-14.51-.51-21.77-.72.05-1.67.1-3.34.14-5,7.27.21,14.54.45,21.81.73-.06,1.67-.13,3.34-.19,5Z"/>
        <g>
          <path class="cls-9" d="M444.4,274.27c-.02.97-.84,1.75-1.82,1.73-3.8-.08-7.6-.15-11.4-.21-.98-.02-1.77-.83-1.75-1.8.02-1.33.04-2.65.06-3.98.02-.97.31-2.52.65-3.43.77-2.06,1.54-4.12,2.31-6.17.34-.91,1.43-1.65,2.42-1.63,2.69.05,5.38.1,8.07.16.99.02,1.78.84,1.76,1.81-.1,4.51-.2,9.02-.29,13.53Z"/>
          <path class="cls-3" d="M444.4,274.27c-.02.97-.84,1.75-1.82,1.73-3.8-.08-7.6-.15-11.4-.21-.98-.02-1.77-.83-1.75-1.8.02-1.33.04-2.65.06-3.98.02-.97.31-2.52.65-3.43.77-2.06,1.54-4.12,2.31-6.17.34-.91,1.43-1.65,2.42-1.63,2.69.05,5.38.1,8.07.16.99.02,1.78.84,1.76,1.81-.1,4.51-.2,9.02-.29,13.53Z"/>
        </g>
        <path class="cls-4" d="M485.56,272.28c-13.69-.53-27.39-.94-41.09-1.24.14-6.66.29-13.31.43-19.97,13.81.3,27.62.72,41.42,1.25-.26,6.65-.51,13.31-.77,19.96Z"/>
        <path class="cls-4" d="M441.69,275.9c-.04,2.02-1.72,3.62-3.74,3.58-2.02-.04-3.63-1.7-3.6-3.72.04-2.02,1.71-3.62,3.74-3.58,2.03.04,3.64,1.71,3.6,3.72Z"/>
        <path class="cls-4" d="M478.58,276.94c-.07,2.01-1.77,3.59-3.79,3.52-2.02-.07-3.61-1.76-3.54-3.77.07-2.02,1.76-3.6,3.79-3.53,2.03.07,3.61,1.76,3.54,3.78Z"/>
        <path class="cls-5" d="M461.59,276.48c-3.51-.1-7.02-.19-10.54-.28.04-1.67.08-3.34.12-5.01,3.52.09,7.04.18,10.56.28-.05,1.67-.1,3.34-.14,5Z"/>
        <g>
          <path class="cls-8" d="M439.71,266.84c-.01.61-.52,1.09-1.14,1.08-2.59-.05-5.18-.1-7.77-.14-.61,0-.94-.48-.73-1.05.87-2.32,1.73-4.64,2.61-6.95.21-.57.89-1.03,1.51-1.02,1.52.03,3.04.05,4.56.08.61.01,1.11.52,1.1,1.13-.05,2.29-.09,4.58-.14,6.87Z"/>
          <path class="cls-3" d="M439.71,266.84c-.01.61-.52,1.09-1.14,1.08-2.59-.05-5.18-.1-7.77-.14-.61,0-.94-.48-.73-1.05.87-2.32,1.73-4.64,2.61-6.95.21-.57.89-1.03,1.51-1.02,1.52.03,3.04.05,4.56.08.61.01,1.11.52,1.1,1.13-.05,2.29-.09,4.58-.14,6.87Z"/>
        </g>
        <path class="cls-3" d="M444.55,267.16c13.72.3,27.44.71,41.15,1.24"/>
      </g>
      <g>
        <path class="cls-6" d="M263.6,216.21c.53,10.35,5.06,15.37,10.32,15.13,5.26-.25,9.3-5.67,8.86-16.03-.44-10.35-5.13-18.56-10.47-18.31-5.34.25-9.24,8.86-8.71,19.21Z"/>
        <g>
          <path class="cls-3" d="M274.3,239.41c-.47-9.95-.93-19.91-1.4-29.86"/>
          <path class="cls-3" d="M273.65,225.67c1.33-1.41,2.67-2.82,4-4.23"/>
          <path class="cls-3" d="M273.31,218.27c-1.46-1.28-2.93-2.56-4.39-3.84"/>
        </g>
      </g>
      <g>
        <path class="cls-4" d="M41.66,250.41c-.17-1.2-.34-2.4-.51-3.6-.19-1.32-1.45-2.24-2.81-2.05-3.02.43-6.05.86-9.07,1.3-1.36.2-2.31,1.44-2.12,2.76.18,1.2.35,2.4.53,3.6,4.66-.68,9.32-1.35,13.98-2.01Z"/>
        <path class="cls-5" d="M28.6,258.66c4.65-.68,9.29-1.35,13.94-2.01-.29-2.08-.59-4.16-.88-6.24-4.66.66-9.32,1.33-13.98,2.01.3,2.08.61,4.16.91,6.23Z"/>
        <path class="cls-11" d="M37.78,254.14c.09.6.65,1.01,1.27.93.62-.09,1.05-.64.96-1.24-.08-.6-.65-1.02-1.27-.93-.62.09-1.05.64-.96,1.24Z"/>
        <path class="cls-3" d="M28.6,258.66c.12.82.24,1.64.36,2.46"/>
        <path class="cls-11" d="M32.46,254.91c.09.6-.34,1.16-.96,1.25-.62.09-1.18-.32-1.27-.92-.09-.6.34-1.16.96-1.25.62-.09,1.19.32,1.27.92Z"/>
        <path class="cls-3" d="M42.54,256.65c.12.82.23,1.64.35,2.46"/>
      </g>
      <g>
        <path class="cls-4" d="M108.2,252.77c-.22-1.96-.45-3.93-.67-5.89-.22-1.96-.45-3.93-.67-5.89-.22-1.96-.45-3.93-.67-5.89h0c-.88-7.72-1.76-15.44-2.65-23.17-18.49,2.11-36.95,4.43-55.4,6.95,1.86,13.58,3.71,27.15,5.57,40.73,18.15-2.48,36.32-4.76,54.5-6.84Z"/>
        <path class="cls-5" d="M68.66,257.61c-2.63.34-5.25.69-7.88,1.04-.78-5.84-1.56-11.67-2.34-17.51,2.64-.35,5.29-.7,7.93-1.05.76,5.84,1.52,11.68,2.29,17.52Z"/>
        <path class="cls-4" d="M63.58,231.17c-2.12.28-4.24.56-6.35.84-.27-2.05-.55-4.1-.82-6.14,2.12-.28,4.25-.57,6.37-.84.27,2.05.54,4.1.81,6.15Z"/>
        <path class="cls-4" d="M80.77,228.97c-2.12.26-4.24.53-6.36.8l-.78-6.15c2.12-.27,4.25-.54,6.37-.8.25,2.05.51,4.1.76,6.15Z"/>
        <path class="cls-4" d="M97.97,226.9c-2.12.25-4.24.5-6.36.75-.25-2.05-.49-4.1-.74-6.15,2.13-.25,4.25-.51,6.38-.76.24,2.05.48,4.1.72,6.16Z"/>
        <path class="cls-4" d="M96.14,254.18c4.02-.48,8.04-.95,12.06-1.41-.67-5.91-1.35-11.81-2.02-17.72-4.05.46-8.1.94-12.15,1.42.7,5.9,1.41,11.81,2.11,17.71Z"/>
        <path class="cls-4" d="M84.08,255.65c4.02-.5,8.04-.99,12.06-1.47-.7-5.9-1.41-11.81-2.11-17.71-4.05.48-8.1.98-12.14,1.48.73,5.9,1.46,11.8,2.2,17.7Z"/>
      </g>
      <path class="cls-6" d="M2.42,267.16s-.54-3.42-1.2-7.61c-.66-4.18,2.87-8.25,7.86-9.02,4.99-.77,9.58,2.05,10.21,6.24.63,4.19,1.15,7.62,1.15,7.62-6,.9-12.01,1.83-18.01,2.78Z"/>
      <path class="cls-6" d="M596.64,234.87c-3.34-.28-6.25,1.81-6.47,4.63.23-2.81-2.32-5.34-5.66-5.6-3.34-.26-6.24,1.84-6.45,4.66.21-2.82-2.34-5.33-5.68-5.57-3.34-.24-6.23,1.87-6.43,4.69-.2,2.82-.36,5.12-.36,5.12,4.03.28,8.06.58,12.09.88,4.03.3,8.06.62,12.08.94,4.03.32,8.05.65,12.08,1,0,0,.2-2.3.43-5.12.24-2.81-2.29-5.35-5.63-5.62Z"/>
      <path class="cls-6" d="M531.88,240.66s.13-2.31.29-5.13c.16-2.82-2.44-5.28-5.78-5.46-3.34-.18-6.19,1.99-6.34,4.81-.15,2.82-.27,5.13-.27,5.13,4.03.21,8.07.43,12.1.66Z"/>
      <path class="cls-6" d="M423.12,226.61c-3.35-.04-6.11,2.24-6.13,5.06.03-2.82-2.68-5.16-6.03-5.19-3.35-.03-6.09,2.27-6.11,5.09-.02,2.82-.03,5.13-.03,5.13,4.04.02,8.07.05,12.11.1,4.04.04,8.07.09,12.11.16,0,0,.04-2.31.08-5.13.04-2.82-2.66-5.18-6-5.22Z"/>
      <path class="cls-6" d="M758.65,263.96s.34-2.28.76-5.08c.42-2.79-1.95-5.48-5.27-5.97-3.32-.49-6.36,1.41-6.77,4.2-.4,2.79-.73,5.08-.73,5.08,4.01.58,8.01,1.17,12.01,1.76Z"/>
      <g>
        <g>
          <path class="cls-8" d="M732.5,277.55c-.11-1.29-.22-2.58-.34-3.87-.11-1.21-1.2-2.34-2.42-2.51-4.79-.66-9.57-1.31-14.36-1.94-1.23-.16-2.36.69-2.52,1.9-.16,1.23-.32,2.46-.48,3.69"/>
          <path class="cls-3" d="M732.5,277.55c-.11-1.29-.22-2.58-.34-3.87-.11-1.21-1.2-2.34-2.42-2.51-4.79-.66-9.57-1.31-14.36-1.94-1.23-.16-2.36.69-2.52,1.9-.16,1.23-.32,2.46-.48,3.69"/>
        </g>
        <g>
          <path class="cls-2" d="M737.37,284.45c-8.59-1.22-17.19-2.39-25.8-3.52.27-2.04.53-4.08.8-6.12,6.68.88,13.36,1.78,20.03,2.71,1.92.42,3.85.84,5.77,1.26-.27,1.89-.54,3.78-.8,5.67Z"/>
          <path class="cls-4" d="M714.33,281.3c-.2,1.51.88,2.89,2.4,3.1,1.53.2,2.93-.85,3.13-2.36.2-1.51-.87-2.9-2.4-3.1-1.53-.2-2.93.86-3.13,2.36Z"/>
          <path class="cls-4" d="M728.34,283.19c-.21,1.51.86,2.9,2.39,3.11,1.53.21,2.93-.84,3.15-2.34.21-1.51-.86-2.9-2.39-3.11-1.53-.21-2.94.84-3.15,2.35Z"/>
        </g>
      </g>
      <g>
        <g>
          <path class="cls-8" d="M107.75,286.48c.14-1.29.28-2.57.42-3.86.13-1.21,1.24-2.31,2.46-2.45,4.76-.55,9.53-1.08,14.3-1.6,1.22-.13,2.33.75,2.46,1.96.13,1.23.27,2.47.4,3.7"/>
          <path class="cls-3" d="M107.75,286.48c.14-1.29.28-2.57.42-3.86.13-1.21,1.24-2.31,2.46-2.45,4.76-.55,9.53-1.08,14.3-1.6,1.22-.13,2.33.75,2.46,1.96.13,1.23.27,2.47.4,3.7"/>
        </g>
        <g>
          <path class="cls-7" d="M102.77,293.27c8.56-1.01,17.12-1.98,25.68-2.9-.22-2.05-.44-4.09-.66-6.14-6.65.72-13.3,1.46-19.94,2.23-1.92.37-3.83.75-5.75,1.12.22,1.9.45,3.79.67,5.69Z"/>
          <path class="cls-4" d="M125.71,290.67c.16,1.51-.93,2.87-2.45,3.04-1.52.17-2.89-.92-3.06-2.43-.17-1.51.93-2.88,2.45-3.04,1.52-.17,2.89.92,3.06,2.44Z"/>
          <path class="cls-4" d="M111.76,292.22c.17,1.51-.92,2.88-2.44,3.05-1.52.18-2.89-.9-3.07-2.42-.18-1.51.91-2.88,2.44-3.06,1.52-.18,2.9.91,3.07,2.42Z"/>
        </g>
      </g>
      <path class="cls-7" d="M368.03,58.17c-2.67-.25-5.35-.5-8.03-.74,2.56-3.33,5.56-6.12,8.75-8.25-5.53-2.69-12.67-1-17.24,3.86-1-.36-2-.72-3-1.08-1.11.33-2.22.66-3.33,1,.49.77.98,1.54,1.46,2.31.63.72,1.27,1.44,1.9,2.16-2.81,6.15-1.08,12.97,4.29,16.2.53-3.57,1.78-7.31,3.75-10.96,1.5,2.03,3,4.06,4.5,6.09.32-2,1.07-4.03,2.31-5.93,1.24-1.9,2.84-3.46,4.63-4.66Z"/>
      <path class="cls-7" d="M378.4,108.58c-2.36-.24-4.72-.47-7.08-.7,2.28-2.99,4.93-5.49,7.75-7.39-4.87-2.44-11.18-.94-15.23,3.41-.88-.33-1.76-.66-2.64-.98-.98.29-1.96.59-2.94.88.43.69.86,1.39,1.28,2.08.56.65,1.11,1.3,1.67,1.95-2.51,5.52-1,11.67,3.73,14.6.48-3.21,1.6-6.57,3.36-9.85,1.32,1.83,2.64,3.67,3.95,5.5.29-1.8.96-3.62,2.06-5.33,1.11-1.71,2.52-3.11,4.1-4.18Z"/>
      <path class="cls-4" d="M132.9,167.18c2.76,27.35,5.51,54.7,8.27,82.05,38.98-3.93,78.03-6.94,117.12-9.02-1.08-20.23-2.16-40.46-3.24-60.7-.38-7.22-.77-14.43-1.15-21.65-40.38,2.15-80.72,5.26-121,9.32Z"/>
      <path class="cls-4" d="M132.36,161.88c.18,1.77.36,3.53.53,5.3,40.27-4.06,80.61-7.17,121-9.32-.09-1.77-.19-3.55-.28-5.32-40.46,2.16-80.89,5.27-121.25,9.34Z"/>
      <g>
        <path class="cls-4" d="M234.88,241.57c-3.9.24-7.8.5-11.7.76-.51-7.57-1.02-15.14-1.53-22.72,3.94-.27,7.87-.52,11.81-.77.48,7.57.95,15.15,1.43,22.72Z"/>
        <path class="cls-4" d="M246.59,240.86c-3.9.23-7.8.46-11.71.71-.48-7.57-.95-15.15-1.43-22.72,3.94-.25,7.87-.48,11.81-.71.44,7.58.88,15.15,1.32,22.73Z"/>
        <path class="cls-4" d="M258.3,240.21c-3.9.21-7.81.43-11.71.65-.44-7.58-.88-15.15-1.32-22.73,3.94-.23,7.88-.45,11.82-.66.4,7.58.81,15.16,1.21,22.74Z"/>
        <path class="cls-4" d="M233.46,218.85c-3.94.25-7.87.5-11.81.77-.51-7.57-1.02-15.14-1.53-22.72,3.97-.27,7.94-.53,11.92-.78.48,7.57.95,15.15,1.43,22.72Z"/>
        <path class="cls-4" d="M245.27,218.13c-3.94.23-7.88.47-11.81.71-.48-7.57-.95-15.15-1.43-22.72,3.97-.25,7.95-.49,11.92-.72.44,7.58.88,15.15,1.32,22.73Z"/>
        <path class="cls-4" d="M257.09,217.47c-3.94.21-7.88.43-11.82.66-.44-7.58-.88-15.15-1.32-22.73,3.97-.23,7.95-.45,11.92-.66.4,7.58.81,15.16,1.21,22.74Z"/>
      </g>
      <path class="cls-5" d="M242.31,170.98c-1.65.1-3.3.19-4.95.29-.09-1.57-.19-3.15-.28-4.72-2.1.13-4.2.25-6.3.39.1,1.57.2,3.15.3,4.72-1.65.1-3.3.21-4.95.31.13,2,.26,3.99.39,5.99,1.65-.11,3.29-.21,4.94-.31.1,1.57.2,3.15.3,4.72,2.09-.13,4.17-.26,6.26-.38-.09-1.57-.19-3.15-.28-4.72,1.65-.1,3.3-.2,4.94-.29-.12-2-.23-3.99-.35-5.99Z"/>
      <path class="cls-4" d="M158.74,247.52c1.84-.17,3.67-.34,5.51-.51"/>
      <g>
        <path class="cls-4" d="M148,201.97c2.78-.27,5.57-.53,8.35-.79-.28-2.97-.55-5.95-.83-8.92-2.79.26-5.59.52-8.38.79.29,2.97.57,5.94.86,8.92Z"/>
        <path class="cls-4" d="M166.05,200.3c2.78-.25,5.57-.49,8.36-.73-.25-2.97-.51-5.95-.76-8.92-2.8.24-5.59.48-8.38.73.26,2.97.53,5.95.79,8.92Z"/>
        <path class="cls-4" d="M184.12,198.76c2.79-.23,5.57-.45,8.36-.67-.23-2.98-.47-5.95-.7-8.93-2.8.22-5.59.44-8.39.67.24,2.98.49,5.95.73,8.93Z"/>
        <path class="cls-4" d="M202.18,197.34c2.79-.21,5.57-.41,8.36-.61-.21-2.98-.42-5.96-.64-8.93-2.8.2-5.59.4-8.39.61.22,2.98.44,5.95.67,8.93Z"/>
      </g>
      <g>
        <path class="cls-4" d="M149.54,218.03c2.77-.27,5.53-.53,8.3-.78-.28-2.97-.55-5.95-.83-8.92-2.78.26-5.55.52-8.33.79.29,2.97.57,5.94.86,8.92Z"/>
        <path class="cls-4" d="M167.48,216.37c2.77-.25,5.53-.49,8.3-.72-.25-2.97-.51-5.95-.76-8.92-2.78.24-5.55.48-8.33.73.26,2.97.53,5.95.79,8.92Z"/>
        <path class="cls-4" d="M185.43,214.84c2.77-.23,5.54-.45,8.31-.67-.23-2.98-.47-5.95-.7-8.93-2.78.22-5.56.44-8.34.67.24,2.98.49,5.95.73,8.93Z"/>
        <path class="cls-4" d="M203.39,213.43c2.77-.21,5.54-.41,8.31-.61-.21-2.98-.42-5.96-.64-8.93-2.78.2-5.56.4-8.34.61.22,2.98.44,5.95.67,8.93Z"/>
      </g>
      <g>
        <path class="cls-4" d="M146.46,185.91c2.8-.27,5.6-.53,8.4-.79-.28-2.97-.55-5.95-.83-8.92-2.81.26-5.62.53-8.43.8.29,2.97.57,5.94.86,8.92Z"/>
        <path class="cls-4" d="M164.62,184.23c2.8-.25,5.61-.49,8.41-.73-.25-2.97-.51-5.95-.76-8.92-2.81.24-5.63.49-8.44.74.26,2.97.53,5.95.79,8.92Z"/>
        <path class="cls-4" d="M182.8,182.67c2.8-.23,5.61-.45,8.41-.67-.23-2.98-.47-5.95-.7-8.93-2.81.22-5.63.45-8.44.68.24,2.98.49,5.95.73,8.93Z"/>
        <path class="cls-4" d="M200.98,181.25c2.8-.21,5.61-.41,8.42-.61-.21-2.98-.42-5.96-.64-8.93-2.82.2-5.63.41-8.45.62.22,2.98.44,5.95.67,8.93Z"/>
      </g>
      <g>
        <path class="cls-6" d="M132.23,226.33c1.06,10.31-2.65,15.97-7.89,16.53-5.24.56-10.07-4.18-11.22-14.48-1.15-10.3,2.23-19.13,7.55-19.7,5.32-.57,10.5,7.34,11.56,17.65Z"/>
        <g>
          <path class="cls-3" d="M125.2,250.89c-1.06-9.91-2.13-19.82-3.19-29.72"/>
          <path class="cls-3" d="M123.74,237.21c-1.53-1.19-3.07-2.38-4.61-3.57"/>
          <path class="cls-3" d="M122.95,229.85c1.25-1.49,2.5-2.98,3.76-4.46"/>
        </g>
      </g>
      <path class="cls-6" d="M169.64,236.22c-3.34.3-5.85,2.85-5.6,5.66-.26-2.81-3.19-4.86-6.53-4.55-3.33.31-5.84,2.88-5.57,5.69.27,2.81.49,5.11.49,5.11,4.02-.39,8.05-.76,12.07-1.13,4.02-.37,8.05-.72,12.07-1.07,0,0-.2-2.3-.44-5.12-.24-2.81-3.17-4.88-6.5-4.58Z"/>
      <path class="cls-6" d="M207.05,233.18c-3.34.25-5.89,2.76-5.68,5.57-.21-2.82-3.12-4.91-6.46-4.65-3.34.26-5.88,2.79-5.65,5.6.23,2.81.42,5.12.41,5.12,4.03-.33,8.05-.64,12.08-.95,4.03-.31,8.06-.6,12.09-.89,0,0-.16-2.3-.37-5.12-.2-2.82-3.1-4.93-6.43-4.68Z"/>
      <path class="cls-4" d="M430.47,15.8c1.23.02,2.37.39,3.35,1.02,1.07-5.95,5.97-10.41,11.79-10.29,1.63.03,3.17.42,4.56,1.09,2.23-3.97,6.32-6.6,10.94-6.48,4.62.12,8.57,2.95,10.6,7.03,1.43-.6,2.99-.91,4.62-.86,5.82.18,10.48,4.89,11.24,10.89,1.02-.58,2.17-.89,3.4-.84,3.77.14,6.69,3.56,6.53,7.64-.16,4.07-3.33,7.26-7.07,7.12-20.05-.74-40.11-1.26-60.17-1.55-3.74-.05-6.74-3.39-6.7-7.47.05-4.08,3.14-7.35,6.91-7.29Z"/>
      <path class="cls-4" d="M167.16,96.75c.31,3.64,3.49,6.35,7.11,6.05,14.65-1.21,29.31-2.3,43.98-3.26,3.62-.24,6.36-3.38,6.13-7.03-.23-3.65-3.36-6.42-7-6.18-1.18.08-2.27.47-3.19,1.08-1.3-5.28-6.23-9.03-11.84-8.63-1.57.11-3.04.54-4.36,1.21-2.33-3.45-6.39-5.59-10.85-5.24-6.64.51-11.58,6.32-11.04,12.93.08.96.27,1.82.55,2.6-1.04-.52-2.23-.78-3.47-.68-3.63.3-6.33,3.5-6.02,7.15Z"/>
      <path class="cls-4" d="M756.48,91.92c-1.24-.17-2.45.02-3.53.48.32-.76.56-1.61.7-2.56.31-2.23-.02-4.39-.85-6.32-.26-.6-.56-1.17-.91-1.72-.37-.59-.8-1.14-1.27-1.65-.49-.53-1.02-1.02-1.6-1.47-1.62-1.24-3.59-2.08-5.76-2.37-4.46-.59-8.66,1.32-11.19,4.63-1.29-.75-2.74-1.25-4.31-1.45-5.62-.71-10.78,2.75-12.37,7.95-.89-.66-1.96-1.11-3.15-1.26-3.64-.44-6.95,2.15-7.38,5.78-.43,3.63,2.16,6.92,5.78,7.36,14.69,1.79,29.36,3.7,44.02,5.73,3.62.5,6.96-2.02,7.47-5.64.51-3.62-2.02-6.97-5.66-7.48Z"/>
    </g>
  </g>
</svg>