<?xml version="1.0" encoding="UTF-8"?>
<svg id="_レイヤー_2" data-name="レイヤー 2" xmlns="http://www.w3.org/2000/svg" viewBox="0 0 52.97 111.22">
  <defs>
    <style>
      .cls-1 {
        fill: #6fba2c;
      }

      .cls-2 {
        fill: #1eaa39;
      }

      .cls-3 {
        fill: #804f21;
      }
    </style>
  </defs>
  <g id="_レイヤー_1-2" data-name="レイヤー 1">
    <g>
      <polygon class="cls-3" points="20.62 77.1 8.58 53.02 12.16 52.04 24.2 72.87 25.52 47.77 29.41 47.81 29.09 72.87 40.48 52.69 42.1 53.67 32.67 76.45 32.18 111.22 20.2 111.22 20.62 77.1"/>
      <path class="cls-2" d="M19.22,64c-3.19-.31-6.48-.79-9.2-2.48-2.9-1.8-6.09-4.23-7.46-7.36-5.08-11.65-1.66-22.68,2.16-35.56,1.64-5.54,4.85-12.68,10.02-15.26C19,1.21,25.71-.06,30.48,0c4.46.06,9.74,1.68,13.15,4.55,3,2.51,5.23,7.14,6.27,10.91,2.47,8.95,3.76,17.57,2.7,26.8-.8,6.95-1.78,13.17-7.19,17.77-6.52,5.55-18.21,4.74-26.19,3.96Z"/>
      <g>
        <g>
          <path class="cls-1" d="M10.09,15.97c-.77,0-1.4-.71-1.4-1.58s.62-1.58,1.4-1.58,1.4.71,1.4,1.58-.62,1.58-1.4,1.58Z"/>
          <path class="cls-1" d="M15.77,15.97c-.77,0-1.4-.71-1.4-1.58s.62-1.58,1.4-1.58,1.4.71,1.4,1.58-.62,1.58-1.4,1.58Z"/>
          <ellipse class="cls-1" cx="21.45" cy="14.39" rx="1.4" ry="1.58"/>
          <ellipse class="cls-1" cx="27.13" cy="14.39" rx="1.4" ry="1.58"/>
          <path class="cls-1" d="M32.81,15.97c-.77,0-1.4-.71-1.4-1.58s.62-1.58,1.4-1.58,1.4.71,1.4,1.58-.62,1.58-1.4,1.58Z"/>
          <path class="cls-1" d="M38.49,15.97c-.77,0-1.4-.71-1.4-1.58s.62-1.58,1.4-1.58,1.4.71,1.4,1.58-.62,1.58-1.4,1.58Z"/>
          <ellipse class="cls-1" cx="44.17" cy="14.39" rx="1.4" ry="1.58"/>
        </g>
        <g>
          <path class="cls-1" d="M6.63,24.03c-.77,0-1.4-.71-1.4-1.58s.62-1.58,1.4-1.58,1.4.71,1.4,1.58-.62,1.58-1.4,1.58Z"/>
          <ellipse class="cls-1" cx="12.31" cy="22.45" rx="1.4" ry="1.58"/>
          <path class="cls-1" d="M17.99,24.03c-.77,0-1.4-.71-1.4-1.58s.62-1.58,1.4-1.58,1.4.71,1.4,1.58-.62,1.58-1.4,1.58Z"/>
          <path class="cls-1" d="M23.67,24.03c-.77,0-1.4-.71-1.4-1.58s.62-1.58,1.4-1.58,1.4.71,1.4,1.58-.62,1.58-1.4,1.58Z"/>
          <path class="cls-1" d="M29.35,24.03c-.77,0-1.4-.71-1.4-1.58s.62-1.58,1.4-1.58,1.4.71,1.4,1.58-.62,1.58-1.4,1.58Z"/>
          <path class="cls-1" d="M35.03,24.03c-.77,0-1.4-.71-1.4-1.58s.62-1.58,1.4-1.58,1.4.71,1.4,1.58-.62,1.58-1.4,1.58Z"/>
          <path class="cls-1" d="M40.71,24.03c-.77,0-1.4-.71-1.4-1.58s.62-1.58,1.4-1.58,1.4.71,1.4,1.58-.62,1.58-1.4,1.58Z"/>
          <path class="cls-1" d="M46.39,24.03c-.77,0-1.4-.71-1.4-1.58s.62-1.58,1.4-1.58,1.4.71,1.4,1.58-.62,1.58-1.4,1.58Z"/>
        </g>
        <g>
          <path class="cls-1" d="M17.99,7.98c-.77,0-1.4-.71-1.4-1.58s.62-1.58,1.4-1.58,1.4.71,1.4,1.58-.62,1.58-1.4,1.58Z"/>
          <path class="cls-1" d="M23.67,7.98c-.77,0-1.4-.71-1.4-1.58s.62-1.58,1.4-1.58,1.4.71,1.4,1.58-.62,1.58-1.4,1.58Z"/>
          <path class="cls-1" d="M29.35,7.98c-.77,0-1.4-.71-1.4-1.58s.62-1.58,1.4-1.58,1.4.71,1.4,1.58-.62,1.58-1.4,1.58Z"/>
          <path class="cls-1" d="M35.03,7.98c-.77,0-1.4-.71-1.4-1.58s.62-1.58,1.4-1.58,1.4.71,1.4,1.58-.62,1.58-1.4,1.58Z"/>
          <path class="cls-1" d="M40.71,7.98c-.77,0-1.4-.71-1.4-1.58s.62-1.58,1.4-1.58,1.4.71,1.4,1.58-.62,1.58-1.4,1.58Z"/>
        </g>
        <g>
          <path class="cls-1" d="M4.41,32.95c-.77,0-1.4-.71-1.4-1.58s.62-1.58,1.4-1.58,1.4.71,1.4,1.58-.62,1.58-1.4,1.58Z"/>
          <path class="cls-1" d="M10.09,32.95c-.77,0-1.4-.71-1.4-1.58s.62-1.58,1.4-1.58,1.4.71,1.4,1.58-.62,1.58-1.4,1.58Z"/>
          <path class="cls-1" d="M15.77,32.95c-.77,0-1.4-.71-1.4-1.58s.62-1.58,1.4-1.58,1.4.71,1.4,1.58-.62,1.58-1.4,1.58Z"/>
          <ellipse class="cls-1" cx="21.45" cy="31.37" rx="1.4" ry="1.58"/>
          <ellipse class="cls-1" cx="27.13" cy="31.37" rx="1.4" ry="1.58"/>
          <path class="cls-1" d="M32.81,32.95c-.77,0-1.4-.71-1.4-1.58s.62-1.58,1.4-1.58,1.4.71,1.4,1.58-.62,1.58-1.4,1.58Z"/>
          <path class="cls-1" d="M38.49,32.95c-.77,0-1.4-.71-1.4-1.58s.62-1.58,1.4-1.58,1.4.71,1.4,1.58-.62,1.58-1.4,1.58Z"/>
          <ellipse class="cls-1" cx="44.17" cy="31.37" rx="1.4" ry="1.58"/>
          <path class="cls-1" d="M49.85,32.95c-.77,0-1.4-.71-1.4-1.58s.62-1.58,1.4-1.58,1.4.71,1.4,1.58-.62,1.58-1.4,1.58Z"/>
        </g>
        <g>
          <path class="cls-1" d="M6.63,41.01c-.77,0-1.4-.71-1.4-1.58s.62-1.58,1.4-1.58,1.4.71,1.4,1.58-.62,1.58-1.4,1.58Z"/>
          <path class="cls-1" d="M12.31,41.01c-.77,0-1.4-.71-1.4-1.58s.62-1.58,1.4-1.58,1.4.71,1.4,1.58-.62,1.58-1.4,1.58Z"/>
          <path class="cls-1" d="M17.99,41.01c-.77,0-1.4-.71-1.4-1.58s.62-1.58,1.4-1.58,1.4.71,1.4,1.58-.62,1.58-1.4,1.58Z"/>
          <path class="cls-1" d="M23.67,41.01c-.77,0-1.4-.71-1.4-1.58s.62-1.58,1.4-1.58,1.4.71,1.4,1.58-.62,1.58-1.4,1.58Z"/>
          <path class="cls-1" d="M29.35,41.01c-.77,0-1.4-.71-1.4-1.58s.62-1.58,1.4-1.58,1.4.71,1.4,1.58-.62,1.58-1.4,1.58Z"/>
          <path class="cls-1" d="M35.03,41.01c-.77,0-1.4-.71-1.4-1.58s.62-1.58,1.4-1.58,1.4.71,1.4,1.58-.62,1.58-1.4,1.58Z"/>
          <path class="cls-1" d="M40.71,41.01c-.77,0-1.4-.71-1.4-1.58s.62-1.58,1.4-1.58,1.4.71,1.4,1.58-.62,1.58-1.4,1.58Z"/>
          <path class="cls-1" d="M46.39,41.01c-.77,0-1.4-.71-1.4-1.58s.62-1.58,1.4-1.58,1.4.71,1.4,1.58-.62,1.58-1.4,1.58Z"/>
        </g>
        <g>
          <path class="cls-1" d="M4.41,49.94c-.77,0-1.4-.71-1.4-1.58s.62-1.58,1.4-1.58,1.4.71,1.4,1.58-.62,1.58-1.4,1.58Z"/>
          <path class="cls-1" d="M10.09,49.94c-.77,0-1.4-.71-1.4-1.58s.62-1.58,1.4-1.58,1.4.71,1.4,1.58-.62,1.58-1.4,1.58Z"/>
          <path class="cls-1" d="M15.77,49.94c-.77,0-1.4-.71-1.4-1.58s.62-1.58,1.4-1.58,1.4.71,1.4,1.58-.62,1.58-1.4,1.58Z"/>
          <path class="cls-1" d="M21.45,49.94c-.77,0-1.4-.71-1.4-1.58s.62-1.58,1.4-1.58,1.4.71,1.4,1.58-.62,1.58-1.4,1.58Z"/>
          <path class="cls-1" d="M27.13,49.94c-.77,0-1.4-.71-1.4-1.58s.62-1.58,1.4-1.58,1.4.71,1.4,1.58-.62,1.58-1.4,1.58Z"/>
          <path class="cls-1" d="M32.81,49.94c-.77,0-1.4-.71-1.4-1.58s.62-1.58,1.4-1.58,1.4.71,1.4,1.58-.62,1.58-1.4,1.58Z"/>
          <path class="cls-1" d="M38.49,49.94c-.77,0-1.4-.71-1.4-1.58s.62-1.58,1.4-1.58,1.4.71,1.4,1.58-.62,1.58-1.4,1.58Z"/>
          <path class="cls-1" d="M44.17,49.94c-.77,0-1.4-.71-1.4-1.58s.62-1.58,1.4-1.58,1.4.71,1.4,1.58-.62,1.58-1.4,1.58Z"/>
          <path class="cls-1" d="M49.85,49.94c-.77,0-1.4-.71-1.4-1.58s.62-1.58,1.4-1.58,1.4.71,1.4,1.58-.62,1.58-1.4,1.58Z"/>
        </g>
        <g>
          <path class="cls-1" d="M12.31,58c-.77,0-1.4-.71-1.4-1.58s.62-1.58,1.4-1.58,1.4.71,1.4,1.58-.62,1.58-1.4,1.58Z"/>
          <path class="cls-1" d="M17.99,58c-.77,0-1.4-.71-1.4-1.58s.62-1.58,1.4-1.58,1.4.71,1.4,1.58-.62,1.58-1.4,1.58Z"/>
          <path class="cls-1" d="M23.67,58c-.77,0-1.4-.71-1.4-1.58s.62-1.58,1.4-1.58,1.4.71,1.4,1.58-.62,1.58-1.4,1.58Z"/>
          <path class="cls-1" d="M29.35,58c-.77,0-1.4-.71-1.4-1.58s.62-1.58,1.4-1.58,1.4.71,1.4,1.58-.62,1.58-1.4,1.58Z"/>
          <path class="cls-1" d="M35.03,58c-.77,0-1.4-.71-1.4-1.58s.62-1.58,1.4-1.58,1.4.71,1.4,1.58-.62,1.58-1.4,1.58Z"/>
          <path class="cls-1" d="M40.71,58c-.77,0-1.4-.71-1.4-1.58s.62-1.58,1.4-1.58,1.4.71,1.4,1.58-.62,1.58-1.4,1.58Z"/>
        </g>
      </g>
    </g>
  </g>
</svg>