<?xml version="1.0" encoding="UTF-8"?>
<svg id="_レイヤー_2" data-name="レイヤー 2" xmlns="http://www.w3.org/2000/svg" viewBox="0 0 43.97 112.09">
  <defs>
    <style>
      .cls-1 {
        fill: #1eaa39;
      }

      .cls-2 {
        fill: #8dc21f;
      }

      .cls-3 {
        fill: #00913a;
      }

      .cls-4 {
        fill: #804f21;
      }
    </style>
  </defs>
  <g id="_レイヤー_1-2" data-name="レイヤー 1">
    <g>
      <rect class="cls-4" x="16.33" y="81.45" width="11.3" height="30.64"/>
      <g>
        <path class="cls-3" d="M42.08,48.45c2.61,23.48,6.35,48.07-18.45,48.07C-7.11,96.52-.27,66.43,3.08,46.68,7.52,20.51,11.15,0,23.45,0c11.24,0,15.7,22.06,18.63,48.45Z"/>
        <path class="cls-1" d="M42.08,48.45C39.15,22.06,34.68,0,23.45,0,11.15,0,7.52,20.51,3.08,46.68,1.96,53.28.45,61.03.08,68.43c.37.15.75.28,1.14.37,5.3,1.25,11.27-1.28,14.06-5.96-.02,4.02,3.64,7.67,7.66,7.72,4.02.05,7.74-3.43,8.03-7.44.62,5.21,7.54,7.71,12.32,5.54.21-.1.41-.2.61-.31-.23-6.32-1.07-13.16-1.82-19.9Z"/>
        <path class="cls-2" d="M41.45,43.09C38.5,19.14,33.91,0,23.45,0,11.56,0,7.77,19.17,3.52,44.11c.12.04.23.08.34.11,4.53,1.13,9.64-1.16,12.02-5.4-.01,3.65,3.11,6.95,6.55,7,3.44.05,6.62-3.11,6.87-6.75.53,4.72,6.45,6.99,10.53,5.02.58-.28,1.12-.62,1.63-1Z"/>
      </g>
    </g>
  </g>
</svg>