<?xml version="1.0" encoding="UTF-8"?>
<svg id="_レイヤー_2" data-name="レイヤー 2" xmlns="http://www.w3.org/2000/svg" viewBox="0 0 522.45 47.9">
  <defs>
    <style>
      .cls-1 {
        fill: #d4ecea;
      }
    </style>
  </defs>
  <g id="_レイヤー_1-2" data-name="レイヤー 1">
    <g>
      <path class="cls-1" d="M417.55,23.9s-1.41-5.45,2.99-5.09c4.39.35,4.22,4.57,4.22,4.57,0,0-3.34-9.66,6.15-10.36,7.32-.54,4.74,7.9,4.74,7.9,0,0,.18-6.15,4.39-4.21,4.22,1.93,3.69,6.15,2.81,6.15s1.78-4.62,5.44-2.28c3.86,2.46,1.23,4.57,1.23,4.57,0,0,4.04-.53,4.21,2.46.18,2.99,4.9-1.56,8.61,1.41,1.85,1.48-4.23,2.1-4.77,2.16-5.25.57-10.58.59-15.86.61-5.11.02-10.22-.05-15.34-.16-2.58-.06-5.24.63-7.87.42-2.65-.21-6.02-1.93-5.61-5.15.17-1.33,4.44-3.8,4.65-2.98Z"/>
      <path class="cls-1" d="M220.56,18.69s-1.05-5.45,2.63-5.8c3.69-.35,4.22,2.81,4.22,2.81,0,0-1.76-6.15,2.11-6.85,3.86-.7,6.15,3.16,5.45,5.09,0,0,1.41-11.59,7.73-7.55,6.32,4.04,2.64,6.32,2.64,6.32,0,0,2.81-4.22,5.45-2.11,2.63,2.11,1.76,3.69,1.76,3.69,0,0,3.51-5.27,6.68-2.81,3.16,2.46-.7,7.55-.7,7.55,0,0,5.45-3.34,6.5.35,1.05,3.69-2.46,4.04-2.46,4.04,0,0,4.74-4.04,7.38-.35,2.64,3.69,6.85,1.23,6.85,2.63s-17.04,0-17.04,0l-36.36.17s-13.18-4.74-2.81-7.2Z"/>
      <path class="cls-1" d="M507.67,25.65s-3.3-4.16-5.9-1.56c-2.6,2.6.69,3.82.69,3.82,0,0-4.16-.69-4.85,1.04-.69,1.73,1.91,3.64,1.91,3.64,0,0-.32-.78-.87.87-.52,1.56,2.08,2.08,2.77,1.73.69-.35,4.51-.17,4.51-.17h16.3s1.08-.79-1.73-1.73c-2.08-.69-3.82-1.04-3.82-1.56s.17-4.51-2.43-4.85c-2.6-.35-3.64,1.73-3.64,1.73,0,0,.69-4.68-2.95-3.64"/>
      <path class="cls-1" d="M13.16,34.02s-1.26-4.27-5.06-1.74c-3.8,2.53-.47,4.9-.47,4.9,0,0-4.74-4.59-6.33-.79-1.58,3.8,3.16,4.27,3.16,4.27,0,0-4.9.32-4.43,2.69.47,2.37,3.79,2.85,4.11,2.37.32-.47-.32,2.85,1.74,2.06,2.06-.79,2.53-.16,2.53-.16h24.2s.79-1.74-2.06-1.9c-2.85-.16-3.8-1.26-3.8-1.26,0,0,2.53-4.59-.47-4.9-3-.32-3.48,1.58-3.48,1.58,0,0,.79-4.11-1.42-4.43-4.89-.7-4.11,2.37-4.11,2.37,0,0,1.42-8.22-4.11-5.06Z"/>
      <path class="cls-1" d="M338.79,2.54s-1.27-4.27-5.06-1.74c-3.8,2.53-.48,4.9-.48,4.9,0,0-4.74-4.59-6.33-.79-1.58,3.79,3.16,4.27,3.16,4.27,0,0-4.9.32-4.43,2.69.47,2.37,3.8,2.84,4.11,2.37.32-.47-.32,2.85,1.74,2.06,2.06-.79,2.53-.16,2.53-.16h24.2s.79-1.74-2.06-1.9c-2.85-.16-3.8-1.26-3.8-1.26,0,0,2.53-4.59-.47-4.9-3.01-.32-3.48,1.58-3.48,1.58,0,0,.79-4.11-1.42-4.43-4.89-.7-4.11,2.37-4.11,2.37,0,0,1.42-8.22-4.11-5.06Z"/>
      <path class="cls-1" d="M61.4,11.22S57.18-.24,48.13,3.98c-9.05,4.22.6,12.07.6,12.07,0,0-6.04-2.41-9.35-.3-3.32,2.11-4.23,7.24-1.21,8.45,3.02,1.21,5.43,1.21,5.43,1.21,0,0-6.94,1.21-4.83,5.43,2.11,4.22,10.26.6,10.26.6,0,0,.6,5.13,3.62,4.53,3.02-.6,7.24-2.41,7.24-2.41h43.75s-3.32-2.71-6.94-3.02c-3.62-.3-5.73-3.32-5.73-3.32,0,0,1.21-11.77-5.13-9.66-6.34,2.11-7.54,4.22-7.54,4.22,0,0,6.94-6.94.3-10.26-7.06-3.53-10.26,4.22-10.26,4.22,0,0,2.41-9.96-6.94-4.53Z"/>
    </g>
  </g>
</svg>