<?xml version="1.0" encoding="UTF-8"?>
<svg id="_レイヤー_2" data-name="レイヤー 2" xmlns="http://www.w3.org/2000/svg" xmlns:xlink="http://www.w3.org/1999/xlink" viewBox="0 0 563.09 46.38">
  <defs>
    <style>
      .cls-1 {
        fill: url(#_名称未設定グラデーション_65);
      }
    </style>
    <linearGradient id="_名称未設定グラデーション_65" data-name="名称未設定グラデーション 65" x1="281.55" y1="0" x2="281.55" y2="46.38" gradientUnits="userSpaceOnUse">
      <stop offset=".47" stop-color="#bcd983"/>
      <stop offset="1" stop-color="#bcd983" stop-opacity="0"/>
    </linearGradient>
  </defs>
  <g id="_レイヤー_1-2" data-name="レイヤー 1">
    <path class="cls-1" d="M495.44,45.06l67.66-.17s-38.33-8.9-41.77-9.19c-3.44-.29-39.85-9.75-39.85-9.75,0,0-19.5-.14-32.28.92-8.33-5.2-16.72-9.3-21.72-8.6-8.77,1.22-9.94,5.31-16.28,6.06-10.74-2.64-19.34-4.75-23.24-5.71-.15-.04-.33-.07-.49-.1C373.01,11.34,360.09-.28,344.92,0c-11.12.21-31.66,9.83-47.04,17.83-15.18-5.31-22.23-7.69-40.42-6.68-.63.03-1.23.07-1.82.12-4.34-.41-9.2-.46-15.33-.12-18.97,1.05-19.24,6.06-35.05,8.43-15.81,2.37-35.57,5.53-60.6,9.75-5.71.96-11.77,2.26-17.71,3.68-9.93-3.33-19.34-6.6-24.45-8.16-3.71-1.13-11.77,2.41-19.42,6.58-5.49-1.58-10.19-3.02-12.73-3.94-8.7-3.16-10.01-2.11-17.65.53C45.06,30.66,0,46.38,0,46.38l317.34-.79-.4-.04,152.27-.19,5.34.05s-.04-.03-.07-.06l22.03-.03s-.38-.09-1.08-.27Z"/>
  </g>
</svg>